<?xml version="1.0" standalone="no"?>
<!DOCTYPE svg PUBLIC "-//W3C//DTD SVG 1.1//EN" "http://www.w3.org/Graphics/SVG/1.1/DTD/svg11.dtd" >
<svg>
<metadata>
Created by FontForge 20090914 at Sat Mar  4 07:53:27 2017
 By www-data
\251 Dutch Design: Albert-Jan Pool, 1995. Published by FontShop International FontFont release 15
</metadata>
<defs>
<font id="DIN-BlackAlternate" horiz-adv-x="500" >
  <font-face 
    font-family="DIN"
    font-weight="400"
    font-stretch="normal"
    units-per-em="1000"
    panose-1="2 0 5 3 3 0 0 2 0 4"
    ascent="814"
    descent="-186"
    x-height="538"
    cap-height="712"
    bbox="-122 -200.004 1184 1031"
    underline-thickness="108"
    underline-position="-24"
    unicode-range="U+0001-U+2122"
  />
<missing-glyph horiz-adv-x="1000" 
 />
    <glyph glyph-name=".notdef" horiz-adv-x="1000" 
 />
    <glyph glyph-name="Eth" horiz-adv-x="679" 
d="M630 356v-80.5c0 -25.667 -2 -50.167 -6 -73.5s-11.167 -46 -21.5 -68s-25.833 -43.333 -46.5 -64c-24.667 -24.667 -53.5 -42.5 -86.5 -53.5s-68.167 -16.5 -105.5 -16.5h-264v293h-65v134h65v285h264c37.333 0 72.5 -5.5 105.5 -16.5s61.833 -28.833 86.5 -53.5
c20.667 -20.667 36.167 -42 46.5 -64s17.5 -44.667 21.5 -68s6 -47.833 6 -73.5v-80.5zM455 356c0 30 -0.333008 54.333 -1 73s-1.66699 33.5 -3 44.5s-3.33301 19.667 -6 26s-5.66699 11.833 -9 16.5c-8 12 -18.5 21.667 -31.5 29s-30.5 11 -52.5 11h-77v-129h90v-134h-90
v-137h77c22 0 39.5 3.66699 52.5 11s23.5 17 31.5 29c3.33301 5.33301 6.33301 10.833 9 16.5s4.66699 14.167 6 25.5s2.33301 26.333 3 45s1 43 1 73z" />
    <glyph glyph-name="eth" horiz-adv-x="550" 
d="M499 259c0 -25.333 -0.832031 -47.833 -2.49902 -67.5s-4.83398 -37.167 -9.50098 -52.5s-10.5 -29.333 -17.5 -42s-16.167 -25 -27.5 -37c-15.333 -16.667 -36.5 -31.834 -63.5 -45.501s-61.5 -20.5 -103.5 -20.5s-76.5 6.83301 -103.5 20.5
s-48.167 28.834 -63.5 45.501c-10.667 12 -19.667 24.333 -27 37s-13.333 26.667 -18 42s-7.83398 32.833 -9.50098 52.5s-2.5 42.167 -2.5 67.5s0.833008 47.666 2.5 66.999s4.83398 36.833 9.50098 52.5s10.667 29.834 18 42.501s16.333 25 27 37
c7.33301 8 16.833 16.167 28.5 24.5s25.167 15.833 40.5 22.5c11.333 5.33301 23.333 9.5 36 12.5s26.334 4.83301 41.001 5.5l-20 40h-113v114h57l-22 46h176l22 -46h97v-114h-41l26 -57c11.333 -24 20.833 -45.5 28.5 -64.5s14.167 -37.667 19.5 -56
s9.16602 -37.5 11.499 -57.5s3.5 -43 3.5 -69zM335.001 259c0 24.667 -1.16699 45.667 -3.5 63s-8.16602 30.666 -17.499 39.999s-22.333 14 -39 14s-29.667 -4.66699 -39 -14s-15.166 -22.666 -17.499 -39.999s-3.5 -38.333 -3.5 -63s1.16699 -45.667 3.5 -63
s8.16602 -30.666 17.499 -39.999s22.333 -14 39 -14s29.667 4.66699 39 14s15.166 22.666 17.499 39.999s3.5 38.333 3.5 63z" />
    <glyph glyph-name="Lslash" horiz-adv-x="599" 
d="M95 0v217l-60 -38v146l60 38v349h175v-239l113 71v-145l-113 -71v-172h299v-156h-474z" />
    <glyph glyph-name="lslash" horiz-adv-x="348" 
d="M241 0c-30 0 -55.501 4.83203 -76.501 14.499s-38.167 22.167 -51.5 37.5s-23.166 32.333 -29.499 51s-9.5 37.334 -9.5 56.001v120l-49 -30v137l49 30v296h164v-198l49 30v-137l-49 -30v-206c0 -22 11 -33 33 -33h57v-138h-87z" />
    <glyph glyph-name="Scaron" horiz-adv-x="593" 
d="M550 218c0 -36 -7.33594 -68 -22.0029 -96s-34.5 -51.5 -59.5 -70.5s-54.167 -33.333 -87.5 -43s-68.666 -14.5 -105.999 -14.5c-54.667 0 -104.334 6.5 -149.001 19.5s-85 37.833 -121 74.5l112 112c18.667 -18.667 42.667 -31.667 72 -39s58.333 -11 87 -11
c68 0 102 21.333 102 64c0 18 -4.66699 32 -14 42c-10 10 -25.667 16.333 -47 19l-86 12c-63.333 9.33301 -111 30.333 -143 63c-32.667 33.333 -49 81 -49 143c0 32.667 6 62.667 18 90s29.167 51 51.5 71s49.5 35.667 81.5 47s68.333 17 109 17
c51.333 0 96.5 -6.5 135.5 -19.5s73.833 -34.833 104.5 -65.5l-110 -110c-11.333 11.333 -23.333 19.833 -36 25.5s-25 9.83398 -37 12.501s-23.333 4 -34 4h-28c-15.333 0 -28.333 -2 -39 -6s-19.5 -9.16699 -26.5 -15.5s-12.167 -13.333 -15.5 -21s-5 -15.5 -5 -23.5
c0 -4.66699 1 -10 3 -16s5.66699 -11.667 11 -17c4.66699 -4.66699 10.834 -9 18.501 -13s17.834 -6.66699 30.501 -8l86 -12c62.667 -8.66699 109.334 -28.334 140.001 -59.001c19.333 -18.667 33 -41 41 -67s12 -55.667 12 -89zM359.997 782h-126l-136 179h120l79 -83
l79 83h120z" />
    <glyph glyph-name="scaron" horiz-adv-x="504" 
d="M477 176c0 -32 -6.33203 -59.335 -18.999 -82.002s-29.667 -41.5 -51 -56.5s-46 -26 -74 -33s-57.667 -10.5 -89 -10.5c-20 0 -40 0.666992 -60 2s-39.833 4.5 -59.5 9.5s-39 12.667 -58 23s-37.833 24.833 -56.5 43.5l106 106c11.333 -11.333 23.166 -20 35.499 -26
s24.5 -10.5 36.5 -13.5s23.167 -4.66699 33.5 -5s18.833 -0.5 25.5 -0.5c6 0 13 0.5 21 1.5s15.667 2.83301 23 5.5s13.5 6.33398 18.5 11.001s7.5 10.334 7.5 17.001c0 7.33301 -2.5 14.5 -7.5 21.5s-15.5 11.167 -31.5 12.5l-83 8c-23.333 2 -44.5 6.33301 -63.5 13
s-35.333 16.334 -49 29.001s-24.334 28.334 -32.001 47.001s-11.5 41 -11.5 67c0 30 6.16699 56 18.5 78s28.5 40.5 48.5 55.5s42.833 26.167 68.5 33.5s51.834 11 78.501 11c44 0 83.667 -4.33301 119 -13s66.333 -26.334 93 -53.001l-101 -101
c-13.333 13.333 -30.333 22 -51 26s-41.667 6 -63 6c-20 0 -33.833 -3.66699 -41.5 -11s-11.5 -14 -11.5 -20c0 -1.33301 0.166992 -3.5 0.5 -6.5s1.5 -6 3.5 -9s5.33301 -5.83301 10 -8.5s11.667 -4.66699 21 -6l83 -8c28 -2.66699 52.333 -8.66699 73 -18
s37.5 -21.333 50.5 -36s22.667 -31.334 29 -50.001s9.5 -38.667 9.5 -60zM316.001 609.998h-126l-136 179h120l79 -83l79 83h120z" />
    <glyph glyph-name="Yacute" horiz-adv-x="605" 
d="M390 290v-290h-175v290l-215 422h191l112 -256l111 256h191zM343 782h-99l49 180h168z" />
    <glyph glyph-name="yacute" horiz-adv-x="514" 
d="M299 -64c-10.667 -30 -24.666 -53.668 -41.999 -71.001c-16 -17.333 -34.167 -29.166 -54.5 -35.499s-42.5 -9.5 -66.5 -9.5h-62v148h35c14.667 0 26.167 2.5 34.5 7.5s15.166 15.833 20.499 32.5l15 45l-179 485h172l91 -279l87 279h172zM298.001 609.999h-99l49 180
h168z" />
    <glyph glyph-name="Thorn" horiz-adv-x="627" 
d="M597 360c0 -29.333 -5.16699 -57.6699 -15.5 -85.0029s-25.833 -51.666 -46.5 -72.999s-46.167 -38.5 -76.5 -51.5s-65.166 -19.5 -104.499 -19.5h-107v-131h-175v712h175v-123h107c39.333 0 74.166 -6.5 104.499 -19.5s55.833 -30.167 76.5 -51.5
s36.167 -45.666 46.5 -72.999s15.5 -55.666 15.5 -84.999zM422 359.996c0 18.667 -6.66699 35.332 -20 49.999s-32 22 -56 22h-99v-144h99c24 0 42.667 7.33301 56 22s20 31.334 20 50.001z" />
    <glyph glyph-name="thorn" horiz-adv-x="571" 
d="M526 269c0 -20 -0.166992 -40.498 -0.5 -61.498s-2 -41.5 -5 -61.5s-7.83301 -38.833 -14.5 -56.5s-16.667 -33.167 -30 -46.5c-15.333 -15.333 -34.333 -27.333 -57 -36s-47 -13 -73 -13c-26.667 0 -49.5 3.66699 -68.5 11s-36.167 18.666 -51.5 33.999v-213h-164v886
h164v-213c15.333 15.333 32.5 26.666 51.5 33.999s41.833 11 68.5 11c26 0 50.333 -4.33301 73 -13s41.667 -20.667 57 -36c13.333 -13.333 23.333 -28.833 30 -46.5s11.5 -36.5 14.5 -56.5s4.66699 -40.5 5 -61.5s0.5 -41.5 0.5 -61.5zM362 269.002
c0 19.333 -0.666992 36.833 -2 52.5s-4.33301 29 -9 40s-11.5 19.5 -20.5 25.5s-21.167 9 -36.5 9s-27.5 -3 -36.5 -9s-15.833 -14.5 -20.5 -25.5s-7.66699 -24.333 -9 -40s-2 -33.167 -2 -52.5s0.666992 -36.833 2 -52.5s4.33301 -29 9 -40s11.5 -19.5 20.5 -25.5
s21.167 -9 36.5 -9s27.5 3 36.5 9s15.833 14.5 20.5 25.5s7.66699 24.333 9 40s2 33.167 2 52.5z" />
    <glyph glyph-name="Zcaron" horiz-adv-x="543" 
d="M30 0v136l273 420h-261v156h471v-136l-274 -420h274v-156h-483zM336 782h-126l-136 179h120l79 -83l79 83h120z" />
    <glyph glyph-name="zcaron" horiz-adv-x="489" 
d="M30 0v121l205 269h-193v148h407v-121l-209 -269h209v-148h-419zM309 610h-126l-136 179h120l79 -83l79 83h120z" />
    <glyph glyph-name="onehalf" horiz-adv-x="904" 
d="M577 0l-0.000976562 103.998l151 154c8 8 13.667 14.667 17 20s5 12 5 20c0 8.66699 -2.5 15.667 -7.5 21s-12.167 8 -21.5 8c-5.33301 0 -11.333 -1.66699 -18 -5s-10 -11.666 -10 -24.999h-116c0 22 4 41.5 12 58.5s18.5 31 31.5 42s28.333 19.333 46 25
s35.834 8.5 54.501 8.5c20.667 0 39.667 -3 57 -9s32.333 -14.667 45 -26s22.667 -25.166 30 -41.499s11 -35.166 11 -56.499c0 -24 -5 -43.833 -15 -59.5s-24.667 -32.834 -44 -51.501l-87 -83h146v-104h-287zM319.999 -0.00195312h-126l339 712h126zM129.999 284.998v297
l-95 -82v130l95 82h116v-427h-116z" />
    <glyph glyph-name="onequarter" horiz-adv-x="871" 
d="M805 53v-53h-109v53h-179v110l138 264h127l-139 -264h53v37h109v-37h26v-110h-26zM320 0h-126l339 712h126zM130 285v297l-95 -82v130l95 82h116v-427h-116z" />
    <glyph glyph-name="onesuperior" horiz-adv-x="311" 
d="M130 285v297l-95 -82v130l95 82h116v-427h-116z" />
    <glyph glyph-name="threequarters" horiz-adv-x="891" 
d="M825 53v-53h-109v53h-179v110l138 264h127l-139 -264h53v37h109v-37h26v-110h-26zM340 0h-126l339 712h126zM335 416c0 -23.333 -4.16309 -43.5029 -12.4961 -60.5029s-19.333 -31 -33 -42s-29.334 -19.167 -47.001 -24.5s-36.167 -8 -55.5 -8
c-18 0 -35.833 2.5 -53.5 7.5s-33.5 13 -47.5 24s-25.167 25.5 -33.5 43.5s-12.5 39.667 -12.5 65h115c-0.666992 -11.333 2 -20.166 8 -26.499s14 -9.5 24 -9.5c21.333 0 32 11.667 32 35c0 9.33301 -3.16699 17.333 -9.5 24s-14.166 10 -23.499 10h-16v99h16
c11.333 0 19.166 3.5 23.499 10.5s6.5 13.167 6.5 18.5c0 10 -2.83301 17.5 -8.5 22.5s-12.167 7.5 -19.5 7.5s-14 -2.5 -20 -7.5s-8.66699 -12.833 -8 -23.5h-116c0 20.667 3.66699 39.334 11 56.001s17.666 30.834 30.999 42.501s28.666 20.667 45.999 27s36 9.5 56 9.5
c20.667 0 39.667 -3.33301 57 -10s32.333 -15.667 45 -27s22.667 -25 30 -41s11 -33.333 11 -52c0 -24 -4.5 -41.667 -13.5 -53s-17.833 -20.333 -26.5 -27l14 -14c5.33301 -5.33301 10.166 -11.5 14.499 -18.5s8 -15.167 11 -24.5s4.5 -20.333 4.5 -33z" />
    <glyph glyph-name="threesuperior" horiz-adv-x="375" 
d="M335 416c0 -23.333 -4.16309 -43.5029 -12.4961 -60.5029s-19.333 -31 -33 -42s-29.334 -19.167 -47.001 -24.5s-36.167 -8 -55.5 -8c-18 0 -35.833 2.5 -53.5 7.5s-33.5 13 -47.5 24s-25.167 25.5 -33.5 43.5s-12.5 39.667 -12.5 65h115
c-0.666992 -11.333 2 -20.166 8 -26.499s14 -9.5 24 -9.5c21.333 0 32 11.667 32 35c0 9.33301 -3.16699 17.333 -9.5 24s-14.166 10 -23.499 10h-16v99h16c11.333 0 19.166 3.5 23.499 10.5s6.5 13.167 6.5 18.5c0 10 -2.83301 17.5 -8.5 22.5s-12.167 7.5 -19.5 7.5
s-14 -2.5 -20 -7.5s-8.66699 -12.833 -8 -23.5h-116c0 20.667 3.66699 39.334 11 56.001s17.666 30.834 30.999 42.501s28.666 20.667 45.999 27s36 9.5 56 9.5c20.667 0 39.667 -3.33301 57 -10s32.333 -15.667 45 -27s22.667 -25 30 -41s11 -33.333 11 -52
c0 -24 -4.5 -41.667 -13.5 -53s-17.833 -20.333 -26.5 -27l14 -14c5.33301 -5.33301 10.166 -11.5 14.499 -18.5s8 -15.167 11 -24.5s4.5 -20.333 4.5 -33z" />
    <glyph glyph-name="twosuperior" horiz-adv-x="367" 
d="M40 285l-0.000976562 103.998l151 154c8 8 13.667 14.667 17 20s5 12 5 20c0 8.66699 -2.5 15.667 -7.5 21s-12.167 8 -21.5 8c-5.33301 0 -11.333 -1.66699 -18 -5s-10 -11.666 -10 -24.999h-116c0 22 4 41.5 12 58.5s18.5 31 31.5 42s28.333 19.333 46 25
s35.834 8.5 54.501 8.5c20.667 0 39.667 -3 57 -9s32.333 -14.667 45 -26s22.667 -25.166 30 -41.499s11 -35.166 11 -56.499c0 -24 -5 -43.833 -15 -59.5s-24.667 -32.834 -44 -51.501l-87 -83h146v-104h-287z" />
    <glyph glyph-name="brokenbar" horiz-adv-x="364" 
d="M100 436v350h164v-350h-164zM100 -74v350h164v-350h-164z" />
    <glyph glyph-name="minus" horiz-adv-x="556" 
d="M49 218v154h458v-154h-458z" />
    <glyph glyph-name="multiply" horiz-adv-x="556" 
d="M413 57l-135 135l-134 -135l-105 104l136 134l-136 135l104 104l134 -135l135 135l105 -104l-136 -135l136 -134z" />
    <glyph glyph-name="space" unicode=" " horiz-adv-x="222" 
 />
    <glyph glyph-name="exclam" unicode="!" horiz-adv-x="366" 
d="M262 237h-118l-44 475h206zM298 92c0 -12.667 -2.5 -24.834 -7.5 -36.501s-11.833 -21.834 -20.5 -30.501s-18.667 -15.5 -30 -20.5s-23.666 -7.5 -36.999 -7.5c-12.667 0 -24.834 2.5 -36.501 7.5s-21.834 11.833 -30.501 20.5s-15.5 18.834 -20.5 30.501
s-7.5 23.834 -7.5 36.501c0 13.333 2.5 25.666 7.5 36.999s11.833 21.333 20.5 30s18.834 15.5 30.501 20.5s23.834 7.5 36.501 7.5c13.333 0 25.666 -2.5 36.999 -7.5s21.333 -11.833 30 -20.5s15.5 -18.667 20.5 -30s7.5 -23.666 7.5 -36.999z" />
    <glyph glyph-name="quotedbl" unicode="&#x22;" horiz-adv-x="488" 
d="M284 478v234h147v-234h-147zM57 478v234h147v-234h-147z" />
    <glyph glyph-name="numbersign" unicode="#" horiz-adv-x="713" 
d="M583 412l-13 -88h58v-155h-83l-27 -169h-174l27 169h-90l-27 -169h-174l27 169h-58v155h83l13 88h-58v155h83l24 153h174l-24 -153h90l24 153h174l-24 -153h58v-155h-83zM319 412l-13 -88h90l13 88h-90z" />
    <glyph glyph-name="dollar" unicode="$" horiz-adv-x="633" 
d="M590 218c0 -31.333 -5.50293 -59.498 -16.5029 -84.498s-26 -46.667 -45 -65s-41.667 -33.333 -68 -45s-54.5 -19.834 -84.5 -24.501v-113h-126v108c-49.333 1.33301 -94.166 8.83301 -134.499 22.5s-77.166 37.5 -110.499 71.5l112 112c18 -18 41 -30.667 69 -38
s56 -11.333 84 -12v132l-39 5c-62 8 -109.667 29 -143 63c-32.667 33.333 -49 81 -49 143c0 29.333 4.83301 56.5 14.5 81.5s23.5 47.167 41.5 66.5s40 35.5 66 48.5s55.667 21.5 89 25.5v91h126v-89c42 -2.66699 79.667 -10.667 113 -24s63.333 -33.333 90 -60l-110 -110
c-8 8 -16.833 14.5 -26.5 19.5s-19.667 9 -30 12s-20.5 5.16699 -30.5 6.5s-18.667 2.33301 -26 3v-125l41 -6c62.667 -8.66699 109.334 -28.334 140.001 -59.001c19.333 -18.667 33 -41 41 -67s12 -55.667 12 -89zM269.997 563.002c-22 -4 -37.834 -12.333 -47.501 -25
s-14.5 -25.667 -14.5 -39c0 -4.66699 1 -10 3 -16s5.66699 -11.667 11 -17c4.66699 -4.66699 10.834 -9 18.501 -13s17.5 -6.66699 29.5 -8v118zM417.996 214.002c0 18.667 -4.66602 32.668 -13.999 42.001c-6 6.66699 -13.333 11.167 -22 13.5
s-17.334 4.16602 -26.001 5.49902v-122c41.333 8 62 28.333 62 61z" />
    <glyph glyph-name="percent" unicode="%" horiz-adv-x="857" 
d="M812 133c0 -24 -4.16699 -44.667 -12.5 -62s-19.5 -31.666 -33.5 -42.999s-30 -19.833 -48 -25.5s-37 -8.5 -57 -8.5s-39 2.83301 -57 8.5s-34 14.167 -48 25.5s-25.167 25.666 -33.5 42.999s-12.5 38 -12.5 62v95c0 24 4.16699 44.667 12.5 62s19.5 31.666 33.5 42.999
s30 19.833 48 25.5s37 8.5 57 8.5s39 -2.83301 57 -8.5s34 -14.167 48 -25.5s25.167 -25.666 33.5 -42.999s12.5 -38 12.5 -62v-95v0zM322 0h-126l339 712h126zM347 484c0 -24 -4.16699 -44.667 -12.5 -62s-19.5 -31.666 -33.5 -42.999s-30 -19.833 -48 -25.5
s-37 -8.5 -57 -8.5s-39 2.83301 -57 8.5s-34 14.167 -48 25.5s-25.167 25.666 -33.5 42.999s-12.5 38 -12.5 62v95c0 24 4.16699 44.667 12.5 62s19.5 31.666 33.5 42.999s30 19.833 48 25.5s37 8.5 57 8.5s39 -2.83301 57 -8.5s34 -14.167 48 -25.5
s25.167 -25.666 33.5 -42.999s12.5 -38 12.5 -62v-95v0zM696 224c0 14.667 -3.33301 24.834 -10 30.501s-15 8.5 -25 8.5s-18.333 -2.83301 -25 -8.5s-10 -15.834 -10 -30.501v-87c0 -14.667 3.33301 -24.834 10 -30.501s15 -8.5 25 -8.5s18.333 2.83301 25 8.5
s10 15.834 10 30.501v87zM231 575c0 14.667 -3.33301 24.834 -10 30.501s-15 8.5 -25 8.5s-18.333 -2.83301 -25 -8.5s-10 -15.834 -10 -30.501v-87c0 -14.667 3.33301 -24.834 10 -30.501s15 -8.5 25 -8.5s18.333 2.83301 25 8.5s10 15.834 10 30.501v87z" />
    <glyph glyph-name="ampersand" unicode="&#x26;" horiz-adv-x="710" 
d="M504 0l-44.9961 52.0068c-8.66699 -6.66699 -17.834 -13.334 -27.501 -20.001s-21 -12.834 -34 -18.501s-28.167 -10.334 -45.5 -14.001s-38 -5.5 -62 -5.5c-84 0 -145.167 19.667 -183.5 59s-57.5 93.666 -57.5 162.999c0 20.667 3.33301 39.834 10 57.501
s15.5 34 26.5 49s23.167 28.5 36.5 40.5s26.666 22.333 39.999 31l-21 25c-8 9.33301 -15.333 20.166 -22 32.499s-12.334 25.833 -17.001 40.5s-7 31 -7 49c0 52.667 17.667 95.334 53 128.001s87.333 49 156 49c31.333 0 59.333 -4.33301 84 -13s45.5 -21 62.5 -37
s30 -35 39 -57s13.5 -46 13.5 -72c0 -27.333 -6.16699 -50.333 -18.5 -69s-29.5 -36.334 -51.5 -53.001l-18 -14l-16.5 -12l-15.5 -11l84 -97c10 11.333 17.667 27.166 23 47.499s8.66602 38.833 9.99902 55.5h154c-3.33301 -46.667 -11.5 -88.334 -24.5 -125.001
s-32.5 -69.334 -58.5 -98.001l139 -163h-206zM349.004 538.007c0 12 -3.66895 22 -11.002 30s-18.666 12 -33.999 12c-17.333 0 -29.166 -4 -35.499 -12s-9.5 -18.333 -9.5 -31c0 -10.667 4.83301 -21.5 14.5 -32.5s17.5 -19.5 23.5 -25.5c2.66699 1.33301 5.16699 3 7.5 5
s4.83301 4 7.5 6c2.66699 2.66699 5.66699 4.66699 9 6c8.66699 6 15.5 12.5 20.5 19.5s7.5 14.5 7.5 22.5zM249.002 295.007c-16.667 -11.333 -27.833 -22.833 -33.5 -34.5s-8.5 -26.167 -8.5 -43.5c0 -22 8.33301 -40 25 -54s36 -21 58 -21c18 0 32.167 2.5 42.5 7.5
s19.5 11.167 27.5 18.5z" />
    <glyph glyph-name="quotesingle" unicode="'" horiz-adv-x="262" 
d="M57 478v234h148v-234h-148z" />
    <glyph glyph-name="parenleft" unicode="(" horiz-adv-x="358" 
d="M199 -94l-52.5 53.502c-17.667 18.333 -32.834 38.166 -45.501 59.499c-13.333 21.333 -21.5 44.5 -24.5 69.5s-4.5 49.833 -4.5 74.5v386c0 24.667 1.5 49.5 4.5 74.5s11.167 48.167 24.5 69.5c12.667 21.333 27.834 41.166 45.501 59.499l52.5 53.5l110 -110
l-16.5 -16.5c-5 -5 -9.66699 -10 -14 -15l-13 -15.5c-4.33301 -5.33301 -8.83301 -12 -13.5 -20c-10.667 -18 -16 -46.667 -16 -86v-374c0 -39.333 5.33301 -68 16 -86c4.66699 -8 9.16699 -14.667 13.5 -20l13 -15.5c4.33301 -5 9 -10 14 -15l16.5 -16.5z" />
    <glyph glyph-name="parenright" unicode=")" horiz-adv-x="358" 
d="M286 163c0 -24.667 -1.5 -49.502 -4.5 -74.502s-11.167 -48.167 -24.5 -69.5c-12.667 -21.333 -27.834 -41.166 -45.501 -59.499l-52.5 -53.5l-110 110l16.5 16.5c5 5 9.66699 10 14 15l13 15.5c4.33301 5.33301 8.83301 12 13.5 20c10.667 18 16 46.667 16 86v374
c0 39.333 -5.33301 68 -16 86c-4.66699 8 -9.16699 14.667 -13.5 20l-13 15.5c-4.33301 5 -9 10 -14 15l-16.5 16.5l110 110l52.5 -53.5c17.667 -18.333 32.834 -38.166 45.501 -59.499c13.333 -21.333 21.5 -44.5 24.5 -69.5s4.5 -49.833 4.5 -74.5v-386v0z" />
    <glyph glyph-name="asterisk" unicode="*" horiz-adv-x="506" 
d="M403 356l-99 64l5 -118h-112l5 118l-99 -64l-56 97l105 54l-105 54l56 97l99 -64l-5 118h112l-5 -118l99 64l56 -97l-105 -54l105 -54z" />
    <glyph glyph-name="plus" unicode="+" horiz-adv-x="556" 
d="M355 206v-152h-154v152h-152v154h152v152h154v-152h152v-154h-152z" />
    <glyph glyph-name="comma" unicode="," horiz-adv-x="288" 
d="M57 -178v352h174v-224z" />
    <glyph glyph-name="hyphen" unicode="-" horiz-adv-x="426" 
d="M49 218v154h328v-154h-328z" />
    <glyph glyph-name="period" unicode="." horiz-adv-x="308" 
d="M259 102c0 -14.667 -2.66699 -28.334 -8 -41.001s-12.833 -23.667 -22.5 -33s-20.834 -16.833 -33.501 -22.5s-26.334 -8.5 -41.001 -8.5s-28.334 2.83301 -41.001 8.5s-23.667 13.167 -33 22.5s-16.833 20.333 -22.5 33s-8.5 26.334 -8.5 41.001
s2.83301 28.334 8.5 41.001s13.167 23.834 22.5 33.501s20.333 17.167 33 22.5s26.334 8 41.001 8s28.334 -2.66699 41.001 -8s23.834 -12.833 33.501 -22.5s17.167 -20.834 22.5 -33.501s8 -26.334 8 -41.001z" />
    <glyph glyph-name="slash" unicode="/" horiz-adv-x="431" 
d="M152 -74h-152l285 860h152z" />
    <glyph glyph-name="zero" unicode="0" horiz-adv-x="556" 
d="M507 216c0 -36.667 -6.33301 -68.834 -19 -96.501s-29.667 -50.834 -51 -69.501s-45.833 -32.667 -73.5 -42s-56.167 -14 -85.5 -14s-57.833 4.66699 -85.5 14s-52.167 23.333 -73.5 42s-38.333 41.834 -51 69.501s-19 59.834 -19 96.501v165
c0 36.667 6.33301 68.834 19 96.501s29.667 50.834 51 69.501s45.833 32.667 73.5 42s56.167 14 85.5 14s57.833 -4.66699 85.5 -14s52.167 -23.333 73.5 -42s38.333 -41.834 51 -69.501s19 -59.834 19 -96.501v-165v0zM343 381c0 25.333 -6.5 44 -19.5 56
s-28.167 18 -45.5 18s-32.5 -6 -45.5 -18s-19.5 -30.667 -19.5 -56v-166c0 -25.333 6.5 -43.833 19.5 -55.5s28.167 -17.5 45.5 -17.5s32.5 5.83301 45.5 17.5s19.5 30.167 19.5 55.5v166z" />
    <glyph glyph-name="one" unicode="1" horiz-adv-x="476" 
d="M207 0v422l-152 -132v175l152 132h164v-597h-164z" />
    <glyph glyph-name="two" unicode="2" horiz-adv-x="573" 
d="M45 0l-0.00195312 147.999l221 173c23.333 18 41.333 34.167 54 48.5s19 29.166 19 44.499c0 18.667 -5.66699 33.5 -17 44.5s-27 16.5 -47 16.5c-7.33301 0 -15 -1 -23 -3s-15.167 -5.66699 -21.5 -11s-11.5 -12.333 -15.5 -21s-6 -20 -6 -34h-164
c0 35.333 6.16699 66.333 18.5 93s29 49.334 50 68.001s45.5 32.667 73.5 42s57.333 14 88 14c32 0 61.833 -4.66699 89.5 -14s51.834 -22.833 72.501 -40.5s36.834 -39.167 48.501 -64.5s17.5 -54 17.5 -86c0 -20 -3.5 -38.667 -10.5 -56s-17 -34.166 -30 -50.499
s-28.5 -32.5 -46.5 -48.5s-38 -32.333 -60 -49l-86 -66h243v-148h-468z" />
    <glyph glyph-name="three" unicode="3" horiz-adv-x="546" 
d="M504 98c0 -37.333 -6.50391 -69.6709 -19.5039 -97.0039s-30.333 -50 -52 -68s-46.834 -31.5 -75.501 -40.5s-58.667 -13.5 -90 -13.5c-29.333 0 -58.166 4.16699 -86.499 12.5s-53.666 21.333 -75.999 39s-40.333 40.667 -54 69s-20.5 62.5 -20.5 102.5h164
c0 -25.333 7 -44.166 21 -56.499s31.333 -18.5 52 -18.5c21.333 0 38.833 6.33301 52.5 19s20.5 31.667 20.5 57c0 21.333 -7.16699 39.166 -21.5 53.499s-32.5 21.5 -54.5 21.5h-23v142h23c24.667 0 42.167 7.16699 52.5 21.5s15.5 29.5 15.5 45.5
c0 22.667 -6.5 39.667 -19.5 51s-28.167 17 -45.5 17s-32.5 -5.83301 -45.5 -17.5s-19.5 -28.167 -19.5 -49.5h-164c0 33.333 6 63.333 18 90s28.333 49.334 49 68.001s44.834 32.834 72.501 42.501s57.5 14.5 89.5 14.5c33.333 0 63.833 -5.16699 91.5 -15.5
s51.834 -24.833 72.501 -43.5s36.667 -41 48 -67s17 -54.333 17 -85c0 -19.333 -2.16699 -36.5 -6.5 -51.5s-10 -28 -17 -39s-14.833 -20.333 -23.5 -28s-17.667 -14.5 -27 -20.5c10 -6.66699 19.833 -14.5 29.5 -23.5s18.334 -19.667 26.001 -32s14 -26.666 19 -42.999
s7.5 -35.166 7.5 -56.499z" />
    <glyph glyph-name="four" unicode="4" horiz-adv-x="619" 
d="M506 30v-153h-156v153h-309v156l231 462h177l-231 -462h132v114h156v-114h73v-156h-73z" />
    <glyph glyph-name="five" unicode="5" horiz-adv-x="571" 
d="M525 128c0 -21.333 -1.00195 -40.668 -3.00195 -58.001s-5.5 -33.5 -10.5 -48.5s-11.667 -29 -20 -42s-19.166 -26.167 -32.499 -39.5c-15.333 -15.333 -36.666 -29.333 -63.999 -42s-61 -19 -101 -19s-74.333 6.5 -103 19.5s-50.667 27.167 -66 42.5
c-25.333 25.333 -41.5 52 -48.5 80s-11.5 55 -13.5 81h164c2.66699 -23.333 9.16699 -41.666 19.5 -54.999s26.166 -20 47.499 -20c18.667 0 34 6 46 18c14 14 21 41.667 21 83c0 39.333 -6.16699 66 -18.5 80s-28.5 21 -48.5 21c-12 0 -21.833 -1.83301 -29.5 -5.5
s-14 -8 -19 -13s-8.83301 -10.5 -11.5 -16.5l-7 -16h-151v419h434v-148h-285v-110c7.33301 5.33301 19.666 11.333 36.999 18s37 10 59 10c31.333 0 58.5 -4.66699 81.5 -14s41.833 -21.333 56.5 -36s26.334 -29.5 35.001 -44.5s15.334 -30.5 20.001 -46.5
s7.66699 -32.167 9 -48.5s2 -32.833 2 -49.5z" />
    <glyph glyph-name="six" unicode="6" horiz-adv-x="562" 
d="M527 227c0 -38.667 -6.66797 -72.6689 -20.001 -102.002s-31.166 -53.666 -53.499 -72.999s-48.333 -33.833 -78 -43.5s-61.167 -14.5 -94.5 -14.5c-32.667 0 -64 4.83301 -94 14.5s-56.167 24.167 -78.5 43.5s-40.166 43.666 -53.499 72.999s-20 63.333 -20 102
c0 24.667 1.66699 47.334 5 68.001s8.33301 41 15 61s15 40.167 25 60.5s21.333 42.166 34 65.499l134 246h177l-165 -289c8.66699 4.66699 18.667 7.83398 30 9.50098s24.666 2.5 39.999 2.5c24 0 47.833 -4.66699 71.5 -14s44.667 -23.166 63 -41.499
s33.333 -41.5 45 -69.5s17.5 -61 17.5 -99zM362.999 226.998c0 30 -8 52.667 -24 68s-35.333 23 -58 23s-42 -7.66699 -58 -23s-24 -38 -24 -68s8 -52.667 24 -68s35.333 -23 58 -23s42 7.66699 58 23s24 38 24 68z" />
    <glyph glyph-name="seven" unicode="7" horiz-adv-x="583" 
d="M301 -115h-178l247 564h-169v-112h-156v260h503v-148z" />
    <glyph glyph-name="eight" unicode="8" horiz-adv-x="576" 
d="M527 213c0 -36.667 -6.33105 -68.834 -18.998 -96.501s-29.834 -50.5 -51.501 -68.5s-47 -31.5 -76 -40.5s-59.833 -13.5 -92.5 -13.5s-63.5 4.5 -92.5 13.5s-54.333 22.5 -76 40.5s-38.834 40.833 -51.501 68.5s-19 59.834 -19 96.501c0 22 2.83301 41.333 8.5 58
s12.667 31.167 21 43.5s17.166 22.666 26.499 30.999s17.333 15.166 24 20.499l-22 20c-8.66699 8 -16.667 17.833 -24 29.5s-13.666 25 -18.999 40s-8 32.167 -8 51.5c0 34 6.33301 64 19 90s29.667 48 51 66s46 31.667 74 41s57.333 14 88 14s60 -4.66699 88 -14
s52.667 -23 74 -41s38.333 -40 51 -66s19 -56 19 -90c0 -19.333 -2.66699 -36.5 -8 -51.5s-11.666 -28.333 -18.999 -40s-15.333 -21.5 -24 -29.5l-22 -20c6.66699 -5.33301 14.667 -12.166 24 -20.499s18.166 -18.666 26.499 -30.999s15.333 -26.833 21 -43.5
s8.5 -36 8.5 -58zM356.002 502c0 19.333 -6.5 35.5 -19.5 48.5s-29.167 19.5 -48.5 19.5s-35.5 -6.5 -48.5 -19.5s-19.5 -29.167 -19.5 -48.5s6.5 -35.5 19.5 -48.5s29.167 -19.5 48.5 -19.5s35.5 6.5 48.5 19.5s19.5 29.167 19.5 48.5zM363.002 217
c0 20.667 -7.33301 38.334 -22 53.001s-32.334 22 -53.001 22s-38.334 -7.33301 -53.001 -22s-22 -32.334 -22 -53.001s7.33301 -38.334 22 -53.001s32.334 -22 53.001 -22s38.334 7.33301 53.001 22s22 32.334 22 53.001z" />
    <glyph glyph-name="nine" unicode="9" horiz-adv-x="562" 
d="M527 370c0 -24.667 -1.66602 -47.332 -4.99902 -67.999s-8.33301 -41 -15 -61s-15 -40.167 -25 -60.5s-21.333 -42.166 -34 -65.499l-134 -246h-177l165 289c-8.66699 -4.66699 -18.667 -7.83398 -30 -9.50098s-24.666 -2.5 -39.999 -2.5c-24 0 -47.833 4.66699 -71.5 14
s-44.667 23.166 -63 41.499s-33.333 41.5 -45 69.5s-17.5 61 -17.5 99c0 39.333 6.66699 73.5 20 102.5s31.166 53.167 53.499 72.5s48.5 33.833 78.5 43.5s61.333 14.5 94 14.5c33.333 0 64.833 -4.83301 94.5 -14.5s55.667 -24.167 78 -43.5s40.166 -43.5 53.499 -72.5
s20 -63.167 20 -102.5zM363.001 370.002c0 30 -8 52.667 -24 68s-35.333 23 -58 23s-42 -7.66699 -58 -23s-24 -38 -24 -68s8 -52.667 24 -68s35.333 -23 58 -23s42 7.66699 58 23s24 38 24 68z" />
    <glyph glyph-name="colon" unicode=":" horiz-adv-x="331" 
d="M282 352c0 -14.667 -2.66699 -28.334 -8 -41.001s-12.833 -23.667 -22.5 -33s-20.834 -16.833 -33.501 -22.5s-26.334 -8.5 -41.001 -8.5s-28.334 2.83301 -41.001 8.5s-23.667 13.167 -33 22.5s-16.833 20.333 -22.5 33s-8.5 26.334 -8.5 41.001
s2.83301 28.334 8.5 41.001s13.167 23.834 22.5 33.501s20.333 17.167 33 22.5s26.334 8 41.001 8s28.334 -2.66699 41.001 -8s23.834 -12.833 33.501 -22.5s17.167 -20.834 22.5 -33.501s8 -26.334 8 -41.001zM282 102c0 -14.667 -2.66699 -28.334 -8 -41.001
s-12.833 -23.667 -22.5 -33s-20.834 -16.833 -33.501 -22.5s-26.334 -8.5 -41.001 -8.5s-28.334 2.83301 -41.001 8.5s-23.667 13.167 -33 22.5s-16.833 20.333 -22.5 33s-8.5 26.334 -8.5 41.001s2.83301 28.334 8.5 41.001s13.167 23.834 22.5 33.501
s20.333 17.167 33 22.5s26.334 8 41.001 8s28.334 -2.66699 41.001 -8s23.834 -12.833 33.501 -22.5s17.167 -20.834 22.5 -33.501s8 -26.334 8 -41.001z" />
    <glyph glyph-name="semicolon" unicode=";" horiz-adv-x="317" 
d="M282 352c0 -14.667 -2.66699 -28.334 -8 -41.001s-12.833 -23.667 -22.5 -33s-20.834 -16.833 -33.501 -22.5s-26.334 -8.5 -41.001 -8.5s-28.334 2.83301 -41.001 8.5s-23.667 13.167 -33 22.5s-16.833 20.333 -22.5 33s-8.5 26.334 -8.5 41.001
s2.83301 28.334 8.5 41.001s13.167 23.834 22.5 33.501s20.333 17.167 33 22.5s26.334 8 41.001 8s28.334 -2.66699 41.001 -8s23.834 -12.833 33.501 -22.5s17.167 -20.834 22.5 -33.501s8 -26.334 8 -41.001zM90 -178v352h174v-224z" />
    <glyph glyph-name="less" unicode="&#x3c;" horiz-adv-x="1027" 
d="M513 -171l-377 377v205l300 -304v654h154v-654l300 304v-205z" />
    <glyph glyph-name="equal" unicode="=" horiz-adv-x="556" 
d="M49 340v154h458v-154h-458zM49 96v154h458v-154h-458z" />
    <glyph glyph-name="greater" unicode="&#x3e;" horiz-adv-x="1027" 
d="M591 484v-655h-154v655l-300 -304v205l377 377l377 -377v-205z" />
    <glyph glyph-name="question" unicode="?" horiz-adv-x="538" 
d="M508 508c0 -26 -4.99805 -49.333 -14.998 -70s-22 -40 -36 -58l-69 -87c-4.66699 -5.33301 -8.83398 -12.333 -12.501 -21s-5.5 -17.334 -5.5 -26.001v-9h-164v23c0 22.667 3 42.5 9 59.5s16.667 34.167 32 51.5l70 82c7.33301 8.66699 13.666 18.167 18.999 28.5
s8 19.5 8 27.5c0 17.333 -5 31.833 -15 43.5s-25 17.5 -45 17.5c-21.333 0 -36.666 -6 -45.999 -18s-14 -27 -14 -45h-164c0 34 6 64.167 18 90.5s28.167 48.333 48.5 66s44.166 31.167 71.499 40.5s56 14 86 14c29.333 0 57.5 -4.5 84.5 -13.5s50.833 -22.167 71.5 -39.5
s37.167 -39.166 49.5 -65.499s18.5 -56.833 18.5 -91.5zM383.002 92c0 -12.667 -2.5 -24.834 -7.5 -36.501s-11.833 -21.834 -20.5 -30.501s-18.667 -15.5 -30 -20.5s-23.666 -7.5 -36.999 -7.5c-12.667 0 -24.834 2.5 -36.501 7.5s-21.834 11.833 -30.501 20.5
s-15.5 18.834 -20.5 30.501s-7.5 23.834 -7.5 36.501c0 13.333 2.5 25.666 7.5 36.999s11.833 21.333 20.5 30s18.834 15.5 30.501 20.5s23.834 7.5 36.501 7.5c13.333 0 25.666 -2.5 36.999 -7.5s21.333 -11.833 30 -20.5s15.5 -18.667 20.5 -30s7.5 -23.666 7.5 -36.999z
" />
    <glyph glyph-name="at" unicode="@" horiz-adv-x="784" 
d="M584 0l0.000976562 40.0029c-15.333 -15.333 -31.5 -26.833 -48.5 -34.5s-38.5 -11.5 -64.5 -11.5c-24.667 0 -47.167 3.83301 -67.5 11.5s-37.833 18.5 -52.5 32.5c-11.333 11.333 -20.333 23.166 -27 35.499s-11.5 26.166 -14.5 41.499s-4.83301 32.166 -5.5 50.499
s-1 38.5 -1 60.5s0.333008 42.167 1 60.5s2.5 35 5.5 50s7.83301 28.833 14.5 41.5s15.667 24.667 27 36c14.667 14 32 24.833 52 32.5s42.333 11.5 67 11.5c23.333 0 43.833 -3.5 61.5 -10.5s33.5 -17.167 47.5 -30.5v26c0 17.333 -2 34.166 -6 50.499
s-12.667 31.166 -26 44.499c-12.667 12.667 -27.334 21.167 -44.001 25.5s-33.667 6.5 -51 6.5h-120c-17.333 0 -34.166 -2 -50.499 -6s-31.166 -12.667 -44.499 -26c-14 -14 -22.833 -29 -26.5 -45s-5.5 -32.667 -5.5 -50v-262c0 -21.333 2.66699 -37.666 8 -48.999
s14.666 -23.666 27.999 -36.999l-113 -113c-14 14 -25.833 27.333 -35.5 40s-17.834 26.334 -24.501 41.001s-11.5 30.667 -14.5 48s-4.5 37.333 -4.5 60v278c0 44.667 4.33301 83.667 13 117s25.667 62.666 51 87.999s54.833 42.333 88.5 51s73.5 13 119.5 13h142
c44 0 83.167 -4.16699 117.5 -12.5s64.5 -25.5 90.5 -51.5c25.333 -25.333 42.333 -54.5 51 -87.5s13 -72.167 13 -117.5v-453zM579.001 226.003c0 36 -5 61 -15 75s-25 21 -45 21s-35 -7 -45 -21s-15 -39 -15 -75s5 -61 15 -75s25 -21 45 -21s35 7 45 21s15 39 15 75z" />
    <glyph glyph-name="A" unicode="A" horiz-adv-x="653" 
d="M470 0l-33 106h-219l-35 -106h-183l259 712h135l259 -712h-183zM331 442l-64 -190h124z" />
    <glyph glyph-name="B" unicode="B" horiz-adv-x="653" 
d="M604 210c0 -34 -5.66602 -64.001 -16.999 -90.001s-26.833 -48 -46.5 -66s-43 -31.5 -70 -40.5s-56.5 -13.5 -88.5 -13.5h-310v712h295c37.333 0 70 -5 98 -15s51.667 -24 71 -42s33.833 -39.667 43.5 -65s14.5 -53.333 14.5 -84c0 -20 -3 -38 -9 -54
s-13.167 -29.833 -21.5 -41.5s-17 -21.167 -26 -28.5s-16.167 -13 -21.5 -17c7.33301 -4.66699 16 -10.667 26 -18s19.667 -17 29 -29s17.166 -26.667 23.499 -44s9.5 -38.666 9.5 -63.999zM419.001 496.999c0 14 -4.5 27.167 -13.5 39.5s-25.5 18.5 -49.5 18.5h-109v-116
h109c24 0 40.5 6.16699 49.5 18.5s13.5 25.5 13.5 39.5zM429.001 219.999c0 15.333 -4.66699 29.501 -14 42.501s-26 19.5 -50 19.5h-118v-125h118c24 0 40.667 6.66699 50 20s14 27.666 14 42.999z" />
    <glyph glyph-name="C" unicode="C" horiz-adv-x="547" 
d="M516 73c-12 -12 -24.667 -22.8311 -38 -32.498s-27.833 -18 -43.5 -25s-33 -12.333 -52 -16s-40.167 -5.5 -63.5 -5.5c-42 0 -79 6.83301 -111 20.5s-61 33.5 -87 59.5c-18.667 18.667 -33 38.834 -43 60.501s-17.167 44.5 -21.5 68.5s-6.66602 48.833 -6.99902 74.5
s-0.5 51.834 -0.5 78.501s0.166992 52.834 0.5 78.501s2.66602 50.5 6.99902 74.5s11.5 46.833 21.5 68.5s24.333 41.834 43 60.501c26 26 55 45.833 87 59.5s69 20.5 111 20.5c23.333 0 44.5 -1.83301 63.5 -5.5s36.333 -9 52 -16s30.167 -15.333 43.5 -25
s26 -20.5 38 -32.5l-116 -116c-11.333 11.333 -22.666 20.666 -33.999 27.999s-27 11 -47 11c-16 0 -29.667 -2.83301 -41 -8.5s-20.333 -12.834 -27 -21.501c-4 -5.33301 -7.66699 -11.333 -11 -18s-6.16602 -16.334 -8.49902 -29.001s-4.16602 -29.167 -5.49902 -49.5
s-2 -46.833 -2 -79.5s0.666992 -59.167 2 -79.5s3.16602 -36.833 5.49902 -49.5s5.16602 -22.334 8.49902 -29.001s7 -12.667 11 -18c6.66699 -8.66699 15.667 -15.834 27 -21.501s25 -8.5 41 -8.5c20 0 35.667 3.66699 47 11s22.666 16.666 33.999 27.999l116 -116v0z" />
    <glyph glyph-name="D" unicode="D" horiz-adv-x="651" 
d="M602 356v-80.5c0 -25.667 -2 -50.167 -6 -73.5s-11.167 -46 -21.5 -68s-25.833 -43.333 -46.5 -64c-24.667 -24.667 -53.5 -42.5 -86.5 -53.5s-68.167 -16.5 -105.5 -16.5h-264v712h264c37.333 0 72.5 -5.5 105.5 -16.5s61.833 -28.833 86.5 -53.5
c20.667 -20.667 36.167 -42 46.5 -64s17.5 -44.667 21.5 -68s6 -47.833 6 -73.5v-80.5zM427 356c0 30 -0.333008 54.333 -1 73s-1.66699 33.5 -3 44.5s-3.33301 19.667 -6 26s-5.66699 11.833 -9 16.5c-8 12 -18.5 21.667 -31.5 29s-30.5 11 -52.5 11h-77v-400h77
c22 0 39.5 3.66699 52.5 11s23.5 17 31.5 29c3.33301 5.33301 6.33301 10.833 9 16.5s4.66699 14.167 6 25.5s2.33301 26.333 3 45s1 43 1 73z" />
    <glyph glyph-name="E" unicode="E" horiz-adv-x="608" 
d="M72 0v712h484v-156h-309v-119h264v-156h-264v-125h309v-156h-484z" />
    <glyph glyph-name="F" unicode="F" horiz-adv-x="596" 
d="M247 556v-125h264v-156h-264v-275h-175v712h484v-156h-309z" />
    <glyph glyph-name="G" unicode="G" horiz-adv-x="633" 
d="M591 314c0 -28.667 -1.16504 -54.668 -3.49805 -78.001s-6.16602 -44.5 -11.499 -63.5s-12.5 -36.333 -21.5 -52s-20.167 -30.5 -33.5 -44.5c-26.667 -27.333 -56.334 -47.833 -89.001 -61.5s-70.334 -20.5 -113.001 -20.5c-42 0 -79 6.83301 -111 20.5
s-61 33.5 -87 59.5c-18.667 18.667 -33 38.834 -43 60.501s-17.167 44.5 -21.5 68.5s-6.66602 48.833 -6.99902 74.5s-0.5 51.834 -0.5 78.501s0.166992 52.834 0.5 78.501s2.66602 50.5 6.99902 74.5s11.5 46.833 21.5 68.5s24.333 41.834 43 60.501
c26 26 54.667 45.833 86 59.5s68.666 20.5 111.999 20.5c25.333 0 48.166 -1.5 68.499 -4.5s39 -8 56 -15s33.167 -16.167 48.5 -27.5s31 -25 47 -41l-119 -119c-16.667 17.333 -32 30.166 -46 38.499s-32.333 12.5 -55 12.5c-16 0 -29.833 -3 -41.5 -9
s-20.834 -13.333 -27.501 -22c-4 -5.33301 -7.66699 -11.333 -11 -18s-6 -16.167 -8 -28.5s-3.66699 -28.666 -5 -48.999s-2 -46.833 -2 -79.5s0.666992 -59.167 2 -79.5s3 -36.833 5 -49.5s4.66699 -22.334 8 -29.001s7 -12.667 11 -18
c6.66699 -8.66699 15.834 -15.834 27.501 -21.501s25.5 -8.5 41.5 -8.5c18.667 0 33.334 2.5 44.001 7.5s20 11.833 28 20.5c9.33301 9.33301 16 21.666 20 36.999s6 29 6 41v8h-98v146h272v-96v0z" />
    <glyph glyph-name="H" unicode="H" horiz-adv-x="680" 
d="M433 0v282h-186v-282h-175v712h175v-274h186v274h175v-712h-175z" />
    <glyph glyph-name="I" unicode="I" horiz-adv-x="319" 
d="M72 0v712h175v-712h-175z" />
    <glyph glyph-name="J" unicode="J" horiz-adv-x="516" 
d="M454 244c0 -42 -7.66699 -78.668 -23 -110.001s-35.5 -57.333 -60.5 -78s-53.667 -36.167 -86 -46.5s-65.166 -15.5 -98.499 -15.5c-20.667 0 -39.667 1.33301 -57 4s-33.833 7 -49.5 13s-30.5 14 -44.5 24s-28.333 22.333 -43 37l115 114
c11.333 -11.333 22.5 -20.166 33.5 -26.499s26.167 -9.5 45.5 -9.5c27.333 0 49.666 7.83301 66.999 23.5s26 40.5 26 74.5v464h175v-468v0z" />
    <glyph glyph-name="K" unicode="K" horiz-adv-x="673" 
d="M469 0l-164 292l-60 -69v-223h-173v712h173v-252l206 252h214l-243 -288l251 -424h-204z" />
    <glyph glyph-name="L" unicode="L" horiz-adv-x="576" 
d="M72 0v712h175v-556h299v-156h-474z" />
    <glyph glyph-name="M" unicode="M" horiz-adv-x="808" 
d="M561 0v341l-101 -176h-112l-101 176v-341h-175v712h172l160 -314l160 314h172v-712h-175z" />
    <glyph glyph-name="N" unicode="N" horiz-adv-x="700" 
d="M475 0l-228 358v-358h-175v712h153l228 -358v358h175v-712h-153z" />
    <glyph glyph-name="O" unicode="O" horiz-adv-x="640" 
d="M591 356c0 -26.667 -0.166992 -52.834 -0.5 -78.501s-2.66602 -50.5 -6.99902 -74.5s-11.5 -46.833 -21.5 -68.5s-24.333 -41.834 -43 -60.501c-26 -26 -54.667 -45.833 -86 -59.5s-69 -20.5 -113 -20.5s-81.667 6.83301 -113 20.5s-60 33.5 -86 59.5
c-18.667 18.667 -33 38.834 -43 60.501s-17.167 44.5 -21.5 68.5s-6.66602 48.833 -6.99902 74.5s-0.5 51.834 -0.5 78.501s0.166992 52.834 0.5 78.501s2.66602 50.5 6.99902 74.5s11.5 46.833 21.5 68.5s24.333 41.834 43 60.501c26 26 54.667 45.833 86 59.5
s69 20.5 113 20.5s81.667 -6.83301 113 -20.5s60 -33.5 86 -59.5c18.667 -18.667 33 -38.834 43 -60.501s17.167 -44.5 21.5 -68.5s6.66602 -48.833 6.99902 -74.5s0.5 -51.834 0.5 -78.501zM416 356c0 32.667 -0.666992 59.167 -2 79.5s-3 36.666 -5 48.999
s-4.66699 21.833 -8 28.5s-7 12.667 -11 18c-6.66699 8.66699 -16 16 -28 22s-26 9 -42 9s-30 -3 -42 -9s-21.333 -13.333 -28 -22c-4 -5.33301 -7.66699 -11.333 -11 -18s-6 -16.167 -8 -28.5s-3.66699 -28.666 -5 -48.999s-2 -46.833 -2 -79.5s0.666992 -59 2 -79
s3 -36.167 5 -48.5s4.66699 -21.833 8 -28.5s7 -12.667 11 -18c6.66699 -8.66699 16 -16.167 28 -22.5s26 -9.5 42 -9.5s30 3.16699 42 9.5s21.333 13.833 28 22.5c4 5.33301 7.66699 11.333 11 18s6 16.167 8 28.5s3.66699 28.5 5 48.5s2 46.333 2 79z" />
    <glyph glyph-name="P" unicode="P" horiz-adv-x="627" 
d="M597 483c0 -29.333 -5.16699 -57.6699 -15.5 -85.0029s-25.833 -51.666 -46.5 -72.999s-46.167 -38.5 -76.5 -51.5s-65.166 -19.5 -104.499 -19.5h-107v-254h-175v712h282c39.333 0 74.166 -6.5 104.499 -19.5s55.833 -30.167 76.5 -51.5s36.167 -45.666 46.5 -72.999
s15.5 -55.666 15.5 -84.999zM422 482.996c0 18.667 -6.66699 35.332 -20 49.999s-32 22 -56 22h-99v-144h99c24 0 42.667 7.33301 56 22s20 31.334 20 50.001z" />
    <glyph glyph-name="Q" unicode="Q" horiz-adv-x="640" 
d="M513 -28l-54.999 54.999c-38 -22 -84 -33 -138 -33c-44 0 -81.667 6.83301 -113 20.5s-60 33.5 -86 59.5c-18.667 18.667 -33 38.834 -43 60.501s-17.167 44.5 -21.5 68.5s-6.66602 48.833 -6.99902 74.5s-0.5 51.834 -0.5 78.501s0.166992 52.834 0.5 78.501
s2.66602 50.5 6.99902 74.5s11.5 46.833 21.5 68.5s24.333 41.834 43 60.501c26 26 54.667 45.833 86 59.5s69 20.5 113 20.5s81.667 -6.83301 113 -20.5s60 -33.5 86 -59.5c18.667 -18.667 33 -38.834 43 -60.501s17.167 -44.5 21.5 -68.5s6.66602 -48.833 6.99902 -74.5
s0.5 -51.834 0.5 -78.501c0 -22 -0.166992 -43.833 -0.5 -65.5s-1.66602 -42.834 -3.99902 -63.501s-6.33301 -40.5 -12 -59.5s-13.834 -37.167 -24.501 -54.5l52 -52zM416.001 355.999c0 32.667 -0.666992 59.167 -2 79.5s-3 36.666 -5 48.999s-4.66699 21.833 -8 28.5
s-7 12.667 -11 18c-6.66699 8.66699 -16 16 -28 22s-26 9 -42 9s-30 -3 -42 -9s-21.333 -13.333 -28 -22c-4 -5.33301 -7.66699 -11.333 -11 -18s-6 -16.167 -8 -28.5s-3.66699 -28.666 -5 -48.999s-2 -46.833 -2 -79.5s0.666992 -59 2 -79s3 -36.167 5 -48.5
s4.66699 -21.833 8 -28.5s7 -12.667 11 -18c6.66699 -8.66699 16 -16.167 28 -22.5s26 -9.5 42 -9.5c6 0 10.667 0.333008 14 1l-45 45l89 89l34 -34c1.33301 12 2.33301 26.5 3 43.5s1 37.5 1 61.5z" />
    <glyph glyph-name="R" unicode="R" horiz-adv-x="652" 
d="M432 0l-125.999 264.998h-59v-265h-175v712h282c39.333 0 74.166 -6.5 104.499 -19.5s55.833 -30.167 76.5 -51.5s36.167 -45.666 46.5 -72.999s15.5 -55.666 15.5 -84.999c0 -24 -3.33301 -46 -10 -66s-15.5 -37.667 -26.5 -53s-23.5 -28.5 -37.5 -39.5
s-28 -20.167 -42 -27.5l154 -297h-203zM422.001 482.998c0 18.667 -6.66699 35.332 -20 49.999s-32 22 -56 22h-99v-144h99c24 0 42.667 7.33301 56 22s20 31.334 20 50.001z" />
    <glyph glyph-name="S" unicode="S" horiz-adv-x="593" 
d="M550 218c0 -36 -7.33594 -68 -22.0029 -96s-34.5 -51.5 -59.5 -70.5s-54.167 -33.333 -87.5 -43s-68.666 -14.5 -105.999 -14.5c-54.667 0 -104.334 6.5 -149.001 19.5s-85 37.833 -121 74.5l112 112c18.667 -18.667 42.667 -31.667 72 -39s58.333 -11 87 -11
c68 0 102 21.333 102 64c0 18 -4.66699 32 -14 42c-10 10 -25.667 16.333 -47 19l-86 12c-63.333 9.33301 -111 30.333 -143 63c-32.667 33.333 -49 81 -49 143c0 32.667 6 62.667 18 90s29.167 51 51.5 71s49.5 35.667 81.5 47s68.333 17 109 17
c51.333 0 96.5 -6.5 135.5 -19.5s73.833 -34.833 104.5 -65.5l-110 -110c-11.333 11.333 -23.333 19.833 -36 25.5s-25 9.83398 -37 12.501s-23.333 4 -34 4h-28c-15.333 0 -28.333 -2 -39 -6s-19.5 -9.16699 -26.5 -15.5s-12.167 -13.333 -15.5 -21s-5 -15.5 -5 -23.5
c0 -4.66699 1 -10 3 -16s5.66699 -11.667 11 -17c4.66699 -4.66699 10.834 -9 18.501 -13s17.834 -6.66699 30.501 -8l86 -12c62.667 -8.66699 109.334 -28.334 140.001 -59.001c19.333 -18.667 33 -41 41 -67s12 -55.667 12 -89z" />
    <glyph glyph-name="T" unicode="T" horiz-adv-x="585" 
d="M380 556v-556h-175v556h-175v156h525v-156h-175z" />
    <glyph glyph-name="U" unicode="U" horiz-adv-x="660" 
d="M600 250c0 -38.667 -7.16309 -73.834 -21.4961 -105.501s-33.833 -58.667 -58.5 -81s-53.334 -39.5 -86.001 -51.5s-67.667 -18 -105 -18c-36.667 0 -71.334 6 -104.001 18s-61.334 29.167 -86.001 51.5s-44 49.333 -58 81s-21 66.834 -21 105.501v462h175v-458
c0 -33.333 8.33301 -59 25 -77s39.667 -27 69 -27s52.666 9 69.999 27s26 43.667 26 77v458h175v-462v0z" />
    <glyph glyph-name="V" unicode="V" horiz-adv-x="601" 
d="M365 0h-130l-235 712h181l120 -398l118 398h182z" />
    <glyph glyph-name="W" unicode="W" horiz-adv-x="906" 
d="M711 0h-143l-115 351l-115 -351h-142l-196 712h183l93 -376l115 376h124l115 -376l93 376h183z" />
    <glyph glyph-name="X" unicode="X" horiz-adv-x="634" 
d="M434 0l-117 219l-117 -219h-200l222 365l-208 347h199l104 -201l104 201h199l-208 -347l222 -365h-200z" />
    <glyph glyph-name="Y" unicode="Y" horiz-adv-x="605" 
d="M390 290v-290h-175v290l-215 422h191l112 -256l111 256h191z" />
    <glyph glyph-name="Z" unicode="Z" horiz-adv-x="543" 
d="M30 0v136l273 420h-261v156h471v-136l-274 -420h274v-156h-483z" />
    <glyph glyph-name="bracketleft" unicode="[" horiz-adv-x="416" 
d="M72 -74v860h304v-148h-140v-564h140v-148h-304z" />
    <glyph glyph-name="backslash" unicode="\" horiz-adv-x="431" 
d="M279 -74l-279 842h152l279 -842h-152z" />
    <glyph glyph-name="bracketright" unicode="]" horiz-adv-x="416" 
d="M40 -74v148h140v564h-140v148h304v-860h-304z" />
    <glyph glyph-name="asciicircum" unicode="^" horiz-adv-x="640" 
d="M410 375l-90 165l-90 -165h-173l187 345h152l187 -345h-173z" />
    <glyph glyph-name="underscore" unicode="_" horiz-adv-x="640" 
d="M0 -186v108h640v-108h-640z" />
    <glyph glyph-name="grave" unicode="`" 
d="M209 610l-118 180h168l49 -180h-99z" />
    <glyph glyph-name="a" unicode="a" horiz-adv-x="536" 
d="M323 0v44c-16.667 -16.667 -33.667 -29 -51 -37s-40.333 -12 -69 -12c-27.333 0 -51.833 4.16699 -73.5 12.5s-40.167 20.166 -55.5 35.499s-27 33.833 -35 55.5s-12 45.167 -12 70.5c0 20 3.5 39.5 10.5 58.5s18 35.667 33 50s34 25.833 57 34.5s50.5 13 82.5 13h109v14
c0 24.667 -6.33301 42 -19 52s-33.334 15 -62.001 15c-21.333 0 -37.666 -2.66699 -48.999 -8s-23.666 -14.666 -36.999 -27.999l-102 102c14 14 27.667 25.5 41 34.5s27.833 16.333 43.5 22s32.5 9.66699 50.5 12s38.333 3.5 61 3.5c77.333 0 136.166 -16 176.499 -48
s60.5 -81 60.5 -147v-349h-160zM319 216h-83c-16 0 -28.667 -4 -38 -12s-14 -18.333 -14 -31c0 -12 4.5 -22.5 13.5 -31.5s22.5 -13.5 40.5 -13.5c16 0 28.5 1.16699 37.5 3.5s18.167 7.83301 27.5 16.5c10.667 10 16 28 16 54v14z" />
    <glyph glyph-name="b" unicode="b" horiz-adv-x="569" 
d="M526 269c0 -20 -0.166992 -40.499 -0.5 -61.499s-2 -41.5 -5 -61.5s-7.83301 -38.833 -14.5 -56.5s-16.667 -33.167 -30 -46.5c-15.333 -15.333 -34.5 -27.333 -57.5 -36s-47.5 -13 -73.5 -13c-28 0 -51.5 4.16699 -70.5 12.5s-36.833 20.833 -53.5 37.5v-44h-159v712
h164v-213c15.333 15.333 32.5 26.666 51.5 33.999s41.833 11 68.5 11c26 0 50.333 -4.33301 73 -13s41.667 -20.667 57 -36c13.333 -13.333 23.333 -28.833 30 -46.5s11.5 -36.5 14.5 -56.5s4.66699 -40.5 5 -61.5s0.5 -41.5 0.5 -61.5zM362 269.001
c0 19.333 -0.666992 36.833 -2 52.5s-4.33301 29 -9 40s-11.5 19.5 -20.5 25.5s-21.167 9 -36.5 9s-27.5 -3 -36.5 -9s-15.833 -14.5 -20.5 -25.5s-7.66699 -24.333 -9 -40s-2 -33.167 -2 -52.5s0.666992 -36.833 2 -52.5s4.33301 -29 9 -40s11.5 -19.5 20.5 -25.5
s21.167 -9 36.5 -9s27.5 3 36.5 9s15.833 14.5 20.5 25.5s7.66699 24.333 9 40s2 33.167 2 52.5z" />
    <glyph glyph-name="c" unicode="c" horiz-adv-x="475" 
d="M457 63c-22 -22 -47.5 -39.0039 -76.5 -51.0039s-62.5 -18 -100.5 -18c-23.333 0 -49 3.33301 -77 10s-54.333 19.834 -79 39.501s-45.167 47.5 -61.5 83.5s-24.5 83.333 -24.5 142s8.16699 106 24.5 142s36.833 63.833 61.5 83.5s51 32.834 79 39.501s53.667 10 77 10
c38 0 71.5 -6 100.5 -18s54.5 -29 76.5 -51l-111 -111c-10.667 10.667 -21 18.667 -31 24s-21.667 8 -35 8c-11.333 0 -20.833 -1.66699 -28.5 -5s-15.167 -8.66602 -22.5 -15.999c-18 -18.667 -27 -54 -27 -106s9 -87.333 27 -106
c7.33301 -7.33301 14.833 -12.666 22.5 -15.999s17.167 -5 28.5 -5c13.333 0 25 2.66699 35 8s20.333 13.333 31 24l111 -111v0z" />
    <glyph glyph-name="d" unicode="d" horiz-adv-x="569" 
d="M348 0v43.999c-16.667 -16.667 -34.5 -29.167 -53.5 -37.5s-42.5 -12.5 -70.5 -12.5c-26 0 -50.5 4.33301 -73.5 13s-42.167 20.667 -57.5 36c-13.333 13.333 -23.333 28.833 -30 46.5s-11.5 36.5 -14.5 56.5s-4.66699 40.5 -5 61.5s-0.5 41.5 -0.5 61.5
s0.166992 40.5 0.5 61.5s2 41.5 5 61.5s7.83301 38.833 14.5 56.5s16.667 33.167 30 46.5c15.333 15.333 34.333 27.333 57 36s47 13 73 13c26.667 0 49.5 -3.66699 68.5 -11s36.167 -18.666 51.5 -33.999v213h164v-712h-159zM343 268.999
c0 19.333 -0.666992 36.833 -2 52.5s-4.33301 29 -9 40s-11.5 19.5 -20.5 25.5s-21.167 9 -36.5 9s-27.5 -3 -36.5 -9s-15.833 -14.5 -20.5 -25.5s-7.66699 -24.333 -9 -40s-2 -33.167 -2 -52.5s0.666992 -36.833 2 -52.5s4.33301 -29 9 -40s11.5 -19.5 20.5 -25.5
s21.167 -9 36.5 -9s27.5 3 36.5 9s15.833 14.5 20.5 25.5s7.66699 24.333 9 40s2 33.167 2 52.5z" />
    <glyph glyph-name="e" unicode="e" horiz-adv-x="559" 
d="M199 216c0 -22 8.16797 -41.502 24.501 -58.502s39.833 -25.5 70.5 -25.5c28.667 0 50.667 3.83301 66 11.5s30.333 18.834 45 33.501l98 -98c-14 -14 -28 -26.167 -42 -36.5s-29.167 -19.166 -45.5 -26.499s-34.333 -12.833 -54 -16.5s-42.167 -5.5 -67.5 -5.5
c-30 0 -60.167 3.5 -90.5 10.5s-57.666 20.333 -81.999 40s-44.333 47.5 -60 83.5s-23.5 83 -23.5 141c0 44 6 83 18 117s28.667 62.833 50 86.5s46.666 41.5 75.999 53.5s61.666 18 96.999 18c39.333 0 74 -6.66699 104 -20s55.167 -31.5 75.5 -54.5s35.833 -50 46.5 -81
s16 -64.167 16 -99.5v-73h-322zM359.001 324.998c0 6.66699 -0.672852 13.5 -2.00586 20.5s-3.66602 14.167 -6.99902 21.5c-5.33301 11.333 -13.666 21.166 -24.999 29.499s-26.666 12.5 -45.999 12.5s-34.666 -4.16699 -45.999 -12.5s-19.666 -18.166 -24.999 -29.499
c-3.33301 -7.33301 -5.66602 -14.5 -6.99902 -21.5s-2 -13.833 -2 -20.5h160v0z" />
    <glyph glyph-name="f" unicode="f" horiz-adv-x="358" 
d="M243 391l0.000976562 -391.001h-164v391h-49v126h49v47c0 18.667 3.16699 37.334 9.5 56.001s16.166 35.667 29.499 51s30.5 27.833 51.5 37.5s46.5 14.5 76.5 14.5h87v-138h-57c-22 0 -33 -11 -33 -33v-35h90v-126h-90z" />
    <glyph glyph-name="g" unicode="g" horiz-adv-x="561" 
d="M499 39c0 -32 -5.83398 -61.335 -17.501 -88.002s-28 -49.667 -49 -69s-46.5 -34.5 -76.5 -45.5s-63.333 -16.5 -100 -16.5c-42 0 -79.333 4.83301 -112 14.5s-62.667 28.167 -90 55.5l102 102c12.667 -12.667 26.5 -21.5 41.5 -26.5s31.833 -7.5 50.5 -7.5
c17.333 0 31.666 2.66699 42.999 8s20.166 12 26.499 20s10.833 16.833 13.5 26.5s4 18.834 4 27.501v39c-15.333 -15.333 -32.166 -26.666 -50.499 -33.999s-40.166 -11 -65.499 -11c-52 0 -94 16 -126 48c-12 12 -21.5 25 -28.5 39s-12 29.333 -15 46s-4.83301 35 -5.5 55
s-1 42.333 -1 67s0.333008 47 1 67s2.5 38.333 5.5 55s8 32 15 46s16.5 27 28.5 39c32 32 74.333 48 127 48c28 0 50.833 -4.16699 68.5 -12.5s34.834 -20.833 51.501 -37.5v44h159v-499v0zM334.999 288.998c0 14 -0.5 27.333 -1.5 40s-3.66699 24 -8 34
s-10.666 18 -18.999 24s-20.166 9 -35.499 9c-14.667 0 -26.334 -3 -35.001 -9s-15.167 -14 -19.5 -24s-7 -21.333 -8 -34s-1.5 -26 -1.5 -40s0.5 -27.333 1.5 -40s3.66699 -24 8 -34s10.833 -18 19.5 -24s20.334 -9 35.001 -9c15.333 0 27.166 3 35.499 9
s14.666 14 18.999 24s7 21.333 8 34s1.5 26 1.5 40z" />
    <glyph glyph-name="h" unicode="h" horiz-adv-x="573" 
d="M352 0l-0.000976562 326.001c0 14.667 -2.33301 26.5 -7 35.5s-10.167 16 -16.5 21s-13.166 8.5 -20.499 10.5s-13.666 3 -18.999 3s-11.666 -1 -18.999 -3s-14.166 -5.5 -20.499 -10.5s-11.833 -12 -16.5 -21s-7 -20.833 -7 -35.5v-326h-164v712h164v-218
c17.333 17.333 36.166 30 56.499 38s40.833 12 61.5 12c29.333 0 54.666 -5 75.999 -15s39.166 -23.833 53.499 -41.5s25 -38.334 32 -62.001s10.5 -49.167 10.5 -76.5v-349h-164z" />
    <glyph glyph-name="i" unicode="i" horiz-adv-x="288" 
d="M244 662c0 -28 -9.66699 -51.667 -29 -71s-43 -29 -71 -29s-51.667 9.66699 -71 29s-29 43 -29 71s9.66699 51.667 29 71s43 29 71 29s51.667 -9.66699 71 -29s29 -43 29 -71zM62 0v517h164v-517h-164z" />
    <glyph glyph-name="j" unicode="j" horiz-adv-x="288" 
d="M244 662c0 -28 -9.66699 -51.667 -29 -71s-43 -29 -71 -29s-51.667 9.66699 -71 29s-29 43 -29 71s9.66699 51.667 29 71s43 29 71 29s51.667 -9.66699 71 -29s29 -43 29 -71zM226 -21c0 -18.667 -3.16797 -37.333 -9.50098 -56s-16.166 -35.667 -29.499 -51
s-30.5 -27.833 -51.5 -37.5s-46.5 -14.5 -76.5 -14.5h-87v138h57c22 0 33 11 33 33v526h164v-538v0z" />
    <glyph glyph-name="k" unicode="k" horiz-adv-x="573" 
d="M370 0l-112 197l-32 -35v-162h-164v712h164v-362l145 188h197l-198 -223l203 -315h-203z" />
    <glyph glyph-name="l" unicode="l" horiz-adv-x="341" 
d="M224 0c-30 0 -55.501 4.83203 -76.501 14.499s-38.167 22.167 -51.5 37.5s-23.166 32.333 -29.499 51s-9.5 37.334 -9.5 56.001v553h164v-541c0 -22 11 -33 33 -33h57v-138h-87z" />
    <glyph glyph-name="m" unicode="m" horiz-adv-x="875" 
d="M654 0v321.998c0 15.333 -2.33301 27.833 -7 37.5s-10.5 17.167 -17.5 22.5s-14.333 9 -22 11s-14.167 3 -19.5 3s-11.833 -1 -19.5 -3s-15 -5.66699 -22 -11s-12.833 -12.833 -17.5 -22.5s-7 -22.167 -7 -37.5v-322h-164v322c0 15.333 -2.33301 27.833 -7 37.5
s-10.5 17.167 -17.5 22.5s-14.333 9 -22 11s-14.167 3 -19.5 3s-11.833 -1 -19.5 -3s-15 -5.66699 -22 -11s-12.833 -12.833 -17.5 -22.5s-7 -22.167 -7 -37.5v-322h-164v538h160v-44c16.667 16.667 36.334 29.167 59.001 37.5s44.667 12.5 66 12.5
c26.667 0 50.834 -4.5 72.501 -13.5s41.167 -23.5 58.5 -43.5c23.333 20.667 46.666 35.334 69.999 44.001s50.666 13 81.999 13c25.333 0 49.5 -4 72.5 -12s41.833 -19.333 56.5 -34c23.333 -23.333 39 -47.666 47 -72.999s12 -52.333 12 -81v-344h-164z" />
    <glyph glyph-name="n" unicode="n" horiz-adv-x="579" 
d="M358 0l0.000976562 321.999c0 15.333 -2.33301 27.833 -7 37.5s-10.5 17.167 -17.5 22.5s-14.333 9 -22 11s-14.167 3 -19.5 3s-11.833 -1 -19.5 -3s-15 -5.66699 -22 -11s-12.833 -12.833 -17.5 -22.5s-7 -22.167 -7 -37.5v-322h-164v538h160v-44
c16.667 16.667 36.334 29.167 59.001 37.5s44.667 12.5 66 12.5c25.333 0 48.166 -4 68.499 -12s37.833 -19.333 52.5 -34c23.333 -23.333 38.166 -47.666 44.499 -72.999s9.5 -52.333 9.5 -81v-344h-164z" />
    <glyph glyph-name="o" unicode="o" horiz-adv-x="550" 
d="M507 269c0 -26.667 -1 -50 -3 -70s-5.16699 -38 -9.5 -54s-10.333 -30.667 -18 -44s-17.167 -26 -28.5 -38c-8 -8.66699 -17.5 -17 -28.5 -25s-23.5 -15.333 -37.5 -22s-29.833 -12 -47.5 -16s-37.5 -6 -59.5 -6s-41.833 2 -59.5 6s-33.5 9.33301 -47.5 16
s-26.5 14 -37.5 22s-20.5 16.333 -28.5 25c-11.333 12 -20.833 24.667 -28.5 38s-13.667 28 -18 44s-7.5 34 -9.5 54s-3 43.333 -3 70c0 26 1 49.167 3 69.5s5.16699 38.5 9.5 54.5s10.333 30.667 18 44s17.167 26 28.5 38c16 17.333 38 33.166 66 47.499
s63.667 21.5 107 21.5s79 -7.16699 107 -21.5s50 -30.166 66 -47.499c11.333 -12 20.833 -24.667 28.5 -38s13.667 -28 18 -44s7.5 -34.167 9.5 -54.5s3 -43.5 3 -69.5zM343 269c0 26.667 -1.33301 49.334 -4 68.001s-9.33398 33.334 -20.001 44.001
c-10 10 -24.667 15 -44 15s-34 -5 -44 -15c-10.667 -10.667 -17.334 -25.334 -20.001 -44.001s-4 -41.334 -4 -68.001s1.33301 -49.334 4 -68.001s9.33398 -33.334 20.001 -44.001c10 -10 24.667 -15 44 -15s34 5 44 15c10.667 10.667 17.334 25.334 20.001 44.001
s4 41.334 4 68.001z" />
    <glyph glyph-name="p" unicode="p" horiz-adv-x="569" 
d="M526 269c0 -20 -0.166992 -40.499 -0.5 -61.499s-2 -41.5 -5 -61.5s-7.83301 -38.833 -14.5 -56.5s-16.667 -33.167 -30 -46.5c-15.333 -15.333 -34.333 -27.333 -57 -36s-47 -13 -73 -13c-26.667 0 -49.5 3.66699 -68.5 11s-36.167 18.666 -51.5 33.999v-213h-164v712
h159v-44c16.667 16.667 34.5 29.167 53.5 37.5s42.5 12.5 70.5 12.5c26 0 50.5 -4.33301 73.5 -13s42.167 -20.667 57.5 -36c13.333 -13.333 23.333 -28.833 30 -46.5s11.5 -36.5 14.5 -56.5s4.66699 -40.5 5 -61.5s0.5 -41.5 0.5 -61.5zM362 269.001
c0 19.333 -0.666992 36.833 -2 52.5s-4.33301 29 -9 40s-11.5 19.5 -20.5 25.5s-21.167 9 -36.5 9s-27.5 -3 -36.5 -9s-15.833 -14.5 -20.5 -25.5s-7.66699 -24.333 -9 -40s-2 -33.167 -2 -52.5s0.666992 -36.833 2 -52.5s4.33301 -29 9 -40s11.5 -19.5 20.5 -25.5
s21.167 -9 36.5 -9s27.5 3 36.5 9s15.833 14.5 20.5 25.5s7.66699 24.333 9 40s2 33.167 2 52.5z" />
    <glyph glyph-name="q" unicode="q" horiz-adv-x="569" 
d="M343 -174v212.999c-15.333 -15.333 -32.5 -26.666 -51.5 -33.999s-41.833 -11 -68.5 -11c-26 0 -50.333 4.33301 -73 13s-41.667 20.667 -57 36c-13.333 13.333 -23.333 28.833 -30 46.5s-11.5 36.5 -14.5 56.5s-4.66699 40.5 -5 61.5s-0.5 41.5 -0.5 61.5
s0.166992 40.5 0.5 61.5s2 41.5 5 61.5s7.83301 38.833 14.5 56.5s16.667 33.167 30 46.5c15.333 15.333 34.5 27.333 57.5 36s47.5 13 73.5 13c28 0 51.5 -4.16699 70.5 -12.5s36.833 -20.833 53.5 -37.5v44h159v-712h-164zM343 268.999c0 19.333 -0.666992 36.833 -2 52.5
s-4.33301 29 -9 40s-11.5 19.5 -20.5 25.5s-21.167 9 -36.5 9s-27.5 -3 -36.5 -9s-15.833 -14.5 -20.5 -25.5s-7.66699 -24.333 -9 -40s-2 -33.167 -2 -52.5s0.666992 -36.833 2 -52.5s4.33301 -29 9 -40s11.5 -19.5 20.5 -25.5s21.167 -9 36.5 -9s27.5 3 36.5 9
s15.833 14.5 20.5 25.5s7.66699 24.333 9 40s2 33.167 2 52.5z" />
    <glyph glyph-name="r" unicode="r" horiz-adv-x="475" 
d="M351 368c-8 8 -16.333 14.667 -25 20s-20 8 -34 8c-5.33301 0 -11.833 -1 -19.5 -3s-15 -5.66699 -22 -11s-12.833 -12.833 -17.5 -22.5s-7 -22.167 -7 -37.5v-322h-164v538h160v-44c12 12 29.167 23.333 51.5 34s47.5 16 75.5 16c26.667 0 49.667 -3.66699 69 -11
s38.333 -20.333 57 -39z" />
    <glyph glyph-name="s" unicode="s" horiz-adv-x="504" 
d="M477 176c0 -32 -6.33203 -59.335 -18.999 -82.002s-29.667 -41.5 -51 -56.5s-46 -26 -74 -33s-57.667 -10.5 -89 -10.5c-20 0 -40 0.666992 -60 2s-39.833 4.5 -59.5 9.5s-39 12.667 -58 23s-37.833 24.833 -56.5 43.5l106 106c11.333 -11.333 23.166 -20 35.499 -26
s24.5 -10.5 36.5 -13.5s23.167 -4.66699 33.5 -5s18.833 -0.5 25.5 -0.5c6 0 13 0.5 21 1.5s15.667 2.83301 23 5.5s13.5 6.33398 18.5 11.001s7.5 10.334 7.5 17.001c0 7.33301 -2.5 14.5 -7.5 21.5s-15.5 11.167 -31.5 12.5l-83 8c-23.333 2 -44.5 6.33301 -63.5 13
s-35.333 16.334 -49 29.001s-24.334 28.334 -32.001 47.001s-11.5 41 -11.5 67c0 30 6.16699 56 18.5 78s28.5 40.5 48.5 55.5s42.833 26.167 68.5 33.5s51.834 11 78.501 11c44 0 83.667 -4.33301 119 -13s66.333 -26.334 93 -53.001l-101 -101
c-13.333 13.333 -30.333 22 -51 26s-41.667 6 -63 6c-20 0 -33.833 -3.66699 -41.5 -11s-11.5 -14 -11.5 -20c0 -1.33301 0.166992 -3.5 0.5 -6.5s1.5 -6 3.5 -9s5.33301 -5.83301 10 -8.5s11.667 -4.66699 21 -6l83 -8c28 -2.66699 52.333 -8.66699 73 -18
s37.5 -21.333 50.5 -36s22.667 -31.334 29 -50.001s9.5 -38.667 9.5 -60z" />
    <glyph glyph-name="t" unicode="t" horiz-adv-x="363" 
d="M241 0c-30 0 -55.501 4.83203 -76.501 14.499s-38.167 22.167 -51.5 37.5s-23.166 32.333 -29.499 51s-9.5 37.334 -9.5 56.001v232h-49v126h49v154h164v-154h85v-126h-85v-220c0 -22 11 -33 33 -33h52v-138h-82z" />
    <glyph glyph-name="u" unicode="u" horiz-adv-x="579" 
d="M357 0l-0.000976562 44.001c-16.667 -16.667 -36.334 -29.167 -59.001 -37.5s-44.667 -12.5 -66 -12.5c-25.333 0 -48.166 4 -68.499 12s-37.833 19.333 -52.5 34c-23.333 23.333 -38.166 47.666 -44.499 72.999s-9.5 52.333 -9.5 81v344h164v-322
c0 -15.333 2.33301 -27.833 7 -37.5s10.5 -17.167 17.5 -22.5s14.333 -9 22 -11s14.167 -3 19.5 -3s11.833 1 19.5 3s15 5.66699 22 11s12.833 12.833 17.5 22.5s7 22.167 7 37.5v322h164v-538h-160z" />
    <glyph glyph-name="v" unicode="v" horiz-adv-x="521" 
d="M323 0h-125l-198 538h172l89 -279l88 279h172z" />
    <glyph glyph-name="w" unicode="w" horiz-adv-x="780" 
d="M618 0h-131l-97 295l-97 -295h-131l-162 538h173l67 -279l93 279h114l93 -279l67 279h173z" />
    <glyph glyph-name="x" unicode="x" horiz-adv-x="556" 
d="M359 0l-82 136l-80 -136h-197l187 275l-180 263h197l73 -130l75 130h197l-180 -263l187 -275h-197z" />
    <glyph glyph-name="y" unicode="y" horiz-adv-x="514" 
d="M299 -64c-10.667 -30 -24.666 -53.668 -41.999 -71.001c-16 -17.333 -34.167 -29.166 -54.5 -35.499s-42.5 -9.5 -66.5 -9.5h-62v148h35c14.667 0 26.167 2.5 34.5 7.5s15.166 15.833 20.499 32.5l15 45l-179 485h172l91 -279l87 279h172z" />
    <glyph glyph-name="z" unicode="z" horiz-adv-x="489" 
d="M30 0v121l205 269h-193v148h407v-121l-209 -269h209v-148h-419z" />
    <glyph glyph-name="braceleft" unicode="{" horiz-adv-x="518" 
d="M338 -74c-26.667 0 -49.834 3.66895 -69.501 11.002s-36.167 17.666 -49.5 30.999c-17.333 17.333 -29.666 36 -36.999 56s-11 40.333 -11 61v119c0 28.667 -5.66699 48.667 -17 60c-12 12 -30.667 18 -56 18h-58v148h58c25.333 0 44 6 56 18
c11.333 11.333 17 31.333 17 60v119c0 20.667 3.66699 41 11 61s19.666 38.667 36.999 56c13.333 13.333 29.833 23.666 49.5 30.999s42.834 11 69.501 11h140v-148h-70c-14 0 -25.667 -1 -35 -3s-16.666 -5.66699 -21.999 -11c-10.667 -10.667 -16 -32 -16 -64v-104
c0 -20 -2.83301 -36.333 -8.5 -49s-12.5 -22.5 -20.5 -29.5s-16.167 -12 -24.5 -15s-14.833 -5.16699 -19.5 -6.5c4.66699 -1.33301 11.167 -3.5 19.5 -6.5s16.5 -8 24.5 -15s14.833 -16.833 20.5 -29.5s8.5 -29 8.5 -49v-104c0 -32 5.33301 -53.333 16 -64
c5.33301 -5.33301 12.666 -9 21.999 -11s21 -3 35 -3h70v-148h-140z" />
    <glyph glyph-name="bar" unicode="|" horiz-adv-x="364" 
d="M100 -74v860h164v-860h-164z" />
    <glyph glyph-name="braceright" unicode="}" horiz-adv-x="518" 
d="M420 282c-25.333 0 -44 -6.00195 -56 -18.002c-11.333 -11.333 -17 -31.333 -17 -60v-119c0 -20.667 -3.66699 -41 -11 -61s-19.666 -38.667 -36.999 -56c-13.333 -13.333 -29.833 -23.666 -49.5 -30.999s-42.834 -11 -69.501 -11h-140v148h70c14 0 25.667 1 35 3
s16.666 5.66699 21.999 11c6 6 10.167 14 12.5 24s3.5 23.333 3.5 40v104c0 20 2.83301 36.333 8.5 49s12.5 22.5 20.5 29.5s16.167 12 24.5 15s14.833 5.16699 19.5 6.5c-4.66699 1.33301 -11.167 3.5 -19.5 6.5s-16.5 8 -24.5 15s-14.833 16.833 -20.5 29.5
s-8.5 29 -8.5 49v104c0 32 -5.33301 53.333 -16 64c-5.33301 5.33301 -12.666 9 -21.999 11s-21 3 -35 3h-70v148h140c26.667 0 49.834 -3.66699 69.501 -11s36.167 -17.666 49.5 -30.999c17.333 -17.333 29.666 -36 36.999 -56s11 -40.333 11 -61v-119
c0 -28.667 5.66699 -48.667 17 -60c12 -12 30.667 -18 56 -18h58v-148h-58z" />
    <glyph glyph-name="asciitilde" unicode="~" horiz-adv-x="646" 
d="M616 283c-32.667 -32.667 -63.1689 -56.833 -91.502 -72.5s-60.166 -23.5 -95.499 -23.5c-22.667 0 -43 2.33301 -61 7s-38.667 13.667 -62 27c-14.667 8.66699 -28.5 15 -41.5 19s-27.167 6 -42.5 6c-13.333 0 -26.833 -2.33301 -40.5 -7s-29.5 -16 -47.5 -34l-104 104
c16 16 31.333 30 46 42s29.334 22 44.001 30s29.667 14 45 18s32 6 50 6c22.667 0 43 -2.33301 61 -7s38.667 -13.667 62 -27c14.667 -8.66699 28.5 -15 41.5 -19s27.167 -6 42.5 -6c13.333 0 26.833 2.33301 40.5 7s29.5 16 47.5 34l106 -104v0z" />
    <glyph glyph-name="Aring" horiz-adv-x="653" 
d="M470 0l-33 106h-219l-35 -106h-183l259 712h135l259 -712h-183zM331 442l-64 -190h124zM464 893c0 -18.667 -3.66699 -36.498 -11 -53.498s-17.166 -31.667 -29.499 -44s-26.833 -22.166 -43.5 -29.499s-34.667 -11 -54 -11c-18.667 0 -36.5 3.66699 -53.5 11
s-31.667 17.166 -44 29.499s-22.166 27 -29.499 44s-11 34.833 -11 53.5c0 19.333 3.66699 37.333 11 54s17.166 31.167 29.499 43.5s27 22.166 44 29.499s34.833 11 53.5 11c19.333 0 37.333 -3.5 54 -10.5s31.167 -16.833 43.5 -29.5s22.166 -27.334 29.499 -44.001
s11 -34.667 11 -54zM378 893.002c0 14 -5.16699 26.167 -15.5 36.5s-22.5 15.5 -36.5 15.5s-26.167 -5.16699 -36.5 -15.5s-15.5 -22.5 -15.5 -36.5s5.16699 -26.167 15.5 -36.5s22.5 -15.5 36.5 -15.5s26.167 5.16699 36.5 15.5s15.5 22.5 15.5 36.5z" />
    <glyph glyph-name="ccedilla" horiz-adv-x="475" 
d="M457 63c-22 -22 -47.5 -39.0039 -76.5 -51.0039s-62.5 -18 -100.5 -18c-23.333 0 -49 3.33301 -77 10s-54.333 19.834 -79 39.501s-45.167 47.5 -61.5 83.5s-24.5 83.333 -24.5 142s8.16699 106 24.5 142s36.833 63.833 61.5 83.5s51 32.834 79 39.501s53.667 10 77 10
c38 0 71.5 -6 100.5 -18s54.5 -29 76.5 -51l-111 -111c-10.667 10.667 -21 18.667 -31 24s-21.667 8 -35 8c-11.333 0 -20.833 -1.66699 -28.5 -5s-15.167 -8.66602 -22.5 -15.999c-18 -18.667 -27 -54 -27 -106s9 -87.333 27 -106
c7.33301 -7.33301 14.833 -12.666 22.5 -15.999s17.167 -5 28.5 -5c13.333 0 25 2.66699 35 8s20.333 13.333 31 24l111 -111v0zM297 -200.004h-146l67 144h115z" />
    <glyph glyph-name="eacute" horiz-adv-x="559" 
d="M199 216c0 -22 8.16797 -41.502 24.501 -58.502s39.833 -25.5 70.5 -25.5c28.667 0 50.667 3.83301 66 11.5s30.333 18.834 45 33.501l98 -98c-14 -14 -28 -26.167 -42 -36.5s-29.167 -19.166 -45.5 -26.499s-34.333 -12.833 -54 -16.5s-42.167 -5.5 -67.5 -5.5
c-30 0 -60.167 3.5 -90.5 10.5s-57.666 20.333 -81.999 40s-44.333 47.5 -60 83.5s-23.5 83 -23.5 141c0 44 6 83 18 117s28.667 62.833 50 86.5s46.666 41.5 75.999 53.5s61.666 18 96.999 18c39.333 0 74 -6.66699 104 -20s55.167 -31.5 75.5 -54.5s35.833 -50 46.5 -81
s16 -64.167 16 -99.5v-73h-322zM359.001 324.998c0 6.66699 -0.672852 13.5 -2.00586 20.5s-3.66602 14.167 -6.99902 21.5c-5.33301 11.333 -13.666 21.166 -24.999 29.499s-26.666 12.5 -45.999 12.5s-34.666 -4.16699 -45.999 -12.5s-19.666 -18.166 -24.999 -29.499
c-3.33301 -7.33301 -5.66602 -14.5 -6.99902 -21.5s-2 -13.833 -2 -20.5h160v0zM323.995 609.998h-99l49 180h168z" />
    <glyph glyph-name="egrave" horiz-adv-x="559" 
d="M199 216c0 -22 8.16797 -41.502 24.501 -58.502s39.833 -25.5 70.5 -25.5c28.667 0 50.667 3.83301 66 11.5s30.333 18.834 45 33.501l98 -98c-14 -14 -28 -26.167 -42 -36.5s-29.167 -19.166 -45.5 -26.499s-34.333 -12.833 -54 -16.5s-42.167 -5.5 -67.5 -5.5
c-30 0 -60.167 3.5 -90.5 10.5s-57.666 20.333 -81.999 40s-44.333 47.5 -60 83.5s-23.5 83 -23.5 141c0 44 6 83 18 117s28.667 62.833 50 86.5s46.666 41.5 75.999 53.5s61.666 18 96.999 18c39.333 0 74 -6.66699 104 -20s55.167 -31.5 75.5 -54.5s35.833 -50 46.5 -81
s16 -64.167 16 -99.5v-73h-322zM359.001 324.998c0 6.66699 -0.672852 13.5 -2.00586 20.5s-3.66602 14.167 -6.99902 21.5c-5.33301 11.333 -13.666 21.166 -24.999 29.499s-26.666 12.5 -45.999 12.5s-34.666 -4.16699 -45.999 -12.5s-19.666 -18.166 -24.999 -29.499
c-3.33301 -7.33301 -5.66602 -14.5 -6.99902 -21.5s-2 -13.833 -2 -20.5h160v0zM241.995 609.998l-118 180h168l49 -180h-99z" />
    <glyph glyph-name="ecircumflex" horiz-adv-x="559" 
d="M199 216c0 -22 8.16797 -41.502 24.501 -58.502s39.833 -25.5 70.5 -25.5c28.667 0 50.667 3.83301 66 11.5s30.333 18.834 45 33.501l98 -98c-14 -14 -28 -26.167 -42 -36.5s-29.167 -19.166 -45.5 -26.499s-34.333 -12.833 -54 -16.5s-42.167 -5.5 -67.5 -5.5
c-30 0 -60.167 3.5 -90.5 10.5s-57.666 20.333 -81.999 40s-44.333 47.5 -60 83.5s-23.5 83 -23.5 141c0 44 6 83 18 117s28.667 62.833 50 86.5s46.666 41.5 75.999 53.5s61.666 18 96.999 18c39.333 0 74 -6.66699 104 -20s55.167 -31.5 75.5 -54.5s35.833 -50 46.5 -81
s16 -64.167 16 -99.5v-73h-322zM359.001 324.998c0 6.66699 -0.672852 13.5 -2.00586 20.5s-3.66602 14.167 -6.99902 21.5c-5.33301 11.333 -13.666 21.166 -24.999 29.499s-26.666 12.5 -45.999 12.5s-34.666 -4.16699 -45.999 -12.5s-19.666 -18.166 -24.999 -29.499
c-3.33301 -7.33301 -5.66602 -14.5 -6.99902 -21.5s-2 -13.833 -2 -20.5h160v0zM361.995 609.998l-79 83l-79 -83h-120l136 179h126l136 -179h-120z" />
    <glyph glyph-name="ugrave" horiz-adv-x="579" 
d="M357 0l-0.000976562 44.001c-16.667 -16.667 -36.334 -29.167 -59.001 -37.5s-44.667 -12.5 -66 -12.5c-25.333 0 -48.166 4 -68.499 12s-37.833 19.333 -52.5 34c-23.333 23.333 -38.166 47.666 -44.499 72.999s-9.5 52.333 -9.5 81v344h164v-322
c0 -15.333 2.33301 -27.833 7 -37.5s10.5 -17.167 17.5 -22.5s14.333 -9 22 -11s14.167 -3 19.5 -3s11.833 1 19.5 3s15 5.66699 22 11s12.833 12.833 17.5 22.5s7 22.167 7 37.5v322h164v-538h-160zM245.999 610.001l-118 180h168l49 -180h-99z" />
    <glyph glyph-name="ucircumflex" horiz-adv-x="579" 
d="M357 0l-0.000976562 44.001c-16.667 -16.667 -36.334 -29.167 -59.001 -37.5s-44.667 -12.5 -66 -12.5c-25.333 0 -48.166 4 -68.499 12s-37.833 19.333 -52.5 34c-23.333 23.333 -38.166 47.666 -44.499 72.999s-9.5 52.333 -9.5 81v344h164v-322
c0 -15.333 2.33301 -27.833 7 -37.5s10.5 -17.167 17.5 -22.5s14.333 -9 22 -11s14.167 -3 19.5 -3s11.833 1 19.5 3s15 5.66699 22 11s12.833 12.833 17.5 22.5s7 22.167 7 37.5v322h164v-538h-160zM365.999 610.001l-79 83l-79 -83h-120l136 179h126l136 -179h-120z" />
    <glyph glyph-name="dagger" unicode="&#xa0;" horiz-adv-x="564" 
d="M364 390v-390h-164v390h-153v148h153v174h164v-174h153v-148h-153z" />
    <glyph glyph-name="degree" unicode="&#xa1;" horiz-adv-x="486" 
d="M439 534c0 -26.667 -5.16699 -52 -15.5 -76s-24.333 -44.833 -42 -62.5s-38.334 -31.667 -62.001 -42s-49.167 -15.5 -76.5 -15.5c-26.667 0 -52 5.16699 -76 15.5s-44.833 24.333 -62.5 42s-31.667 38.5 -42 62.5s-15.5 49.333 -15.5 76
c0 27.333 5.16699 52.833 15.5 76.5s24.333 44.334 42 62.001s38.5 31.667 62.5 42s49.333 15.5 76 15.5c27.333 0 52.833 -5.16699 76.5 -15.5s44.334 -24.333 62.001 -42s31.667 -38.334 42 -62.001s15.5 -49.167 15.5 -76.5zM308 534c0 18 -6.33301 33.333 -19 46
s-28 19 -46 19s-33.333 -6.33301 -46 -19s-19 -28 -19 -46s6.33301 -33.333 19 -46s28 -19 46 -19s33.333 6.33301 46 19s19 28 19 46z" />
    <glyph glyph-name="cent" unicode="&#xa2;" horiz-adv-x="499" 
d="M481 174c-17.333 -17.333 -36.666 -32.668 -57.999 -46.001s-45.666 -23.333 -72.999 -30v-98h-126v98c-25.333 6 -49.333 15.833 -72 29.5s-42.5 31.5 -59.5 53.5s-30.333 48.333 -40 79s-14.5 66 -14.5 106s4.83301 75.333 14.5 106s23 57 40 79
s36.833 39.833 59.5 53.5s46.667 23.5 72 29.5v78h126v-78c27.333 -6.66699 51.666 -16.667 72.999 -30s40.666 -28.666 57.999 -45.999l-107 -107c-6 6 -12.5 12 -19.5 18s-15.167 11 -24.5 15v-236c9.33301 4 17.5 9 24.5 15s13.5 12 19.5 18l107 -107v0zM244 481.998
c-2 -1.33301 -4 -2.83496 -6 -4.50195s-4 -3.5 -6 -5.5c-20 -21.333 -30 -56.666 -30 -105.999c0 -25.333 2.5 -46.666 7.5 -63.999s12.167 -31 21.5 -41l6 -6c2 -2 4.33301 -3.66699 7 -5v232z" />
    <glyph glyph-name="sterling" unicode="&#xa3;" horiz-adv-x="597" 
d="M95 0l-0.000976562 278h-60v126h60v64c0 42 7.66699 78.667 23 110s35.5 57.333 60.5 78s53.667 36.167 86 46.5s65.166 15.5 98.499 15.5c41.333 0 76.833 -5.66699 106.5 -17s58.834 -31.666 87.501 -60.999l-115 -114c-11.333 11.333 -22.5 20.166 -33.5 26.499
s-26.167 9.5 -45.5 9.5c-27.333 0 -49.666 -7.83301 -66.999 -23.5s-26 -40.5 -26 -74.5v-60h93v-126h-93v-122h287v-156h-462z" />
    <glyph glyph-name="section" unicode="&#xa4;" horiz-adv-x="516" 
d="M475 285c0 -17.333 -2.83008 -33.499 -8.49707 -48.499s-12.834 -28.5 -21.501 -40.5s-17.5 -22.333 -26.5 -31s-17.167 -15.334 -24.5 -20.001c9.33301 -5.33301 18.166 -11.666 26.499 -18.999s15.833 -16.333 22.5 -27s12 -23.167 16 -37.5s6 -31.5 6 -51.5
c0 -34 -6.16699 -63 -18.5 -87s-28.333 -43.667 -48 -59s-41.834 -26.5 -66.501 -33.5s-49 -10.5 -73 -10.5s-48.333 3.16699 -73 9.5s-46.834 16.833 -66.501 31.5s-35.667 33.834 -48 57.501s-18.5 53.167 -18.5 88.5h156c0 -11.333 4.33301 -21.5 13 -30.5
s21 -13.5 37 -13.5c16.667 0 29.167 4.16699 37.5 12.5s12.5 17.833 12.5 28.5c0 8 -3.33301 17.333 -10 28s-23 20.667 -49 30l-54 20c-24.667 9.33301 -46.5 19.166 -65.5 29.499s-34.833 22.666 -47.5 36.999s-22.167 31.5 -28.5 51.5s-9.5 44.333 -9.5 73
c0 17.333 3 33.5 9 48.5s13.167 28.5 21.5 40.5s17.333 22.333 27 31s18.167 15.334 25.5 20.001c-8 5.33301 -16 11.333 -24 18s-15.167 15 -21.5 25s-11.333 21.833 -15 35.5s-5.5 29.5 -5.5 47.5c0 21.333 3.5 42.666 10.5 63.999s18.5 40.5 34.5 57.5
s36.667 30.833 62 41.5s56 16 92 16c36.667 0 67.667 -5 93 -15s45.833 -23.333 61.5 -40s27 -35.834 34 -57.501s10.5 -44.5 10.5 -68.5h-152c0 15.333 -4.66699 26.166 -14 32.499s-20.333 9.5 -33 9.5c-17.333 0 -29.5 -3.83301 -36.5 -11.5s-10.5 -15.5 -10.5 -23.5
c0 -18.667 18.667 -34.667 56 -48l54 -20c25.333 -9.33301 47.333 -19.166 66 -29.499s34.334 -22.666 47.001 -36.999s22.167 -31.5 28.5 -51.5s9.5 -44.333 9.5 -73zM319.003 279.001c0 16 -2.33301 28 -7 36s-9 13.667 -13 17c-3.33301 3.33301 -8.33301 6.33301 -15 9
s-14.667 4 -24 4s-17.333 -1.33301 -24 -4s-11.667 -5.66699 -15 -9c-4 -3.33301 -8.33301 -9 -13 -17s-7 -20 -7 -36s2.33301 -28 7 -36s9 -13.667 13 -17c3.33301 -3.33301 8.33301 -6.33301 15 -9s14.667 -4 24 -4s17.333 1.33301 24 4s11.667 5.66699 15 9
c4 3.33301 8.33301 9 13 17s7 20 7 36z" />
    <glyph glyph-name="bullet" unicode="&#xa5;" horiz-adv-x="470" 
d="M398 334c0 -22.667 -4.33301 -43.834 -13 -63.501s-20.334 -36.834 -35.001 -51.501s-31.834 -26.334 -51.501 -35.001s-40.834 -13 -63.501 -13s-43.834 4.33301 -63.501 13s-36.834 20.334 -51.501 35.001s-26.334 31.834 -35.001 51.501s-13 40.834 -13 63.501
s4.33301 43.834 13 63.501s20.334 36.834 35.001 51.501s31.834 26.334 51.501 35.001s40.834 13 63.501 13s43.834 -4.33301 63.501 -13s36.834 -20.334 51.501 -35.001s26.334 -31.834 35.001 -51.501s13 -40.834 13 -63.501z" />
    <glyph glyph-name="paragraph" unicode="&#xa6;" horiz-adv-x="707" 
d="M471 -174l0.00195312 730.001h-90v-730h-164v472c-22 0 -44.167 5.16699 -66.5 15.5s-42.5 24.666 -60.5 42.999s-32.5 40 -43.5 65s-16.5 52.167 -16.5 81.5c0 36 6.16699 67.167 18.5 93.5s29.166 48 50.499 65s46.666 29.667 75.999 38s61.333 12.5 96 12.5h364v-886
h-164z" />
    <glyph glyph-name="germandbls" unicode="&#xa7;" horiz-adv-x="584" 
d="M534 173c0 -56.667 -14.001 -99.3301 -42.001 -127.997c-14.667 -14.667 -33.167 -25.834 -55.5 -33.501s-49.833 -11.5 -82.5 -11.5h-52v138h19c15.333 0 27 4 35 12c8.66699 8 13 20 13 36v129c0 15.333 -4 27 -12 35c-8 8.66699 -20 13 -36 13h-19v126h23
c10.667 0 20.667 2.66699 30 8s14 16.666 14 33.999c0 12.667 -4 22.334 -12 29.001c-5.33301 5.33301 -12.833 9.16602 -22.5 11.499s-20.5 3.5 -32.5 3.5c-29.333 0 -49.166 -5.83301 -59.499 -17.5s-15.5 -29.167 -15.5 -52.5v-505h-165v519
c0 36.667 6.33301 67.667 19 93s29.834 45.833 51.501 61.5s47 27 76 34s60.167 10.5 93.5 10.5c34 0 65.333 -3.5 94 -10.5s53.167 -18 73.5 -33s36.166 -33.833 47.499 -56.5s17 -49.667 17 -81c0 -16 -2 -30 -6 -42s-9 -22.333 -15 -31s-12.5 -15.834 -19.5 -21.501
s-13.833 -10.5 -20.5 -14.5c15.333 -7.33301 29.333 -18.5 42 -33.5s19 -38.167 19 -69.5v-152v0z" />
    <glyph glyph-name="registered" unicode="&#xa8;" horiz-adv-x="822" 
d="M773 356c0 -50 -9.5 -97 -28.5 -141s-44.833 -82.333 -77.5 -115s-71 -58.5 -115 -77.5s-91 -28.5 -141 -28.5s-97 9.5 -141 28.5s-82.333 44.833 -115 77.5s-58.5 71 -77.5 115s-28.5 91 -28.5 141s9.5 97 28.5 141s44.833 82.333 77.5 115s71 58.5 115 77.5
s91 28.5 141 28.5s97 -9.5 141 -28.5s82.333 -44.833 115 -77.5s58.5 -71 77.5 -115s28.5 -91 28.5 -141zM670 356c0 39.333 -6.5 75.166 -19.5 107.499s-31.167 60.166 -54.5 83.499s-50.666 41.5 -81.999 54.5s-65.666 19.5 -102.999 19.5
c-36.667 0 -70.834 -6.5 -102.501 -19.5s-59.167 -31.167 -82.5 -54.5s-41.5 -51.166 -54.5 -83.499s-19.5 -68.166 -19.5 -107.499c0 -38.667 6.5 -74.334 19.5 -107.001s31.167 -60.667 54.5 -84s50.833 -41.5 82.5 -54.5s65.834 -19.5 102.501 -19.5
c37.333 0 71.666 6.5 102.999 19.5s58.666 31.167 81.999 54.5s41.5 51.333 54.5 84s19.5 68.334 19.5 107.001zM463 167l-57.001 140.998h-31v-141h-103v378h169c21.333 0 40 -3.5 56 -10.5s29.333 -16.167 40 -27.5s18.834 -24.333 24.501 -39s8.5 -29.667 8.5 -45
c0 -25.333 -6.33301 -46.166 -19 -62.499s-26.667 -28.166 -42 -35.499l71 -158h-117zM466.999 422.998c0 10 -3.5 18.833 -10.5 26.5s-16.833 11.5 -29.5 11.5h-52v-76h52c12.667 0 22.5 3.83301 29.5 11.5s10.5 16.5 10.5 26.5z" />
    <glyph glyph-name="copyright" unicode="&#xa9;" horiz-adv-x="822" 
d="M773 356c0 -50 -9.5 -97 -28.5 -141s-44.833 -82.333 -77.5 -115s-71 -58.5 -115 -77.5s-91 -28.5 -141 -28.5s-97 9.5 -141 28.5s-82.333 44.833 -115 77.5s-58.5 71 -77.5 115s-28.5 91 -28.5 141s9.5 97 28.5 141s44.833 82.333 77.5 115s71 58.5 115 77.5
s91 28.5 141 28.5s97 -9.5 141 -28.5s82.333 -44.833 115 -77.5s58.5 -71 77.5 -115s28.5 -91 28.5 -141zM670 356c0 39.333 -6.5 75.166 -19.5 107.499s-31.167 60.166 -54.5 83.499s-50.666 41.5 -81.999 54.5s-65.666 19.5 -102.999 19.5
c-36.667 0 -70.834 -6.5 -102.501 -19.5s-59.167 -31.167 -82.5 -54.5s-41.5 -51.166 -54.5 -83.499s-19.5 -68.166 -19.5 -107.499c0 -38.667 6.5 -74.334 19.5 -107.001s31.167 -60.667 54.5 -84s50.833 -41.5 82.5 -54.5s65.834 -19.5 102.501 -19.5
c37.333 0 71.666 6.5 102.999 19.5s58.666 31.167 81.999 54.5s41.5 51.333 54.5 84s19.5 68.334 19.5 107.001zM552 216c-18 -15.333 -37.5 -27.8311 -58.5 -37.498s-45.5 -14.5 -73.5 -14.5c-22.667 0 -44.834 3.66699 -66.501 11s-41 18.833 -58 34.5
s-30.667 35.5 -41 59.5s-15.5 53 -15.5 87s5.16699 63 15.5 87s24 43.833 41 59.5s36.333 27.167 58 34.5s43.834 11 66.501 11c28 0 52.5 -4.83301 73.5 -14.5s40.5 -22.167 58.5 -37.5l-67 -67c-11.333 9.33301 -21.666 16.166 -30.999 20.499s-20.666 6.5 -33.999 6.5
c-23.333 0 -42.166 -8.16699 -56.499 -24.5s-21.5 -41.5 -21.5 -75.5s7.16699 -59.167 21.5 -75.5s33.166 -24.5 56.499 -24.5c13.333 0 24.666 2.16699 33.999 6.5s19.666 11.166 30.999 20.499l67 -67v0z" />
    <glyph glyph-name="trademark" unicode="&#xaa;" horiz-adv-x="973" 
d="M789 285v219l-67 -131h-100l-67 131v-219h-117v427h117l117 -210l117 210h117v-427h-117zM272 608v-323h-116v323h-105v104h326v-104h-105z" />
    <glyph glyph-name="acute" unicode="&#xab;" 
d="M291 610h-99l49 180h168z" />
    <glyph glyph-name="dieresis" unicode="&#xac;" 
d="M447 680c0 -22 -7.83301 -40.833 -23.5 -56.5s-34.5 -23.5 -56.5 -23.5s-40.833 7.83301 -56.5 23.5s-23.5 34.5 -23.5 56.5s7.83301 40.833 23.5 56.5s34.5 23.5 56.5 23.5s40.833 -7.83301 56.5 -23.5s23.5 -34.5 23.5 -56.5zM213 680
c0 -22 -7.83301 -40.833 -23.5 -56.5s-34.5 -23.5 -56.5 -23.5s-40.833 7.83301 -56.5 23.5s-23.5 34.5 -23.5 56.5s7.83301 40.833 23.5 56.5s34.5 23.5 56.5 23.5s40.833 -7.83301 56.5 -23.5s23.5 -34.5 23.5 -56.5z" />
    <glyph glyph-name="notequal" unicode="&#xad;" horiz-adv-x="640" 
d="M251 96l-103 -140l-99 74l48 66h-48v154h161l66 90h-227v154h340l103 140l99 -74l-48 -66h48v-154h-161l-66 -90h227v-154h-340z" />
    <glyph glyph-name="AE" unicode="&#xae;" horiz-adv-x="1013" 
d="M477 0v149h-212l-77 -149h-188l370 712h591v-156h-309v-119h264v-156h-264v-125h309v-156h-484zM477 556l-136 -261h136v261z" />
    <glyph glyph-name="Oslash" unicode="&#xaf;" horiz-adv-x="640" 
d="M591 356c0 -26.667 -0.166992 -52.834 -0.5 -78.501s-2.66602 -50.5 -6.99902 -74.5s-11.5 -46.833 -21.5 -68.5s-24.333 -41.834 -43 -60.501c-26 -26 -54.667 -45.833 -86 -59.5s-69 -20.5 -113 -20.5c-40 0 -75 6 -105 18l-27 -56h-118l55 114l-4 4
c-18.667 18.667 -33 38.834 -43 60.501s-17.167 44.5 -21.5 68.5s-6.66602 48.833 -6.99902 74.5s-0.5 51.834 -0.5 78.501s0.166992 52.834 0.5 78.501s2.66602 50.5 6.99902 74.5s11.5 46.833 21.5 68.5s24.333 41.834 43 60.501c26 26 54.667 45.833 86 59.5
s69 20.5 113 20.5c40 0 75 -6 105 -18l27 56h118l-55 -114l4 -4c18.667 -18.667 33 -38.834 43 -60.501s17.167 -44.5 21.5 -68.5s6.66602 -48.833 6.99902 -74.5s0.5 -51.834 0.5 -78.501zM364 552c-13.333 6.66699 -28 9.99902 -44 9.99902s-30 -3 -42 -9
s-21.333 -13.333 -28 -22c-4 -5.33301 -7.66699 -11.333 -11 -18s-6 -16.167 -8 -28.5s-3.66699 -28.666 -5 -48.999s-2 -46.833 -2 -79.5c0 -38.667 1 -69.667 3 -93l137 289v0zM416 355.999c0 39.333 -1.00098 70.333 -3.00098 93l-137 -288
c12.667 -7.33301 27.334 -11 44.001 -11c16 0 30 3.16699 42 9.5s21.333 13.833 28 22.5c4 5.33301 7.66699 11.333 11 18s6 16.167 8 28.5s3.66699 28.5 5 48.5s2 46.333 2 79z" />
    <glyph glyph-name="infinity" unicode="&#xb0;" horiz-adv-x="876" 
d="M829 295c0 -28.667 -4.33301 -55.5 -13 -80.5s-21.667 -46.833 -39 -65.5s-39 -33.334 -65 -44.001s-56.667 -16 -92 -16c-36 0 -69.5 8.33301 -100.5 25s-58.167 37.667 -81.5 63c-23.333 -25.333 -50.5 -46.333 -81.5 -63s-64.5 -25 -100.5 -25
c-35.333 0 -66 5.33301 -92 16s-47.667 25.334 -65 44.001s-30.333 40.5 -39 65.5s-13 51.833 -13 80.5s4.33301 55.5 13 80.5s21.667 46.833 39 65.5s39 33.334 65 44.001s56.667 16 92 16c36 0 69.5 -8.33301 100.5 -25s58.167 -37.667 81.5 -63
c23.333 25.333 50.5 46.333 81.5 63s64.5 25 100.5 25c35.333 0 66 -5.33301 92 -16s47.667 -25.334 65 -44.001s30.333 -40.5 39 -65.5s13 -51.833 13 -80.5zM669 290c0 16.667 -5 29 -15 37s-21 12 -33 12c-14 0 -26.5 -5.16699 -37.5 -15.5s-21.5 -21.5 -31.5 -33.5
c10 -12 20.5 -23.167 31.5 -33.5s23.5 -15.5 37.5 -15.5c12 0 23 4 33 12s15 20.333 15 37zM324 290c-10 12 -20.5 23.167 -31.5 33.5s-23.5 15.5 -37.5 15.5c-12 0 -23 -4 -33 -12s-15 -20.333 -15 -37s5 -29 15 -37s21 -12 33 -12c14 0 26.5 5.16699 37.5 15.5
s21.5 21.5 31.5 33.5z" />
    <glyph glyph-name="plusminus" unicode="&#xb1;" horiz-adv-x="556" 
d="M355 371v-152h-154v152h-152v154h152v152h154v-152h152v-154h-152zM49 0v154h458v-154h-458z" />
    <glyph glyph-name="lessequal" unicode="&#xb2;" horiz-adv-x="1027" 
d="M435 54l427 2l-145 -145h-534v534l145 145l-2 -427l462 462l109 -109z" />
    <glyph glyph-name="greaterequal" unicode="&#xb3;" horiz-adv-x="1027" 
d="M310 -89l-145 145l427 -3l-463 463l109 109l463 -463l-3 427l145 -145v-533h-533z" />
    <glyph glyph-name="yen" unicode="&#xb4;" horiz-adv-x="605" 
d="M480 466h60v-126h-125l-25 -50v-50h150v-126h-150v-114h-175v114h-150v126h150v50l-25 50h-125v126h60l-125 246h191l112 -256l111 256h191z" />
    <glyph glyph-name="mu" unicode="&#xb5;" horiz-adv-x="584" 
d="M362 0l0.000976562 44c-16.667 -16.667 -36.334 -29.167 -59.001 -37.5s-44.667 -12.5 -66 -12.5h-11v-168h-164v712h164v-322c0 -15.333 2.33301 -27.833 7 -37.5s10.5 -17.167 17.5 -22.5s14.333 -9 22 -11s14.167 -3 19.5 -3s11.833 1 19.5 3s15 5.66699 22 11
s12.833 12.833 17.5 22.5s7 22.167 7 37.5v322h164v-538h-160z" />
    <glyph glyph-name="partialdiff" unicode="&#xb6;" horiz-adv-x="561" 
d="M499 259c0 -25.333 -0.831055 -47.8359 -2.49805 -67.5029s-4.83398 -37.167 -9.50098 -52.5s-10.5 -29.333 -17.5 -42s-16.167 -25 -27.5 -37c-15.333 -16.667 -36.5 -31.834 -63.5 -45.501s-61.5 -20.5 -103.5 -20.5s-76.5 6.83301 -103.5 20.5
s-48.167 28.834 -63.5 45.501c-10.667 12 -19.667 24.333 -27 37s-13.333 26.667 -18 42s-7.83398 32.833 -9.50098 52.5s-2.5 42.167 -2.5 67.5s0.833008 47.833 2.5 67.5s4.83398 37.334 9.50098 53.001s10.667 29.834 18 42.501s16.333 25 27 37
c15.333 16.667 35.833 31.667 61.5 45s59.5 20 101.5 20c10.667 0 21.5 -0.833008 32.5 -2.5s21.167 -4.83398 30.5 -9.50098v1c0 2.66699 -1.16699 7.66699 -3.5 15s-6.5 14.833 -12.5 22.5s-14.667 14.5 -26 20.5s-26 9 -44 9c-18.667 0 -35.5 -2.5 -50.5 -7.5
s-28.833 -13.833 -41.5 -26.5l-102 102c27.333 27.333 57.333 45.833 90 55.5s70 14.5 112 14.5c41.333 0 77.166 -6.16699 107.499 -18.5s55.5 -29.666 75.5 -51.999s35 -48.666 45 -78.999s15 -63.5 15 -99.5v-210v0zM335.002 258.997c0 24.667 -1.16699 45.667 -3.5 63
s-8.16602 30.666 -17.499 39.999s-22.333 14 -39 14s-29.667 -4.66699 -39 -14s-15.166 -22.666 -17.499 -39.999s-3.5 -38.333 -3.5 -63s1.16699 -45.667 3.5 -63s8.16602 -30.666 17.499 -39.999s22.333 -14 39 -14s29.667 4.66699 39 14s15.166 22.666 17.499 39.999
s3.5 38.333 3.5 63z" />
    <glyph glyph-name="summation" unicode="&#xb7;" horiz-adv-x="553" 
d="M30 -176v136l181 342l-177 322v136h484v-156h-278l118 -224v-163l-126 -237h291v-156h-493z" />
    <glyph glyph-name="summation" unicode="&#x2219;" horiz-adv-x="553" 
d="M30 -176v136l181 342l-177 322v136h484v-156h-278l118 -224v-163l-126 -237h291v-156h-493z" />
    <glyph glyph-name="product" unicode="&#xb8;" horiz-adv-x="680" 
d="M433 -174v779h-186v-779h-175v934h536v-934h-175z" />
    <glyph glyph-name="pi" unicode="&#xb9;" horiz-adv-x="592" 
d="M366 0v382h-140v-382h-164v538h468v-538h-164z" />
    <glyph glyph-name="integral" unicode="&#xba;" horiz-adv-x="560" 
d="M435 592c-21.333 0 -38.166 -5.16699 -50.499 -15.5s-18.5 -27.166 -18.5 -50.499v-488c0 -34 -5.5 -63.833 -16.5 -89.5s-26.5 -47 -46.5 -64s-43.667 -29.833 -71 -38.5s-57.333 -13 -90 -13h-73v138h55c21.333 0 38.166 5.16699 50.499 15.5s18.5 27.166 18.5 50.499
v488c0 34 5.5 63.833 16.5 89.5s26.5 47 46.5 64s43.667 29.833 71 38.5s57.333 13 90 13h73v-138h-55z" />
    <glyph glyph-name="ordfeminine" unicode="&#xbb;" horiz-adv-x="457" 
d="M279 283l0.000976562 35.002c-13.333 -13.333 -26.833 -23.166 -40.5 -29.499s-32.167 -9.5 -55.5 -9.5c-21.333 0 -40.666 3.5 -57.999 10.5s-32 16.5 -44 28.5c-25.333 25.333 -38 58.666 -38 99.999c0 16 2.83301 31.667 8.5 47s14.5 28.666 26.5 39.999
s27.167 20.5 45.5 27.5s40.166 10.5 65.499 10.5h87v11c0 19.333 -5 33.166 -15 41.499s-26.667 12.5 -50 12.5c-17.333 0 -30.333 -2.16699 -39 -6.5s-18.334 -11.833 -29.001 -22.5l-82 82c11.333 11.333 22.333 20.5 33 27.5s22.167 12.833 34.5 17.5
s25.833 7.83398 40.5 9.50098s31 2.5 49 2.5c62 0 109 -12.833 141 -38.5s48 -64.834 48 -117.501v-279h-128zM276.001 456.002l-65.999 -0.000976562c-13.333 0 -23.333 -3.33301 -30 -10s-10 -14.667 -10 -24s3.5 -17.5 10.5 -24.5s17.167 -10.5 30.5 -10.5
s23.666 0.833008 30.999 2.5s14.333 5.83398 21 12.501c8.66699 8.66699 13 22.667 13 42v12z" />
    <glyph glyph-name="ordmasculine" unicode="&#xbc;" horiz-adv-x="466" 
d="M419 498c0 -21.333 -0.831055 -40 -2.49805 -56s-4.33398 -30.5 -8.00098 -43.5s-8.5 -24.667 -14.5 -35s-13.667 -20.5 -23 -30.5c-12.667 -13.333 -30.167 -25.833 -52.5 -37.5s-50.833 -17.5 -85.5 -17.5s-63.167 5.83301 -85.5 17.5s-39.833 24.167 -52.5 37.5
c-8.66699 10 -16.167 20.167 -22.5 30.5s-11.333 22 -15 35s-6.33398 27.5 -8.00098 43.5s-2.5 34.667 -2.5 56c0 42 3.5 75.167 10.5 99.5s19.5 46.166 37.5 65.499c12.667 13.333 30.167 25.833 52.5 37.5s50.833 17.5 85.5 17.5s63.167 -5.83301 85.5 -17.5
s39.833 -24.167 52.5 -37.5c18 -19.333 30.5 -41.166 37.5 -65.499s10.5 -57.5 10.5 -99.5zM287.002 498c0 21.333 -1 39.5 -3 54.5s-7.33301 26.833 -16 35.5c-8 8 -19.667 12 -35 12s-27 -4 -35 -12c-8.66699 -8.66699 -14 -20.5 -16 -35.5s-3 -33.167 -3 -54.5
s1 -39.5 3 -54.5s7.33301 -26.833 16 -35.5c8 -8 19.667 -12 35 -12s27 4 35 12c8.66699 8.66699 14 20.5 16 35.5s3 33.167 3 54.5z" />
    <glyph glyph-name="Omega" unicode="&#xbd;" horiz-adv-x="640" 
d="M358 0l0.00195312 136c14 6.66699 24.667 15 32 25c4 5.33301 7.66699 11.833 11 19.5s6 18.334 8 32.001s3.66699 31.167 5 52.5s2 48.333 2 81s-0.666992 59.5 -2 80.5s-3 38.333 -5 52s-4.66699 24.167 -8 31.5s-7 13.666 -11 18.999
c-6.66699 8.66699 -16 16.334 -28 23.001s-26 10 -42 10s-30 -3.33301 -42 -10s-21.333 -14.334 -28 -23.001c-4 -5.33301 -7.66699 -11.666 -11 -18.999s-6 -17.833 -8 -31.5s-3.66699 -31 -5 -52s-2 -47.833 -2 -80.5s0.666992 -59.667 2 -81s3 -38.833 5 -52.5
s4.66699 -24.334 8 -32.001s7 -14.167 11 -19.5c7.33301 -10 18 -18.333 32 -25v-136h-233v156h45c-6 7.33301 -11 15.166 -15 23.499s-7.33301 16.5 -10 24.5c-7.33301 22.667 -12.5 46.667 -15.5 72s-4.5 52 -4.5 80c0 26.667 0.166992 52.834 0.5 78.501
s2.66602 50.5 6.99902 74.5s11.5 46.833 21.5 68.5s24.333 41.834 43 60.501c26 26 54.667 45.833 86 59.5s69 20.5 113 20.5s81.667 -6.83301 113 -20.5s60 -33.5 86 -59.5c18.667 -18.667 33 -38.834 43 -60.501s17.167 -44.5 21.5 -68.5s6.66602 -48.833 6.99902 -74.5
s0.5 -51.834 0.5 -78.501c0 -28 -1.5 -54.667 -4.5 -80s-8.16699 -49.333 -15.5 -72c-2.66699 -8 -6 -16.167 -10 -24.5s-9 -16.166 -15 -23.499h45v-156h-233z" />
    <glyph glyph-name="ae" unicode="&#xbe;" horiz-adv-x="840" 
d="M480 216c0 -22 8.16309 -41.501 24.4961 -58.501s39.833 -25.5 70.5 -25.5c28.667 0 50.667 3.83301 66 11.5s30.333 18.834 45 33.501l98 -98c-14 -14 -28 -26.167 -42 -36.5s-29.167 -19.166 -45.5 -26.499s-34.333 -12.833 -54 -16.5s-42.167 -5.5 -67.5 -5.5
c-33.333 0 -66.666 4.5 -99.999 13.5s-62.666 26.167 -87.999 51.5c-16 -14.667 -31.5 -26.334 -46.5 -35.001s-30 -15.334 -45 -20.001s-30 -7.5 -45 -8.5s-30.833 -1.5 -47.5 -1.5c-27.333 0 -51.833 4.33301 -73.5 13s-40.167 20.667 -55.5 36s-27 33.833 -35 55.5
s-12 45.167 -12 70.5c0 20 3.5 39.5 10.5 58.5s18 35.667 33 50s34 25.833 57 34.5s50.5 13 82.5 13h109v14c0 24.667 -6.33301 42 -19 52s-33.334 15 -62.001 15c-21.333 0 -37.666 -2.66699 -48.999 -8s-23.666 -14.666 -36.999 -27.999l-102 102
c14 14 27.667 25.5 41 34.5s27.833 16.333 43.5 22s32.5 9.66699 50.5 12s38.333 3.5 61 3.5c74.667 0 131.334 -15 170.001 -45c39.333 30 87.333 45 144 45c39.333 0 74 -6.66699 104 -20s55.167 -31.5 75.5 -54.5s35.833 -50 46.5 -81s16 -64.167 16 -99.5v-73h-322z
M639.996 324.999c0 6.66699 -0.672852 13.5 -2.00586 20.5s-3.66602 14.167 -6.99902 21.5c-5.33301 11.333 -13.666 21.166 -24.999 29.499s-26.666 12.5 -45.999 12.5s-34.666 -4.16699 -45.999 -12.5s-19.666 -18.166 -24.999 -29.499
c-3.33301 -7.33301 -5.66602 -14.5 -6.99902 -21.5s-2 -13.833 -2 -20.5h160v0zM318.99 215.999h-83c-16 0 -28.667 -4 -38 -12s-14 -18.333 -14 -31c0 -12 4.5 -22.5 13.5 -31.5s22.5 -13.5 40.5 -13.5c16 0 28.5 1.16699 37.5 3.5s18.167 7.83301 27.5 16.5
c10.667 10 16 28 16 54v14z" />
    <glyph glyph-name="oslash" unicode="&#xbf;" horiz-adv-x="550" 
d="M507 269c0 -26.667 -1 -49.998 -3 -69.998s-5.16699 -38 -9.5 -54s-10.333 -30.667 -18 -44s-17.167 -26 -28.5 -38c-8 -8.66699 -17.5 -17 -28.5 -25s-23.5 -15.333 -37.5 -22s-29.833 -12 -47.5 -16s-37.5 -6 -59.5 -6c-21.333 0 -40.5 1.83301 -57.5 5.5
s-32.5 8.5 -46.5 14.5l-34 -58h-93l61 104c-14.667 15.333 -26.167 31 -34.5 47s-14.5 32.667 -18.5 50s-6.5 35.166 -7.5 53.499s-1.5 37.833 -1.5 58.5c0 26 1 49.167 3 69.5s5.16699 38.5 9.5 54.5s10.333 30.667 18 44s17.167 26 28.5 38c16 17.333 38 33.166 66 47.499
s63.667 21.5 107 21.5c21.333 0 40.5 -1.83301 57.5 -5.5s32.5 -8.5 46.5 -14.5l34 58h93l-61 -104c14.667 -15.333 26.167 -31 34.5 -47s14.5 -32.667 18.5 -50s6.5 -35.333 7.5 -54s1.5 -38 1.5 -58zM309 389.002c-8.66699 4.66699 -19.999 7.00098 -33.999 7.00098
c-19.333 0 -34 -5 -44 -15c-10.667 -10.667 -17.334 -25.334 -20.001 -44.001s-4 -41.334 -4 -68.001v-26.5c0 -8.33301 0.666992 -16.166 2 -23.499l100 170v0zM343.001 269.003l-0.000976562 26.499c0 8.33301 -0.666992 16.166 -2 23.499l-100 -170
c8.66699 -4.66699 20 -7 34 -7c19.333 0 34 5 44 15c10.667 10.667 17.334 25.334 20.001 44.001s4 41.334 4 68.001z" />
    <glyph glyph-name="questiondown" unicode="&#xc0;" horiz-adv-x="538" 
d="M375 446c0 -12.667 -2.5 -24.834 -7.5 -36.501s-11.833 -21.834 -20.5 -30.501s-18.667 -15.5 -30 -20.5s-23.666 -7.5 -36.999 -7.5c-12.667 0 -24.834 2.5 -36.501 7.5s-21.834 11.833 -30.501 20.5s-15.5 18.834 -20.5 30.501s-7.5 23.834 -7.5 36.501
c0 13.333 2.5 25.666 7.5 36.999s11.833 21.333 20.5 30s18.834 15.5 30.501 20.5s23.834 7.5 36.501 7.5c13.333 0 25.666 -2.5 36.999 -7.5s21.333 -11.833 30 -20.5s15.5 -18.667 20.5 -30s7.5 -23.666 7.5 -36.999zM508 31c0 -34 -6.00195 -64.167 -18.002 -90.5
s-28.167 -48.333 -48.5 -66s-44.166 -31.167 -71.499 -40.5s-56 -14 -86 -14c-29.333 0 -57.5 4.5 -84.5 13.5s-50.833 22.167 -71.5 39.5s-37.167 39.166 -49.5 65.499s-18.5 56.833 -18.5 91.5c0 26 5 49.333 15 70s22 40 36 58l69 87
c4.66699 5.33301 8.83398 12.333 12.501 21s5.5 17.334 5.5 26.001v9h164v-23c0 -22.667 -3 -42.5 -9 -59.5s-16.667 -34.167 -32 -51.5l-70 -82c-7.33301 -8.66699 -13.666 -18.167 -18.999 -28.5s-8 -19.5 -8 -27.5c0 -17.333 5 -31.833 15 -43.5s25 -17.5 45 -17.5
c21.333 0 36.666 6 45.999 18s14 27 14 45h164v0z" />
    <glyph glyph-name="exclamdown" unicode="&#xc1;" horiz-adv-x="366" 
d="M298 446c0 -12.667 -2.5 -24.834 -7.5 -36.501s-11.833 -21.834 -20.5 -30.501s-18.667 -15.5 -30 -20.5s-23.666 -7.5 -36.999 -7.5c-12.667 0 -24.834 2.5 -36.501 7.5s-21.834 11.833 -30.501 20.5s-15.5 18.834 -20.5 30.501s-7.5 23.834 -7.5 36.501
c0 13.333 2.5 25.666 7.5 36.999s11.833 21.333 20.5 30s18.834 15.5 30.501 20.5s23.834 7.5 36.501 7.5c13.333 0 25.666 -2.5 36.999 -7.5s21.333 -11.833 30 -20.5s15.5 -18.667 20.5 -30s7.5 -23.666 7.5 -36.999zM100 -174l44 475h118l44 -475h-206z" />
    <glyph glyph-name="logicalnot" unicode="&#xc2;" horiz-adv-x="556" 
d="M359 88v150h-316v154h470v-304h-154z" />
    <glyph glyph-name="radical" unicode="&#xc3;" horiz-adv-x="616" 
d="M492 556l-184 -556h-130l-178 538h177l67 -224l118 398h224v-156h-94z" />
    <glyph glyph-name="florin" unicode="&#xc4;" horiz-adv-x="441" 
d="M331 585c-22 0 -35 -10.999 -39 -32.999l-26 -148h90v-126h-112l-80 -452h-164l80 452h-49v126h71l28 160c3.33301 18.667 9.83301 37.5 19.5 56.5s22.5 36.167 38.5 51.5s35.333 27.666 58 36.999s49 14 79 14l86 -1v-137h-80z" />
    <glyph glyph-name="approxequal" unicode="&#xc5;" horiz-adv-x="646" 
d="M616 408c-32.667 -32.667 -63.1689 -56.833 -91.502 -72.5s-60.166 -23.5 -95.499 -23.5c-22.667 0 -43 2.33301 -61 7s-38.667 13.667 -62 27c-14.667 8.66699 -28.5 15 -41.5 19s-27.167 6 -42.5 6c-13.333 0 -26.833 -2.33301 -40.5 -7s-29.5 -16 -47.5 -34l-104 104
c16 16 31.333 30 46 42s29.334 22 44.001 30s29.667 14 45 18s32 6 50 6c22.667 0 43 -2.33301 61 -7s38.667 -13.667 62 -27c14.667 -8.66699 28.5 -15 41.5 -19s27.167 -6 42.5 -6c13.333 0 26.833 2.33301 40.5 7s29.5 16 47.5 34l106 -104v0zM615.998 154.001
c-16 -16 -31.3311 -30.001 -45.998 -42.001s-29.334 -22 -44.001 -30s-29.667 -14 -45 -18s-32 -6 -50 -6c-22.667 0 -43 2.33301 -61 7s-38.667 13.667 -62 27c-14.667 8.66699 -28.5 15 -41.5 19s-27.167 6 -42.5 6c-13.333 0 -26.833 -2.33301 -40.5 -7
s-29.5 -16 -47.5 -34l-106 104c32.667 32.667 63.167 56.834 91.5 72.501s60.166 23.5 95.499 23.5c22.667 0 43 -2.33301 61 -7s38.667 -13.667 62 -27c14.667 -8.66699 28.5 -15 41.5 -19s27.167 -6 42.5 -6c13.333 0 26.833 2.33301 40.5 7s29.5 16 47.5 34l104 -104v0z
" />
    <glyph glyph-name="Delta" unicode="&#xc6;" horiz-adv-x="653" 
d="M0 0l259 712h135l259 -712h-653zM331 442l-99 -296h192z" />
    <glyph glyph-name="guillemotleft" unicode="&#xc7;" horiz-adv-x="672" 
d="M339 280l273 270v-193l-81 -77l81 -78v-193zM30 280l273 270v-193l-79 -77l79 -78v-193z" />
    <glyph glyph-name="guillemotright" unicode="&#xc8;" horiz-adv-x="672" 
d="M369 9v193l79 78l-79 77v193l273 -270zM60 9v193l80 78l-80 77v193l273 -270z" />
    <glyph glyph-name="ellipsis" unicode="&#xc9;" horiz-adv-x="899" 
d="M850 102c0 -14.667 -2.66699 -28.334 -8 -41.001s-12.833 -23.667 -22.5 -33s-20.834 -16.833 -33.501 -22.5s-26.334 -8.5 -41.001 -8.5s-28.334 2.83301 -41.001 8.5s-23.667 13.167 -33 22.5s-16.833 20.333 -22.5 33s-8.5 26.334 -8.5 41.001
s2.83301 28.334 8.5 41.001s13.167 23.834 22.5 33.501s20.333 17.167 33 22.5s26.334 8 41.001 8s28.334 -2.66699 41.001 -8s23.834 -12.833 33.501 -22.5s17.167 -20.834 22.5 -33.501s8 -26.334 8 -41.001zM554 102c0 -14.667 -2.66699 -28.334 -8 -41.001
s-12.666 -23.667 -21.999 -33s-20.5 -16.833 -33.5 -22.5s-26.5 -8.5 -40.5 -8.5c-14.667 0 -28.334 2.83301 -41.001 8.5s-23.834 13.167 -33.501 22.5s-17.334 20.333 -23.001 33s-8.5 26.334 -8.5 41.001s2.83301 28.334 8.5 41.001s13.167 23.834 22.5 33.501
s20.5 17.167 33.5 22.5s26.5 8 40.5 8c14.667 0 28.334 -2.66699 41.001 -8s23.834 -12.833 33.501 -22.5s17.167 -20.834 22.5 -33.501s8 -26.334 8 -41.001zM259 102c0 -14.667 -2.66699 -28.334 -8 -41.001s-12.833 -23.667 -22.5 -33s-20.834 -16.833 -33.501 -22.5
s-26.334 -8.5 -41.001 -8.5s-28.334 2.83301 -41.001 8.5s-23.667 13.167 -33 22.5s-16.833 20.333 -22.5 33s-8.5 26.334 -8.5 41.001s2.83301 28.334 8.5 41.001s13.167 23.834 22.5 33.501s20.333 17.167 33 22.5s26.334 8 41.001 8s28.334 -2.66699 41.001 -8
s23.834 -12.833 33.501 -22.5s17.167 -20.834 22.5 -33.501s8 -26.334 8 -41.001z" />
    <glyph glyph-name="nonbreakingspace" unicode="&#xca;" horiz-adv-x="222" 
 />
    <glyph glyph-name="Agrave" unicode="&#xcb;" horiz-adv-x="653" 
d="M470 0l-33 106h-219l-35 -106h-183l259 712h135l259 -712h-183zM331 442l-64 -190h124zM285 782l-118 180h168l49 -180h-99z" />
    <glyph glyph-name="Atilde" unicode="&#xcc;" horiz-adv-x="653" 
d="M470 0l-33 106h-219l-35 -106h-183l259 712h135l259 -712h-183zM331 442l-64 -190h124zM519 855c-21.333 -21.333 -41.3311 -37.166 -59.998 -47.499s-39.667 -15.5 -63 -15.5c-15.333 0 -28.833 1.33301 -40.5 4s-25.167 8.66699 -40.5 18
c-9.33301 5.33301 -18.5 9.5 -27.5 12.5s-18.5 4.5 -28.5 4.5c-9.33301 0 -18.333 -1.5 -27 -4.5s-19 -10.5 -31 -22.5l-68 69c21.333 21.333 41.166 37.166 59.499 47.499s39.166 15.5 62.499 15.5c15.333 0 28.833 -1.33301 40.5 -4s25.167 -8.66699 40.5 -18
c9.33301 -5.33301 18.333 -9.5 27 -12.5s18 -4.5 28 -4.5c9.33301 0 18.333 1.5 27 4.5s19 10.5 31 22.5l70 -69v0z" />
    <glyph glyph-name="Otilde" unicode="&#xcd;" horiz-adv-x="640" 
d="M591 356c0 -26.667 -0.166992 -52.834 -0.5 -78.501s-2.66602 -50.5 -6.99902 -74.5s-11.5 -46.833 -21.5 -68.5s-24.333 -41.834 -43 -60.501c-26 -26 -54.667 -45.833 -86 -59.5s-69 -20.5 -113 -20.5s-81.667 6.83301 -113 20.5s-60 33.5 -86 59.5
c-18.667 18.667 -33 38.834 -43 60.501s-17.167 44.5 -21.5 68.5s-6.66602 48.833 -6.99902 74.5s-0.5 51.834 -0.5 78.501s0.166992 52.834 0.5 78.501s2.66602 50.5 6.99902 74.5s11.5 46.833 21.5 68.5s24.333 41.834 43 60.501c26 26 54.667 45.833 86 59.5
s69 20.5 113 20.5s81.667 -6.83301 113 -20.5s60 -33.5 86 -59.5c18.667 -18.667 33 -38.834 43 -60.501s17.167 -44.5 21.5 -68.5s6.66602 -48.833 6.99902 -74.5s0.5 -51.834 0.5 -78.501zM416 356c0 32.667 -0.666992 59.167 -2 79.5s-3 36.666 -5 48.999
s-4.66699 21.833 -8 28.5s-7 12.667 -11 18c-6.66699 8.66699 -16 16 -28 22s-26 9 -42 9s-30 -3 -42 -9s-21.333 -13.333 -28 -22c-4 -5.33301 -7.66699 -11.333 -11 -18s-6 -16.167 -8 -28.5s-3.66699 -28.666 -5 -48.999s-2 -46.833 -2 -79.5s0.666992 -59 2 -79
s3 -36.167 5 -48.5s4.66699 -21.833 8 -28.5s7 -12.667 11 -18c6.66699 -8.66699 16 -16.167 28 -22.5s26 -9.5 42 -9.5s30 3.16699 42 9.5s21.333 13.833 28 22.5c4 5.33301 7.66699 11.333 11 18s6 16.167 8 28.5s3.66699 28.5 5 48.5s2 46.333 2 79zM513 855
c-21.333 -21.333 -41.3311 -37.166 -59.998 -47.499s-39.667 -15.5 -63 -15.5c-15.333 0 -28.833 1.33301 -40.5 4s-25.167 8.66699 -40.5 18c-9.33301 5.33301 -18.5 9.5 -27.5 12.5s-18.5 4.5 -28.5 4.5c-9.33301 0 -18.333 -1.5 -27 -4.5s-19 -10.5 -31 -22.5l-68 69
c21.333 21.333 41.166 37.166 59.499 47.499s39.166 15.5 62.499 15.5c15.333 0 28.833 -1.33301 40.5 -4s25.167 -8.66699 40.5 -18c9.33301 -5.33301 18.333 -9.5 27 -12.5s18 -4.5 28 -4.5c9.33301 0 18.333 1.5 27 4.5s19 10.5 31 22.5l70 -69v0z" />
    <glyph glyph-name="OE" unicode="&#xce;" horiz-adv-x="952" 
d="M416 0l0.000976562 26.002c-14 -13.333 -30.833 -22 -50.5 -26s-36.834 -6 -51.501 -6c-43.333 0 -79.833 6.16699 -109.5 18.5s-57.5 31.5 -83.5 57.5c-18 18 -32 38.167 -42 60.5s-17.167 45.666 -21.5 69.999s-6.83301 49.666 -7.5 75.999s-1 52.833 -1 79.5
s0.333008 53.167 1 79.5s3.16699 51.833 7.5 76.5s11.5 48 21.5 70s24 42 42 60c26 26 54 45.167 84 57.5s66.667 18.5 110 18.5c14.667 0 31.667 -2 51 -6s36 -12.667 50 -26v26h484v-156h-309v-119h264v-156h-264v-125h309v-156h-484zM416.001 356.002
c0 32.667 -0.666992 59.167 -2 79.5s-3 36.666 -5 48.999s-4.66699 21.833 -8 28.5s-7 12.667 -11 18c-6.66699 8.66699 -16 16 -28 22s-26 9 -42 9s-30 -3 -42 -9s-21.333 -13.333 -28 -22c-4 -5.33301 -7.66699 -11.333 -11 -18s-6 -16.167 -8 -28.5
s-3.66699 -28.666 -5 -48.999s-2 -46.833 -2 -79.5s0.666992 -59 2 -79s3 -36.167 5 -48.5s4.66699 -21.833 8 -28.5s7 -12.667 11 -18c6.66699 -8.66699 16 -16.167 28 -22.5s26 -9.5 42 -9.5s30 3.16699 42 9.5s21.333 13.833 28 22.5c4 5.33301 7.66699 11.333 11 18
s6 16.167 8 28.5s3.66699 28.5 5 48.5s2 46.333 2 79z" />
    <glyph glyph-name="oe" unicode="&#xcf;" horiz-adv-x="864" 
d="M504 216c0 -22 8.16797 -41.501 24.501 -58.501s39.833 -25.5 70.5 -25.5c28.667 0 50.667 3.83301 66 11.5s30.333 18.834 45 33.501l98 -98c-14 -14 -28 -26.167 -42 -36.5s-29.167 -19.166 -45.5 -26.499s-34.333 -12.833 -54 -16.5s-42.167 -5.5 -67.5 -5.5
c-30 0 -60 3.5 -90 10.5s-57 20.167 -81 39.5c-16.667 -13.333 -37.334 -25 -62.001 -35s-55 -15 -91 -15c-22 0 -41.833 2 -59.5 6s-33.5 9.33301 -47.5 16s-26.5 14 -37.5 22s-20.5 16.333 -28.5 25c-11.333 12 -20.833 24.667 -28.5 38s-13.667 28 -18 44
s-7.5 34 -9.5 54s-3 43.333 -3 70c0 26 1 49.167 3 69.5s5.16699 38.5 9.5 54.5s10.333 30.667 18 44s17.167 26 28.5 38c16 17.333 38 33.166 66 47.499s63.667 21.5 107 21.5c36.667 0 67.667 -5.33301 93 -16s46.333 -23 63 -37c40.667 35.333 91.667 53 153 53
c39.333 0 74 -6.66699 104 -20s55.167 -31.5 75.5 -54.5s35.833 -50 46.5 -81s16 -64.167 16 -99.5v-73h-322zM664.001 324.999c0 6.66699 -0.672852 13.5 -2.00586 20.5s-3.66602 14.167 -6.99902 21.5c-5.33301 11.333 -13.666 21.166 -24.999 29.499
s-26.666 12.5 -45.999 12.5s-34.666 -4.16699 -45.999 -12.5s-19.666 -18.166 -24.999 -29.499c-3.33301 -7.33301 -5.66602 -14.5 -6.99902 -21.5s-2 -13.833 -2 -20.5h160v0zM342.995 268.999c0 26.667 -1.33301 49.334 -4 68.001s-9.33398 33.334 -20.001 44.001
c-10 10 -24.667 15 -44 15s-34 -5 -44 -15c-10.667 -10.667 -17.334 -25.334 -20.001 -44.001s-4 -41.334 -4 -68.001s1.33301 -49.334 4 -68.001s9.33398 -33.334 20.001 -44.001c10 -10 24.667 -15 44 -15s34 5 44 15c10.667 10.667 17.334 25.334 20.001 44.001
s4 41.334 4 68.001z" />
    <glyph glyph-name="endash" unicode="&#xd0;" horiz-adv-x="556" 
d="M49 218v154h458v-154h-458z" />
    <glyph glyph-name="emdash" unicode="&#xd1;" horiz-adv-x="1093" 
d="M49 220v158h995v-158h-995z" />
    <glyph glyph-name="quotedblleft" unicode="&#xd2;" horiz-adv-x="511" 
d="M290 566v146l164 120v-266h-164zM57 566v146l163 120v-266h-163z" />
    <glyph glyph-name="quotedblright" unicode="&#xd3;" horiz-adv-x="511" 
d="M290 447v265h164v-147zM57 447v265h163v-147z" />
    <glyph glyph-name="quoteleft" unicode="&#xd4;" horiz-adv-x="278" 
d="M57 566v146l164 120v-266h-164z" />
    <glyph glyph-name="quoteright" unicode="&#xd5;" horiz-adv-x="278" 
d="M57 447v265h164v-147z" />
    <glyph glyph-name="divide" unicode="&#xd6;" horiz-adv-x="556" 
d="M383 518c0 -14.667 -2.66699 -28.334 -8 -41.001s-12.833 -23.667 -22.5 -33s-20.834 -16.833 -33.501 -22.5s-26.334 -8.5 -41.001 -8.5s-28.334 2.83301 -41.001 8.5s-23.667 13.167 -33 22.5s-16.833 20.333 -22.5 33s-8.5 26.334 -8.5 41.001
s2.83301 28.334 8.5 41.001s13.167 23.834 22.5 33.501s20.333 17.167 33 22.5s26.334 8 41.001 8s28.334 -2.66699 41.001 -8s23.834 -12.833 33.501 -22.5s17.167 -20.834 22.5 -33.501s8 -26.334 8 -41.001zM43 218v154h470v-154h-470zM383 72
c0 -14.667 -2.66699 -28.334 -8 -41.001s-12.833 -23.834 -22.5 -33.501s-20.834 -17.167 -33.501 -22.5s-26.334 -8 -41.001 -8s-28.334 2.66699 -41.001 8s-23.667 12.833 -33 22.5s-16.833 20.834 -22.5 33.501s-8.5 26.334 -8.5 41.001s2.83301 28.334 8.5 41.001
s13.167 23.834 22.5 33.501s20.333 17.167 33 22.5s26.334 8 41.001 8s28.334 -2.66699 41.001 -8s23.834 -12.833 33.501 -22.5s17.167 -20.834 22.5 -33.501s8 -26.334 8 -41.001z" />
    <glyph glyph-name="lozenge" unicode="&#xd7;" horiz-adv-x="628" 
d="M314 -34l-267 368l267 368l267 -368zM314 446l-82 -112l82 -112l82 112z" />
    <glyph glyph-name="ydieresis" unicode="&#xd8;" horiz-adv-x="514" 
d="M299 -64c-10.667 -30 -24.666 -53.668 -41.999 -71.001c-16 -17.333 -34.167 -29.166 -54.5 -35.499s-42.5 -9.5 -66.5 -9.5h-62v148h35c14.667 0 26.167 2.5 34.5 7.5s15.166 15.833 20.499 32.5l15 45l-179 485h172l91 -279l87 279h172zM454.001 679.999
c0 -22 -7.83301 -40.833 -23.5 -56.5s-34.5 -23.5 -56.5 -23.5s-40.833 7.83301 -56.5 23.5s-23.5 34.5 -23.5 56.5s7.83301 40.833 23.5 56.5s34.5 23.5 56.5 23.5s40.833 -7.83301 56.5 -23.5s23.5 -34.5 23.5 -56.5zM220.001 679.999c0 -22 -7.83301 -40.833 -23.5 -56.5
s-34.5 -23.5 -56.5 -23.5s-40.833 7.83301 -56.5 23.5s-23.5 34.5 -23.5 56.5s7.83301 40.833 23.5 56.5s34.5 23.5 56.5 23.5s40.833 -7.83301 56.5 -23.5s23.5 -34.5 23.5 -56.5z" />
    <glyph glyph-name="Ydieresis" unicode="&#xd9;" horiz-adv-x="605" 
d="M390 290v-290h-175v290l-215 422h191l112 -256l111 256h191zM499 852c0 -22 -7.83301 -40.833 -23.5 -56.5s-34.5 -23.5 -56.5 -23.5s-40.833 7.83301 -56.5 23.5s-23.5 34.5 -23.5 56.5s7.83301 40.833 23.5 56.5s34.5 23.5 56.5 23.5s40.833 -7.83301 56.5 -23.5
s23.5 -34.5 23.5 -56.5zM265 852c0 -22 -7.83301 -40.833 -23.5 -56.5s-34.5 -23.5 -56.5 -23.5s-40.833 7.83301 -56.5 23.5s-23.5 34.5 -23.5 56.5s7.83301 40.833 23.5 56.5s34.5 23.5 56.5 23.5s40.833 -7.83301 56.5 -23.5s23.5 -34.5 23.5 -56.5z" />
    <glyph glyph-name="fraction" unicode="&#xda;" horiz-adv-x="221" 
d="M4 0h-126l339 712h126z" />
    <glyph glyph-name="currency" unicode="&#xdb;" horiz-adv-x="674" 
d="M518 5l-73 73c-16.667 -8 -34 -14.333 -52 -19s-36.667 -7 -56 -7s-38 2.33301 -56 7s-35.333 11 -52 19l-73 -73l-109 109l73 73c-8 16.667 -14.333 34 -19 52s-7 36.667 -7 56s2.33301 38 7 56s11 35.333 19 52l-73 73l109 109l73 -73c16.667 8 34 14.333 52 19
s36.667 7 56 7s38 -2.33301 56 -7s35.333 -11 52 -19l73 73l109 -109l-73 -73c8 -16.667 14.333 -34 19 -52s7 -36.667 7 -56s-2.33301 -38 -7 -56s-11 -35.333 -19 -52l73 -73zM432 295c0 13.333 -2.5 25.666 -7.5 36.999s-11.833 21.333 -20.5 30s-18.667 15.5 -30 20.5
s-23.666 7.5 -36.999 7.5c-12.667 0 -24.834 -2.5 -36.501 -7.5s-21.834 -11.833 -30.501 -20.5s-15.5 -18.667 -20.5 -30s-7.5 -23.666 -7.5 -36.999c0 -12.667 2.5 -24.834 7.5 -36.501s11.833 -21.834 20.5 -30.501s18.834 -15.5 30.501 -20.5s23.834 -7.5 36.501 -7.5
c13.333 0 25.666 2.5 36.999 7.5s21.333 11.833 30 20.5s15.5 18.834 20.5 30.501s7.5 23.834 7.5 36.501z" />
    <glyph glyph-name="guilsinglleft" unicode="&#xdc;" horiz-adv-x="363" 
d="M30 280l273 270v-193l-79 -77l79 -78v-193z" />
    <glyph glyph-name="guilsinglright" unicode="&#xdd;" horiz-adv-x="363" 
d="M60 9v193l80 78l-80 77v193l273 -270z" />
    <glyph glyph-name="fi" unicode="&#xde;" horiz-adv-x="626" 
d="M582 662c0 -28 -9.66699 -51.667 -29 -71s-43 -29 -71 -29s-51.667 9.66699 -71 29s-29 43 -29 71s9.66699 51.667 29 71s43 29 71 29s51.667 -9.66699 71 -29s29 -43 29 -71zM400 0v517h164v-517h-164zM238 391l0.000976562 -391.001h-164v391h-49v126h49v47
c0 18.667 3.16699 37.334 9.5 56.001s16.166 35.667 29.499 51s30.5 27.833 51.5 37.5s46.5 14.5 76.5 14.5h87v-138h-57c-22 0 -33 -11 -33 -33v-35h90v-126h-90z" />
    <glyph glyph-name="fl" unicode="&#xdf;" horiz-adv-x="674" 
d="M567 0c-30 0 -55.501 4.83203 -76.501 14.499s-38.167 22.167 -51.5 37.5s-23.166 32.333 -29.499 51s-9.5 37.334 -9.5 56.001v553h164v-541c0 -22 11 -33 33 -33h57v-138h-87zM237.999 390.999l0.000976562 -391.001h-164v391h-49v126h49v47
c0 18.667 3.16699 37.334 9.5 56.001s16.166 35.667 29.499 51s30.5 27.833 51.5 37.5s46.5 14.5 76.5 14.5h87v-138h-57c-22 0 -33 -11 -33 -33v-35h90v-126h-90z" />
    <glyph glyph-name="daggerdbl" unicode="&#xe0;" horiz-adv-x="564" 
d="M364 0v-174h-164v174h-153v148h153v242h-153v148h153v174h164v-174h153v-148h-153v-242h153v-148h-153z" />
    <glyph glyph-name="periodcentered" unicode="&#xe1;" horiz-adv-x="308" 
d="M259 295c0 -14.667 -2.66699 -28.334 -8 -41.001s-12.833 -23.667 -22.5 -33s-20.834 -16.833 -33.501 -22.5s-26.334 -8.5 -41.001 -8.5s-28.334 2.83301 -41.001 8.5s-23.667 13.167 -33 22.5s-16.833 20.333 -22.5 33s-8.5 26.334 -8.5 41.001
s2.83301 28.334 8.5 41.001s13.167 23.834 22.5 33.501s20.333 17.167 33 22.5s26.334 8 41.001 8s28.334 -2.66699 41.001 -8s23.834 -12.833 33.501 -22.5s17.167 -20.834 22.5 -33.501s8 -26.334 8 -41.001z" />
    <glyph glyph-name="quotesinglbase" unicode="&#xe2;" horiz-adv-x="276" 
d="M57 -118v265h164v-147z" />
    <glyph glyph-name="quotedblbase" unicode="&#xe3;" horiz-adv-x="514" 
d="M290 -118v265h164v-147zM57 -118v265h163v-147z" />
    <glyph glyph-name="perthousand" unicode="&#xe4;" horiz-adv-x="1229" 
d="M1184 133c0 -24 -4.16699 -44.667 -12.5 -62s-19.5 -31.666 -33.5 -42.999s-30 -19.833 -48 -25.5s-37 -8.5 -57 -8.5s-39 2.83301 -57 8.5s-34 14.167 -48 25.5s-25.167 25.666 -33.5 42.999s-12.5 38 -12.5 62v95c0 24 4.16699 44.667 12.5 62s19.5 31.666 33.5 42.999
s30 19.833 48 25.5s37 8.5 57 8.5s39 -2.83301 57 -8.5s34 -14.167 48 -25.5s25.167 -25.666 33.5 -42.999s12.5 -38 12.5 -62v-95v0zM812 133c0 -24 -4.16699 -44.667 -12.5 -62s-19.5 -31.666 -33.5 -42.999s-30 -19.833 -48 -25.5s-37 -8.5 -57 -8.5s-39 2.83301 -57 8.5
s-34 14.167 -48 25.5s-25.167 25.666 -33.5 42.999s-12.5 38 -12.5 62v95c0 24 4.16699 44.667 12.5 62s19.5 31.666 33.5 42.999s30 19.833 48 25.5s37 8.5 57 8.5s39 -2.83301 57 -8.5s34 -14.167 48 -25.5s25.167 -25.666 33.5 -42.999s12.5 -38 12.5 -62v-95v0zM322 0
h-126l339 712h126zM347 484c0 -24 -4.16699 -44.667 -12.5 -62s-19.5 -31.666 -33.5 -42.999s-30 -19.833 -48 -25.5s-37 -8.5 -57 -8.5s-39 2.83301 -57 8.5s-34 14.167 -48 25.5s-25.167 25.666 -33.5 42.999s-12.5 38 -12.5 62v95c0 24 4.16699 44.667 12.5 62
s19.5 31.666 33.5 42.999s30 19.833 48 25.5s37 8.5 57 8.5s39 -2.83301 57 -8.5s34 -14.167 48 -25.5s25.167 -25.666 33.5 -42.999s12.5 -38 12.5 -62v-95v0zM1068 224c0 14.667 -3.33301 24.834 -10 30.501s-15 8.5 -25 8.5s-18.333 -2.83301 -25 -8.5
s-10 -15.834 -10 -30.501v-87c0 -14.667 3.33301 -24.834 10 -30.501s15 -8.5 25 -8.5s18.333 2.83301 25 8.5s10 15.834 10 30.501v87zM696 224c0 14.667 -3.33301 24.834 -10 30.501s-15 8.5 -25 8.5s-18.333 -2.83301 -25 -8.5s-10 -15.834 -10 -30.501v-87
c0 -14.667 3.33301 -24.834 10 -30.501s15 -8.5 25 -8.5s18.333 2.83301 25 8.5s10 15.834 10 30.501v87zM231 575c0 14.667 -3.33301 24.834 -10 30.501s-15 8.5 -25 8.5s-18.333 -2.83301 -25 -8.5s-10 -15.834 -10 -30.501v-87c0 -14.667 3.33301 -24.834 10 -30.501
s15 -8.5 25 -8.5s18.333 2.83301 25 8.5s10 15.834 10 30.501v87z" />
    <glyph glyph-name="Acircumflex" unicode="&#xe5;" horiz-adv-x="653" 
d="M470 0l-33 106h-219l-35 -106h-183l259 712h135l259 -712h-183zM331 442l-64 -190h124zM405 782l-79 83l-79 -83h-120l136 179h126l136 -179h-120z" />
    <glyph glyph-name="Ecircumflex" unicode="&#xe6;" horiz-adv-x="608" 
d="M72 0v712h484v-156h-309v-119h264v-156h-264v-125h309v-156h-484zM387 782l-79 83l-79 -83h-120l136 179h126l136 -179h-120z" />
    <glyph glyph-name="Aacute" unicode="&#xe7;" horiz-adv-x="653" 
d="M470 0l-33 106h-219l-35 -106h-183l259 712h135l259 -712h-183zM331 442l-64 -190h124zM367 782h-99l49 180h168z" />
    <glyph glyph-name="Edieresis" unicode="&#xe8;" horiz-adv-x="608" 
d="M72 0v712h484v-156h-309v-119h264v-156h-264v-125h309v-156h-484zM505 852c0 -22 -7.83301 -40.833 -23.5 -56.5s-34.5 -23.5 -56.5 -23.5s-40.833 7.83301 -56.5 23.5s-23.5 34.5 -23.5 56.5s7.83301 40.833 23.5 56.5s34.5 23.5 56.5 23.5s40.833 -7.83301 56.5 -23.5
s23.5 -34.5 23.5 -56.5zM271 852c0 -22 -7.83301 -40.833 -23.5 -56.5s-34.5 -23.5 -56.5 -23.5s-40.833 7.83301 -56.5 23.5s-23.5 34.5 -23.5 56.5s7.83301 40.833 23.5 56.5s34.5 23.5 56.5 23.5s40.833 -7.83301 56.5 -23.5s23.5 -34.5 23.5 -56.5z" />
    <glyph glyph-name="Egrave" unicode="&#xe9;" horiz-adv-x="608" 
d="M72 0v712h484v-156h-309v-119h264v-156h-264v-125h309v-156h-484zM267 782l-118 180h168l49 -180h-99z" />
    <glyph glyph-name="Iacute" unicode="&#xea;" horiz-adv-x="319" 
d="M72 0v712h175v-712h-175zM202 782h-99l49 180h168z" />
    <glyph glyph-name="Icircumflex" unicode="&#xeb;" horiz-adv-x="319" 
d="M72 0v712h175v-712h-175zM234 782l-79 83l-79 -83h-120l136 179h126l136 -179h-120z" />
    <glyph glyph-name="Idieresis" unicode="&#xec;" horiz-adv-x="319" 
d="M72 0v712h175v-712h-175zM357 852c0 -22 -7.83301 -40.833 -23.5 -56.5s-34.5 -23.5 -56.5 -23.5s-40.833 7.83301 -56.5 23.5s-23.5 34.5 -23.5 56.5s7.83301 40.833 23.5 56.5s34.5 23.5 56.5 23.5s40.833 -7.83301 56.5 -23.5s23.5 -34.5 23.5 -56.5zM123 852
c0 -22 -7.83301 -40.833 -23.5 -56.5s-34.5 -23.5 -56.5 -23.5s-40.833 7.83301 -56.5 23.5s-23.5 34.5 -23.5 56.5s7.83301 40.833 23.5 56.5s34.5 23.5 56.5 23.5s40.833 -7.83301 56.5 -23.5s23.5 -34.5 23.5 -56.5z" />
    <glyph glyph-name="Igrave" unicode="&#xed;" horiz-adv-x="319" 
d="M72 0v712h175v-712h-175zM127 782l-118 180h168l49 -180h-99z" />
    <glyph glyph-name="Oacute" unicode="&#xee;" horiz-adv-x="640" 
d="M591 356c0 -26.667 -0.166992 -52.834 -0.5 -78.501s-2.66602 -50.5 -6.99902 -74.5s-11.5 -46.833 -21.5 -68.5s-24.333 -41.834 -43 -60.501c-26 -26 -54.667 -45.833 -86 -59.5s-69 -20.5 -113 -20.5s-81.667 6.83301 -113 20.5s-60 33.5 -86 59.5
c-18.667 18.667 -33 38.834 -43 60.501s-17.167 44.5 -21.5 68.5s-6.66602 48.833 -6.99902 74.5s-0.5 51.834 -0.5 78.501s0.166992 52.834 0.5 78.501s2.66602 50.5 6.99902 74.5s11.5 46.833 21.5 68.5s24.333 41.834 43 60.501c26 26 54.667 45.833 86 59.5
s69 20.5 113 20.5s81.667 -6.83301 113 -20.5s60 -33.5 86 -59.5c18.667 -18.667 33 -38.834 43 -60.501s17.167 -44.5 21.5 -68.5s6.66602 -48.833 6.99902 -74.5s0.5 -51.834 0.5 -78.501zM416 356c0 32.667 -0.666992 59.167 -2 79.5s-3 36.666 -5 48.999
s-4.66699 21.833 -8 28.5s-7 12.667 -11 18c-6.66699 8.66699 -16 16 -28 22s-26 9 -42 9s-30 -3 -42 -9s-21.333 -13.333 -28 -22c-4 -5.33301 -7.66699 -11.333 -11 -18s-6 -16.167 -8 -28.5s-3.66699 -28.666 -5 -48.999s-2 -46.833 -2 -79.5s0.666992 -59 2 -79
s3 -36.167 5 -48.5s4.66699 -21.833 8 -28.5s7 -12.667 11 -18c6.66699 -8.66699 16 -16.167 28 -22.5s26 -9.5 42 -9.5s30 3.16699 42 9.5s21.333 13.833 28 22.5c4 5.33301 7.66699 11.333 11 18s6 16.167 8 28.5s3.66699 28.5 5 48.5s2 46.333 2 79zM361 782h-99l49 180
h168z" />
    <glyph glyph-name="Ocircumflex" unicode="&#xef;" horiz-adv-x="640" 
d="M591 356c0 -26.667 -0.166992 -52.834 -0.5 -78.501s-2.66602 -50.5 -6.99902 -74.5s-11.5 -46.833 -21.5 -68.5s-24.333 -41.834 -43 -60.501c-26 -26 -54.667 -45.833 -86 -59.5s-69 -20.5 -113 -20.5s-81.667 6.83301 -113 20.5s-60 33.5 -86 59.5
c-18.667 18.667 -33 38.834 -43 60.501s-17.167 44.5 -21.5 68.5s-6.66602 48.833 -6.99902 74.5s-0.5 51.834 -0.5 78.501s0.166992 52.834 0.5 78.501s2.66602 50.5 6.99902 74.5s11.5 46.833 21.5 68.5s24.333 41.834 43 60.501c26 26 54.667 45.833 86 59.5
s69 20.5 113 20.5s81.667 -6.83301 113 -20.5s60 -33.5 86 -59.5c18.667 -18.667 33 -38.834 43 -60.501s17.167 -44.5 21.5 -68.5s6.66602 -48.833 6.99902 -74.5s0.5 -51.834 0.5 -78.501zM416 356c0 32.667 -0.666992 59.167 -2 79.5s-3 36.666 -5 48.999
s-4.66699 21.833 -8 28.5s-7 12.667 -11 18c-6.66699 8.66699 -16 16 -28 22s-26 9 -42 9s-30 -3 -42 -9s-21.333 -13.333 -28 -22c-4 -5.33301 -7.66699 -11.333 -11 -18s-6 -16.167 -8 -28.5s-3.66699 -28.666 -5 -48.999s-2 -46.833 -2 -79.5s0.666992 -59 2 -79
s3 -36.167 5 -48.5s4.66699 -21.833 8 -28.5s7 -12.667 11 -18c6.66699 -8.66699 16 -16.167 28 -22.5s26 -9.5 42 -9.5s30 3.16699 42 9.5s21.333 13.833 28 22.5c4 5.33301 7.66699 11.333 11 18s6 16.167 8 28.5s3.66699 28.5 5 48.5s2 46.333 2 79zM399 782l-79 83
l-79 -83h-120l136 179h126l136 -179h-120z" />
    <glyph glyph-name="Ograve" unicode="&#xf1;" horiz-adv-x="640" 
d="M591 356c0 -26.667 -0.166992 -52.834 -0.5 -78.501s-2.66602 -50.5 -6.99902 -74.5s-11.5 -46.833 -21.5 -68.5s-24.333 -41.834 -43 -60.501c-26 -26 -54.667 -45.833 -86 -59.5s-69 -20.5 -113 -20.5s-81.667 6.83301 -113 20.5s-60 33.5 -86 59.5
c-18.667 18.667 -33 38.834 -43 60.501s-17.167 44.5 -21.5 68.5s-6.66602 48.833 -6.99902 74.5s-0.5 51.834 -0.5 78.501s0.166992 52.834 0.5 78.501s2.66602 50.5 6.99902 74.5s11.5 46.833 21.5 68.5s24.333 41.834 43 60.501c26 26 54.667 45.833 86 59.5
s69 20.5 113 20.5s81.667 -6.83301 113 -20.5s60 -33.5 86 -59.5c18.667 -18.667 33 -38.834 43 -60.501s17.167 -44.5 21.5 -68.5s6.66602 -48.833 6.99902 -74.5s0.5 -51.834 0.5 -78.501zM416 356c0 32.667 -0.666992 59.167 -2 79.5s-3 36.666 -5 48.999
s-4.66699 21.833 -8 28.5s-7 12.667 -11 18c-6.66699 8.66699 -16 16 -28 22s-26 9 -42 9s-30 -3 -42 -9s-21.333 -13.333 -28 -22c-4 -5.33301 -7.66699 -11.333 -11 -18s-6 -16.167 -8 -28.5s-3.66699 -28.666 -5 -48.999s-2 -46.833 -2 -79.5s0.666992 -59 2 -79
s3 -36.167 5 -48.5s4.66699 -21.833 8 -28.5s7 -12.667 11 -18c6.66699 -8.66699 16 -16.167 28 -22.5s26 -9.5 42 -9.5s30 3.16699 42 9.5s21.333 13.833 28 22.5c4 5.33301 7.66699 11.333 11 18s6 16.167 8 28.5s3.66699 28.5 5 48.5s2 46.333 2 79zM279 782l-118 180
h168l49 -180h-99z" />
    <glyph glyph-name="Uacute" unicode="&#xf2;" horiz-adv-x="660" 
d="M600 250c0 -38.667 -7.16309 -73.834 -21.4961 -105.501s-33.833 -58.667 -58.5 -81s-53.334 -39.5 -86.001 -51.5s-67.667 -18 -105 -18c-36.667 0 -71.334 6 -104.001 18s-61.334 29.167 -86.001 51.5s-44 49.333 -58 81s-21 66.834 -21 105.501v462h175v-458
c0 -33.333 8.33301 -59 25 -77s39.667 -27 69 -27s52.666 9 69.999 27s26 43.667 26 77v458h175v-462v0zM371.004 782h-99l49 180h168z" />
    <glyph glyph-name="Ucircumflex" unicode="&#xf3;" horiz-adv-x="660" 
d="M600 250c0 -38.667 -7.16309 -73.834 -21.4961 -105.501s-33.833 -58.667 -58.5 -81s-53.334 -39.5 -86.001 -51.5s-67.667 -18 -105 -18c-36.667 0 -71.334 6 -104.001 18s-61.334 29.167 -86.001 51.5s-44 49.333 -58 81s-21 66.834 -21 105.501v462h175v-458
c0 -33.333 8.33301 -59 25 -77s39.667 -27 69 -27s52.666 9 69.999 27s26 43.667 26 77v458h175v-462v0zM409.004 782l-79 83l-79 -83h-120l136 179h126l136 -179h-120z" />
    <glyph glyph-name="Ugrave" unicode="&#xf4;" horiz-adv-x="660" 
d="M600 250c0 -38.667 -7.16309 -73.834 -21.4961 -105.501s-33.833 -58.667 -58.5 -81s-53.334 -39.5 -86.001 -51.5s-67.667 -18 -105 -18c-36.667 0 -71.334 6 -104.001 18s-61.334 29.167 -86.001 51.5s-44 49.333 -58 81s-21 66.834 -21 105.501v462h175v-458
c0 -33.333 8.33301 -59 25 -77s39.667 -27 69 -27s52.666 9 69.999 27s26 43.667 26 77v458h175v-462v0zM289.004 782l-118 180h168l49 -180h-99z" />
    <glyph glyph-name="dotlessi" unicode="&#xf5;" horiz-adv-x="288" 
d="M62 0v538h164v-538h-164z" />
    <glyph glyph-name="circumflex" unicode="&#xf6;" 
d="M329 610l-79 83l-79 -83h-120l136 179h126l136 -179h-120z" />
    <glyph glyph-name="tilde" unicode="&#xf7;" 
d="M443 683c-21.333 -21.333 -41.3311 -37.166 -59.998 -47.499s-39.667 -15.5 -63 -15.5c-15.333 0 -28.833 1.33301 -40.5 4s-25.167 8.66699 -40.5 18c-9.33301 5.33301 -18.5 9.5 -27.5 12.5s-18.5 4.5 -28.5 4.5c-9.33301 0 -18.333 -1.5 -27 -4.5s-19 -10.5 -31 -22.5
l-68 69c21.333 21.333 41.166 37.166 59.499 47.499s39.166 15.5 62.499 15.5c15.333 0 28.833 -1.33301 40.5 -4s25.167 -8.66699 40.5 -18c9.33301 -5.33301 18.333 -9.5 27 -12.5s18 -4.5 28 -4.5c9.33301 0 18.333 1.5 27 4.5s19 10.5 31 22.5l70 -69v0z" />
    <glyph glyph-name="macron" unicode="&#xf8;" 
d="M87 639v105h326v-105h-326z" />
    <glyph glyph-name="breve" unicode="&#xf9;" 
d="M414 750c-0.666992 -29.333 -6.00488 -54 -16.0049 -74s-22.667 -36.167 -38 -48.5s-32.666 -21.166 -51.999 -26.499s-38.666 -8 -57.999 -8s-38.5 2.66699 -57.5 8s-36.333 14.166 -52 26.499s-28.5 28.5 -38.5 48.5s-15.333 44.667 -16 74h106
c0.666992 -9.33301 3 -17 7 -23s8.66699 -10.833 14 -14.5s11.333 -6.16699 18 -7.5s13 -2 19 -2s12.333 0.666992 19 2s12.834 3.83301 18.501 7.5s10.334 8.5 14.001 14.5s5.83398 13.667 6.50098 23h106v0z" />
    <glyph glyph-name="dotaccent" unicode="&#xfa;" 
d="M168 593v125h164v-125h-164z" />
    <glyph glyph-name="ring" unicode="&#xfb;" 
d="M388 731c0 -18.667 -3.66699 -36.498 -11 -53.498s-17.166 -31.667 -29.499 -44s-26.833 -22.166 -43.5 -29.499s-34.667 -11 -54 -11c-18.667 0 -36.5 3.66699 -53.5 11s-31.667 17.166 -44 29.499s-22.166 27 -29.499 44s-11 34.833 -11 53.5
c0 19.333 3.66699 37.333 11 54s17.166 31.167 29.499 43.5s27 22.166 44 29.499s34.833 11 53.5 11c19.333 0 37.333 -3.5 54 -10.5s31.167 -16.833 43.5 -29.5s22.166 -27.334 29.499 -44.001s11 -34.667 11 -54zM302 731.002c0 14 -5.16699 26.167 -15.5 36.5
s-22.5 15.5 -36.5 15.5s-26.167 -5.16699 -36.5 -15.5s-15.5 -22.5 -15.5 -36.5s5.16699 -26.167 15.5 -36.5s22.5 -15.5 36.5 -15.5s26.167 5.16699 36.5 15.5s15.5 22.5 15.5 36.5z" />
    <glyph glyph-name="cedilla" unicode="&#xfc;" 
d="M297 -200h-146l67 144h115z" />
    <glyph glyph-name="hungarumlaut" unicode="&#xfd;" 
d="M357 610h-99l49 180h168zM125 610h-100l49 180h168z" />
    <glyph glyph-name="ogonek" unicode="&#xfe;" 
d="M195 -200l-36 144h115l67 -144h-146z" />
    <glyph glyph-name="caron" unicode="&#xff;" 
d="M313 610h-126l-136 179h120l79 -83l79 83h120z" />
    <glyph glyph-name="aring" unicode="&#x152;" horiz-adv-x="536" 
d="M323 0v44c-16.667 -16.667 -33.667 -29 -51 -37s-40.333 -12 -69 -12c-27.333 0 -51.833 4.16699 -73.5 12.5s-40.167 20.166 -55.5 35.499s-27 33.833 -35 55.5s-12 45.167 -12 70.5c0 20 3.5 39.5 10.5 58.5s18 35.667 33 50s34 25.833 57 34.5s50.5 13 82.5 13h109v14
c0 24.667 -6.33301 42 -19 52s-33.334 15 -62.001 15c-21.333 0 -37.666 -2.66699 -48.999 -8s-23.666 -14.666 -36.999 -27.999l-102 102c14 14 27.667 25.5 41 34.5s27.833 16.333 43.5 22s32.5 9.66699 50.5 12s38.333 3.5 61 3.5c77.333 0 136.166 -16 176.499 -48
s60.5 -81 60.5 -147v-349h-160zM319 216h-83c-16 0 -28.667 -4 -38 -12s-14 -18.333 -14 -31c0 -12 4.5 -22.5 13.5 -31.5s22.5 -13.5 40.5 -13.5c16 0 28.5 1.16699 37.5 3.5s18.167 7.83301 27.5 16.5c10.667 10 16 28 16 54v14zM404 731
c0 -18.667 -3.66699 -36.498 -11 -53.498s-17.166 -31.667 -29.499 -44s-26.833 -22.166 -43.5 -29.499s-34.667 -11 -54 -11c-18.667 0 -36.5 3.66699 -53.5 11s-31.667 17.166 -44 29.499s-22.166 27 -29.499 44s-11 34.833 -11 53.5c0 19.333 3.66699 37.333 11 54
s17.166 31.167 29.499 43.5s27 22.166 44 29.499s34.833 11 53.5 11c19.333 0 37.333 -3.5 54 -10.5s31.167 -16.833 43.5 -29.5s22.166 -27.334 29.499 -44.001s11 -34.667 11 -54zM318 731.002c0 14 -5.16699 26.167 -15.5 36.5s-22.5 15.5 -36.5 15.5
s-26.167 -5.16699 -36.5 -15.5s-15.5 -22.5 -15.5 -36.5s5.16699 -26.167 15.5 -36.5s22.5 -15.5 36.5 -15.5s26.167 5.16699 36.5 15.5s15.5 22.5 15.5 36.5z" />
    <glyph glyph-name="uacute" unicode="&#x153;" horiz-adv-x="579" 
d="M357 0l-0.000976562 44.001c-16.667 -16.667 -36.334 -29.167 -59.001 -37.5s-44.667 -12.5 -66 -12.5c-25.333 0 -48.166 4 -68.499 12s-37.833 19.333 -52.5 34c-23.333 23.333 -38.166 47.666 -44.499 72.999s-9.5 52.333 -9.5 81v344h164v-322
c0 -15.333 2.33301 -27.833 7 -37.5s10.5 -17.167 17.5 -22.5s14.333 -9 22 -11s14.167 -3 19.5 -3s11.833 1 19.5 3s15 5.66699 22 11s12.833 12.833 17.5 22.5s7 22.167 7 37.5v322h164v-538h-160zM327.999 610.001h-99l49 180h168z" />
    <glyph glyph-name="adieresis" unicode="&#x160;" horiz-adv-x="536" 
d="M323 0v44c-16.667 -16.667 -33.667 -29 -51 -37s-40.333 -12 -69 -12c-27.333 0 -51.833 4.16699 -73.5 12.5s-40.167 20.166 -55.5 35.499s-27 33.833 -35 55.5s-12 45.167 -12 70.5c0 20 3.5 39.5 10.5 58.5s18 35.667 33 50s34 25.833 57 34.5s50.5 13 82.5 13h109v14
c0 24.667 -6.33301 42 -19 52s-33.334 15 -62.001 15c-21.333 0 -37.666 -2.66699 -48.999 -8s-23.666 -14.666 -36.999 -27.999l-102 102c14 14 27.667 25.5 41 34.5s27.833 16.333 43.5 22s32.5 9.66699 50.5 12s38.333 3.5 61 3.5c77.333 0 136.166 -16 176.499 -48
s60.5 -81 60.5 -147v-349h-160zM319 216h-83c-16 0 -28.667 -4 -38 -12s-14 -18.333 -14 -31c0 -12 4.5 -22.5 13.5 -31.5s22.5 -13.5 40.5 -13.5c16 0 28.5 1.16699 37.5 3.5s18.167 7.83301 27.5 16.5c10.667 10 16 28 16 54v14zM463 680
c0 -22 -7.83301 -40.833 -23.5 -56.5s-34.5 -23.5 -56.5 -23.5s-40.833 7.83301 -56.5 23.5s-23.5 34.5 -23.5 56.5s7.83301 40.833 23.5 56.5s34.5 23.5 56.5 23.5s40.833 -7.83301 56.5 -23.5s23.5 -34.5 23.5 -56.5zM229 680c0 -22 -7.83301 -40.833 -23.5 -56.5
s-34.5 -23.5 -56.5 -23.5s-40.833 7.83301 -56.5 23.5s-23.5 34.5 -23.5 56.5s7.83301 40.833 23.5 56.5s34.5 23.5 56.5 23.5s40.833 -7.83301 56.5 -23.5s23.5 -34.5 23.5 -56.5z" />
    <glyph glyph-name="odieresis" unicode="&#x161;" horiz-adv-x="550" 
d="M507 269c0 -26.667 -1 -50 -3 -70s-5.16699 -38 -9.5 -54s-10.333 -30.667 -18 -44s-17.167 -26 -28.5 -38c-8 -8.66699 -17.5 -17 -28.5 -25s-23.5 -15.333 -37.5 -22s-29.833 -12 -47.5 -16s-37.5 -6 -59.5 -6s-41.833 2 -59.5 6s-33.5 9.33301 -47.5 16
s-26.5 14 -37.5 22s-20.5 16.333 -28.5 25c-11.333 12 -20.833 24.667 -28.5 38s-13.667 28 -18 44s-7.5 34 -9.5 54s-3 43.333 -3 70c0 26 1 49.167 3 69.5s5.16699 38.5 9.5 54.5s10.333 30.667 18 44s17.167 26 28.5 38c16 17.333 38 33.166 66 47.499
s63.667 21.5 107 21.5s79 -7.16699 107 -21.5s50 -30.166 66 -47.499c11.333 -12 20.833 -24.667 28.5 -38s13.667 -28 18 -44s7.5 -34.167 9.5 -54.5s3 -43.5 3 -69.5zM343 269c0 26.667 -1.33301 49.334 -4 68.001s-9.33398 33.334 -20.001 44.001
c-10 10 -24.667 15 -44 15s-34 -5 -44 -15c-10.667 -10.667 -17.334 -25.334 -20.001 -44.001s-4 -41.334 -4 -68.001s1.33301 -49.334 4 -68.001s9.33398 -33.334 20.001 -44.001c10 -10 24.667 -15 44 -15s34 5 44 15c10.667 10.667 17.334 25.334 20.001 44.001
s4 41.334 4 68.001zM472 680c0 -22 -7.83301 -40.833 -23.5 -56.5s-34.5 -23.5 -56.5 -23.5s-40.833 7.83301 -56.5 23.5s-23.5 34.5 -23.5 56.5s7.83301 40.833 23.5 56.5s34.5 23.5 56.5 23.5s40.833 -7.83301 56.5 -23.5s23.5 -34.5 23.5 -56.5zM238 680
c0 -22 -7.83301 -40.833 -23.5 -56.5s-34.5 -23.5 -56.5 -23.5s-40.833 7.83301 -56.5 23.5s-23.5 34.5 -23.5 56.5s7.83301 40.833 23.5 56.5s34.5 23.5 56.5 23.5s40.833 -7.83301 56.5 -23.5s23.5 -34.5 23.5 -56.5z" />
    <glyph glyph-name="udieresis" unicode="&#x178;" horiz-adv-x="579" 
d="M357 0l-0.000976562 44.001c-16.667 -16.667 -36.334 -29.167 -59.001 -37.5s-44.667 -12.5 -66 -12.5c-25.333 0 -48.166 4 -68.499 12s-37.833 19.333 -52.5 34c-23.333 23.333 -38.166 47.666 -44.499 72.999s-9.5 52.333 -9.5 81v344h164v-322
c0 -15.333 2.33301 -27.833 7 -37.5s10.5 -17.167 17.5 -22.5s14.333 -9 22 -11s14.167 -3 19.5 -3s11.833 1 19.5 3s15 5.66699 22 11s12.833 12.833 17.5 22.5s7 22.167 7 37.5v322h164v-538h-160zM483.999 680.001c0 -22 -7.83301 -40.833 -23.5 -56.5
s-34.5 -23.5 -56.5 -23.5s-40.833 7.83301 -56.5 23.5s-23.5 34.5 -23.5 56.5s7.83301 40.833 23.5 56.5s34.5 23.5 56.5 23.5s40.833 -7.83301 56.5 -23.5s23.5 -34.5 23.5 -56.5zM249.999 680.001c0 -22 -7.83301 -40.833 -23.5 -56.5s-34.5 -23.5 -56.5 -23.5
s-40.833 7.83301 -56.5 23.5s-23.5 34.5 -23.5 56.5s7.83301 40.833 23.5 56.5s34.5 23.5 56.5 23.5s40.833 -7.83301 56.5 -23.5s23.5 -34.5 23.5 -56.5z" />
    <glyph glyph-name="Eacute" unicode="&#x192;" horiz-adv-x="608" 
d="M72 0v712h484v-156h-309v-119h264v-156h-264v-125h309v-156h-484zM349 782h-99l49 180h168z" />
    <glyph glyph-name="agrave" unicode="&#x2c6;" horiz-adv-x="536" 
d="M323 0v44c-16.667 -16.667 -33.667 -29 -51 -37s-40.333 -12 -69 -12c-27.333 0 -51.833 4.16699 -73.5 12.5s-40.167 20.166 -55.5 35.499s-27 33.833 -35 55.5s-12 45.167 -12 70.5c0 20 3.5 39.5 10.5 58.5s18 35.667 33 50s34 25.833 57 34.5s50.5 13 82.5 13h109v14
c0 24.667 -6.33301 42 -19 52s-33.334 15 -62.001 15c-21.333 0 -37.666 -2.66699 -48.999 -8s-23.666 -14.666 -36.999 -27.999l-102 102c14 14 27.667 25.5 41 34.5s27.833 16.333 43.5 22s32.5 9.66699 50.5 12s38.333 3.5 61 3.5c77.333 0 136.166 -16 176.499 -48
s60.5 -81 60.5 -147v-349h-160zM319 216h-83c-16 0 -28.667 -4 -38 -12s-14 -18.333 -14 -31c0 -12 4.5 -22.5 13.5 -31.5s22.5 -13.5 40.5 -13.5c16 0 28.5 1.16699 37.5 3.5s18.167 7.83301 27.5 16.5c10.667 10 16 28 16 54v14zM225 610l-118 180h168l49 -180h-99z" />
    <glyph glyph-name="ograve" unicode="&#x2dc;" horiz-adv-x="550" 
d="M507 269c0 -26.667 -1 -50 -3 -70s-5.16699 -38 -9.5 -54s-10.333 -30.667 -18 -44s-17.167 -26 -28.5 -38c-8 -8.66699 -17.5 -17 -28.5 -25s-23.5 -15.333 -37.5 -22s-29.833 -12 -47.5 -16s-37.5 -6 -59.5 -6s-41.833 2 -59.5 6s-33.5 9.33301 -47.5 16
s-26.5 14 -37.5 22s-20.5 16.333 -28.5 25c-11.333 12 -20.833 24.667 -28.5 38s-13.667 28 -18 44s-7.5 34 -9.5 54s-3 43.333 -3 70c0 26 1 49.167 3 69.5s5.16699 38.5 9.5 54.5s10.333 30.667 18 44s17.167 26 28.5 38c16 17.333 38 33.166 66 47.499
s63.667 21.5 107 21.5s79 -7.16699 107 -21.5s50 -30.166 66 -47.499c11.333 -12 20.833 -24.667 28.5 -38s13.667 -28 18 -44s7.5 -34.167 9.5 -54.5s3 -43.5 3 -69.5zM343 269c0 26.667 -1.33301 49.334 -4 68.001s-9.33398 33.334 -20.001 44.001
c-10 10 -24.667 15 -44 15s-34 -5 -44 -15c-10.667 -10.667 -17.334 -25.334 -20.001 -44.001s-4 -41.334 -4 -68.001s1.33301 -49.334 4 -68.001s9.33398 -33.334 20.001 -44.001c10 -10 24.667 -15 44 -15s34 5 44 15c10.667 10.667 17.334 25.334 20.001 44.001
s4 41.334 4 68.001zM234 610l-118 180h168l49 -180h-99z" />
    <glyph glyph-name="ntilde" unicode="&#x2013;" horiz-adv-x="579" 
d="M358 0l0.000976562 321.999c0 15.333 -2.33301 27.833 -7 37.5s-10.5 17.167 -17.5 22.5s-14.333 9 -22 11s-14.167 3 -19.5 3s-11.833 -1 -19.5 -3s-15 -5.66699 -22 -11s-12.833 -12.833 -17.5 -22.5s-7 -22.167 -7 -37.5v-322h-164v538h160v-44
c16.667 16.667 36.334 29.167 59.001 37.5s44.667 12.5 66 12.5c25.333 0 48.166 -4 68.499 -12s37.833 -19.333 52.5 -34c23.333 -23.333 38.166 -47.666 44.499 -72.999s9.5 -52.333 9.5 -81v-344h-164zM485.001 682.999
c-21.333 -21.333 -41.3311 -37.166 -59.998 -47.499s-39.667 -15.5 -63 -15.5c-15.333 0 -28.833 1.33301 -40.5 4s-25.167 8.66699 -40.5 18c-9.33301 5.33301 -18.5 9.5 -27.5 12.5s-18.5 4.5 -28.5 4.5c-9.33301 0 -18.333 -1.5 -27 -4.5s-19 -10.5 -31 -22.5l-68 69
c21.333 21.333 41.166 37.166 59.499 47.499s39.166 15.5 62.499 15.5c15.333 0 28.833 -1.33301 40.5 -4s25.167 -8.66699 40.5 -18c9.33301 -5.33301 18.333 -9.5 27 -12.5s18 -4.5 28 -4.5c9.33301 0 18.333 1.5 27 4.5s19 10.5 31 22.5l70 -69v0z" />
    <glyph glyph-name="oacute" unicode="&#x2014;" horiz-adv-x="550" 
d="M507 269c0 -26.667 -1 -50 -3 -70s-5.16699 -38 -9.5 -54s-10.333 -30.667 -18 -44s-17.167 -26 -28.5 -38c-8 -8.66699 -17.5 -17 -28.5 -25s-23.5 -15.333 -37.5 -22s-29.833 -12 -47.5 -16s-37.5 -6 -59.5 -6s-41.833 2 -59.5 6s-33.5 9.33301 -47.5 16
s-26.5 14 -37.5 22s-20.5 16.333 -28.5 25c-11.333 12 -20.833 24.667 -28.5 38s-13.667 28 -18 44s-7.5 34 -9.5 54s-3 43.333 -3 70c0 26 1 49.167 3 69.5s5.16699 38.5 9.5 54.5s10.333 30.667 18 44s17.167 26 28.5 38c16 17.333 38 33.166 66 47.499
s63.667 21.5 107 21.5s79 -7.16699 107 -21.5s50 -30.166 66 -47.499c11.333 -12 20.833 -24.667 28.5 -38s13.667 -28 18 -44s7.5 -34.167 9.5 -54.5s3 -43.5 3 -69.5zM343 269c0 26.667 -1.33301 49.334 -4 68.001s-9.33398 33.334 -20.001 44.001
c-10 10 -24.667 15 -44 15s-34 -5 -44 -15c-10.667 -10.667 -17.334 -25.334 -20.001 -44.001s-4 -41.334 -4 -68.001s1.33301 -49.334 4 -68.001s9.33398 -33.334 20.001 -44.001c10 -10 24.667 -15 44 -15s34 5 44 15c10.667 10.667 17.334 25.334 20.001 44.001
s4 41.334 4 68.001zM316 610h-99l49 180h168z" />
    <glyph glyph-name="edieresis" unicode="&#x2018;" horiz-adv-x="559" 
d="M199 216c0 -22 8.16797 -41.502 24.501 -58.502s39.833 -25.5 70.5 -25.5c28.667 0 50.667 3.83301 66 11.5s30.333 18.834 45 33.501l98 -98c-14 -14 -28 -26.167 -42 -36.5s-29.167 -19.166 -45.5 -26.499s-34.333 -12.833 -54 -16.5s-42.167 -5.5 -67.5 -5.5
c-30 0 -60.167 3.5 -90.5 10.5s-57.666 20.333 -81.999 40s-44.333 47.5 -60 83.5s-23.5 83 -23.5 141c0 44 6 83 18 117s28.667 62.833 50 86.5s46.666 41.5 75.999 53.5s61.666 18 96.999 18c39.333 0 74 -6.66699 104 -20s55.167 -31.5 75.5 -54.5s35.833 -50 46.5 -81
s16 -64.167 16 -99.5v-73h-322zM359.001 324.998c0 6.66699 -0.672852 13.5 -2.00586 20.5s-3.66602 14.167 -6.99902 21.5c-5.33301 11.333 -13.666 21.166 -24.999 29.499s-26.666 12.5 -45.999 12.5s-34.666 -4.16699 -45.999 -12.5s-19.666 -18.166 -24.999 -29.499
c-3.33301 -7.33301 -5.66602 -14.5 -6.99902 -21.5s-2 -13.833 -2 -20.5h160v0zM479.995 679.998c0 -22 -7.83301 -40.833 -23.5 -56.5s-34.5 -23.5 -56.5 -23.5s-40.833 7.83301 -56.5 23.5s-23.5 34.5 -23.5 56.5s7.83301 40.833 23.5 56.5s34.5 23.5 56.5 23.5
s40.833 -7.83301 56.5 -23.5s23.5 -34.5 23.5 -56.5zM245.995 679.998c0 -22 -7.83301 -40.833 -23.5 -56.5s-34.5 -23.5 -56.5 -23.5s-40.833 7.83301 -56.5 23.5s-23.5 34.5 -23.5 56.5s7.83301 40.833 23.5 56.5s34.5 23.5 56.5 23.5s40.833 -7.83301 56.5 -23.5
s23.5 -34.5 23.5 -56.5z" />
    <glyph glyph-name="iacute" unicode="&#x2019;" horiz-adv-x="288" 
d="M62 0v538h164v-538h-164zM168 610h-99l49 180h168z" />
    <glyph glyph-name="Ccedilla" unicode="&#x201a;" horiz-adv-x="547" 
d="M516 73c-12 -12 -24.667 -22.8311 -38 -32.498s-27.833 -18 -43.5 -25s-33 -12.333 -52 -16s-40.167 -5.5 -63.5 -5.5c-42 0 -79 6.83301 -111 20.5s-61 33.5 -87 59.5c-18.667 18.667 -33 38.834 -43 60.501s-17.167 44.5 -21.5 68.5s-6.66602 48.833 -6.99902 74.5
s-0.5 51.834 -0.5 78.501s0.166992 52.834 0.5 78.501s2.66602 50.5 6.99902 74.5s11.5 46.833 21.5 68.5s24.333 41.834 43 60.501c26 26 55 45.833 87 59.5s69 20.5 111 20.5c23.333 0 44.5 -1.83301 63.5 -5.5s36.333 -9 52 -16s30.167 -15.333 43.5 -25
s26 -20.5 38 -32.5l-116 -116c-11.333 11.333 -22.666 20.666 -33.999 27.999s-27 11 -47 11c-16 0 -29.667 -2.83301 -41 -8.5s-20.333 -12.834 -27 -21.501c-4 -5.33301 -7.66699 -11.333 -11 -18s-6.16602 -16.334 -8.49902 -29.001s-4.16602 -29.167 -5.49902 -49.5
s-2 -46.833 -2 -79.5s0.666992 -59.167 2 -79.5s3.16602 -36.833 5.49902 -49.5s5.16602 -22.334 8.49902 -29.001s7 -12.667 11 -18c6.66699 -8.66699 15.667 -15.834 27 -21.501s25 -8.5 41 -8.5c20 0 35.667 3.66699 47 11s22.666 16.666 33.999 27.999l116 -116v0z
M349 -199.998h-146l67 144h115z" />
    <glyph glyph-name="igrave" unicode="&#x201c;" horiz-adv-x="288" 
d="M62 0v538h164v-538h-164zM123 610l-118 180h168l49 -180h-99z" />
    <glyph glyph-name="icircumflex" unicode="&#x201d;" horiz-adv-x="288" 
d="M62 0v538h164v-538h-164zM224 610l-79 83l-79 -83h-120l136 179h126l136 -179h-120z" />
    <glyph glyph-name="Ntilde" unicode="&#x201e;" horiz-adv-x="700" 
d="M475 0l-228 358v-358h-175v712h153l228 -358v358h175v-712h-153zM543 855c-21.333 -21.333 -41.3311 -37.166 -59.998 -47.499s-39.667 -15.5 -63 -15.5c-15.333 0 -28.833 1.33301 -40.5 4s-25.167 8.66699 -40.5 18c-9.33301 5.33301 -18.5 9.5 -27.5 12.5
s-18.5 4.5 -28.5 4.5c-9.33301 0 -18.333 -1.5 -27 -4.5s-19 -10.5 -31 -22.5l-68 69c21.333 21.333 41.166 37.166 59.499 47.499s39.166 15.5 62.499 15.5c15.333 0 28.833 -1.33301 40.5 -4s25.167 -8.66699 40.5 -18c9.33301 -5.33301 18.333 -9.5 27 -12.5
s18 -4.5 28 -4.5c9.33301 0 18.333 1.5 27 4.5s19 10.5 31 22.5l70 -69v0z" />
    <glyph glyph-name="Udieresis" unicode="&#x2020;" horiz-adv-x="660" 
d="M600 250c0 -38.667 -7.16309 -73.834 -21.4961 -105.501s-33.833 -58.667 -58.5 -81s-53.334 -39.5 -86.001 -51.5s-67.667 -18 -105 -18c-36.667 0 -71.334 6 -104.001 18s-61.334 29.167 -86.001 51.5s-44 49.333 -58 81s-21 66.834 -21 105.501v462h175v-458
c0 -33.333 8.33301 -59 25 -77s39.667 -27 69 -27s52.666 9 69.999 27s26 43.667 26 77v458h175v-462v0zM527.004 852c0 -22 -7.83301 -40.833 -23.5 -56.5s-34.5 -23.5 -56.5 -23.5s-40.833 7.83301 -56.5 23.5s-23.5 34.5 -23.5 56.5s7.83301 40.833 23.5 56.5
s34.5 23.5 56.5 23.5s40.833 -7.83301 56.5 -23.5s23.5 -34.5 23.5 -56.5zM293.004 852c0 -22 -7.83301 -40.833 -23.5 -56.5s-34.5 -23.5 -56.5 -23.5s-40.833 7.83301 -56.5 23.5s-23.5 34.5 -23.5 56.5s7.83301 40.833 23.5 56.5s34.5 23.5 56.5 23.5
s40.833 -7.83301 56.5 -23.5s23.5 -34.5 23.5 -56.5z" />
    <glyph glyph-name="aacute" unicode="&#x2021;" horiz-adv-x="536" 
d="M323 0v44c-16.667 -16.667 -33.667 -29 -51 -37s-40.333 -12 -69 -12c-27.333 0 -51.833 4.16699 -73.5 12.5s-40.167 20.166 -55.5 35.499s-27 33.833 -35 55.5s-12 45.167 -12 70.5c0 20 3.5 39.5 10.5 58.5s18 35.667 33 50s34 25.833 57 34.5s50.5 13 82.5 13h109v14
c0 24.667 -6.33301 42 -19 52s-33.334 15 -62.001 15c-21.333 0 -37.666 -2.66699 -48.999 -8s-23.666 -14.666 -36.999 -27.999l-102 102c14 14 27.667 25.5 41 34.5s27.833 16.333 43.5 22s32.5 9.66699 50.5 12s38.333 3.5 61 3.5c77.333 0 136.166 -16 176.499 -48
s60.5 -81 60.5 -147v-349h-160zM319 216h-83c-16 0 -28.667 -4 -38 -12s-14 -18.333 -14 -31c0 -12 4.5 -22.5 13.5 -31.5s22.5 -13.5 40.5 -13.5c16 0 28.5 1.16699 37.5 3.5s18.167 7.83301 27.5 16.5c10.667 10 16 28 16 54v14zM307 610h-99l49 180h168z" />
    <glyph glyph-name="idieresis" unicode="&#x2022;" horiz-adv-x="288" 
d="M62 0v538h164v-538h-164zM344 680c0 -22 -7.83301 -40.833 -23.5 -56.5s-34.5 -23.5 -56.5 -23.5s-40.833 7.83301 -56.5 23.5s-23.5 34.5 -23.5 56.5s7.83301 40.833 23.5 56.5s34.5 23.5 56.5 23.5s40.833 -7.83301 56.5 -23.5s23.5 -34.5 23.5 -56.5zM110 680
c0 -22 -7.83301 -40.833 -23.5 -56.5s-34.5 -23.5 -56.5 -23.5s-40.833 7.83301 -56.5 23.5s-23.5 34.5 -23.5 56.5s7.83301 40.833 23.5 56.5s34.5 23.5 56.5 23.5s40.833 -7.83301 56.5 -23.5s23.5 -34.5 23.5 -56.5z" />
    <glyph glyph-name="Odieresis" unicode="&#x2026;" horiz-adv-x="640" 
d="M591 356c0 -26.667 -0.166992 -52.834 -0.5 -78.501s-2.66602 -50.5 -6.99902 -74.5s-11.5 -46.833 -21.5 -68.5s-24.333 -41.834 -43 -60.501c-26 -26 -54.667 -45.833 -86 -59.5s-69 -20.5 -113 -20.5s-81.667 6.83301 -113 20.5s-60 33.5 -86 59.5
c-18.667 18.667 -33 38.834 -43 60.501s-17.167 44.5 -21.5 68.5s-6.66602 48.833 -6.99902 74.5s-0.5 51.834 -0.5 78.501s0.166992 52.834 0.5 78.501s2.66602 50.5 6.99902 74.5s11.5 46.833 21.5 68.5s24.333 41.834 43 60.501c26 26 54.667 45.833 86 59.5
s69 20.5 113 20.5s81.667 -6.83301 113 -20.5s60 -33.5 86 -59.5c18.667 -18.667 33 -38.834 43 -60.501s17.167 -44.5 21.5 -68.5s6.66602 -48.833 6.99902 -74.5s0.5 -51.834 0.5 -78.501zM416 356c0 32.667 -0.666992 59.167 -2 79.5s-3 36.666 -5 48.999
s-4.66699 21.833 -8 28.5s-7 12.667 -11 18c-6.66699 8.66699 -16 16 -28 22s-26 9 -42 9s-30 -3 -42 -9s-21.333 -13.333 -28 -22c-4 -5.33301 -7.66699 -11.333 -11 -18s-6 -16.167 -8 -28.5s-3.66699 -28.666 -5 -48.999s-2 -46.833 -2 -79.5s0.666992 -59 2 -79
s3 -36.167 5 -48.5s4.66699 -21.833 8 -28.5s7 -12.667 11 -18c6.66699 -8.66699 16 -16.167 28 -22.5s26 -9.5 42 -9.5s30 3.16699 42 9.5s21.333 13.833 28 22.5c4 5.33301 7.66699 11.333 11 18s6 16.167 8 28.5s3.66699 28.5 5 48.5s2 46.333 2 79zM517 852
c0 -22 -7.83301 -40.833 -23.5 -56.5s-34.5 -23.5 -56.5 -23.5s-40.833 7.83301 -56.5 23.5s-23.5 34.5 -23.5 56.5s7.83301 40.833 23.5 56.5s34.5 23.5 56.5 23.5s40.833 -7.83301 56.5 -23.5s23.5 -34.5 23.5 -56.5zM283 852c0 -22 -7.83301 -40.833 -23.5 -56.5
s-34.5 -23.5 -56.5 -23.5s-40.833 7.83301 -56.5 23.5s-23.5 34.5 -23.5 56.5s7.83301 40.833 23.5 56.5s34.5 23.5 56.5 23.5s40.833 -7.83301 56.5 -23.5s23.5 -34.5 23.5 -56.5z" />
    <glyph glyph-name="acircumflex" unicode="&#x2030;" horiz-adv-x="536" 
d="M323 0v44c-16.667 -16.667 -33.667 -29 -51 -37s-40.333 -12 -69 -12c-27.333 0 -51.833 4.16699 -73.5 12.5s-40.167 20.166 -55.5 35.499s-27 33.833 -35 55.5s-12 45.167 -12 70.5c0 20 3.5 39.5 10.5 58.5s18 35.667 33 50s34 25.833 57 34.5s50.5 13 82.5 13h109v14
c0 24.667 -6.33301 42 -19 52s-33.334 15 -62.001 15c-21.333 0 -37.666 -2.66699 -48.999 -8s-23.666 -14.666 -36.999 -27.999l-102 102c14 14 27.667 25.5 41 34.5s27.833 16.333 43.5 22s32.5 9.66699 50.5 12s38.333 3.5 61 3.5c77.333 0 136.166 -16 176.499 -48
s60.5 -81 60.5 -147v-349h-160zM319 216h-83c-16 0 -28.667 -4 -38 -12s-14 -18.333 -14 -31c0 -12 4.5 -22.5 13.5 -31.5s22.5 -13.5 40.5 -13.5c16 0 28.5 1.16699 37.5 3.5s18.167 7.83301 27.5 16.5c10.667 10 16 28 16 54v14zM345 610l-79 83l-79 -83h-120l136 179h126
l136 -179h-120z" />
    <glyph glyph-name="atilde" unicode="&#x2039;" horiz-adv-x="536" 
d="M323 0v44c-16.667 -16.667 -33.667 -29 -51 -37s-40.333 -12 -69 -12c-27.333 0 -51.833 4.16699 -73.5 12.5s-40.167 20.166 -55.5 35.499s-27 33.833 -35 55.5s-12 45.167 -12 70.5c0 20 3.5 39.5 10.5 58.5s18 35.667 33 50s34 25.833 57 34.5s50.5 13 82.5 13h109v14
c0 24.667 -6.33301 42 -19 52s-33.334 15 -62.001 15c-21.333 0 -37.666 -2.66699 -48.999 -8s-23.666 -14.666 -36.999 -27.999l-102 102c14 14 27.667 25.5 41 34.5s27.833 16.333 43.5 22s32.5 9.66699 50.5 12s38.333 3.5 61 3.5c77.333 0 136.166 -16 176.499 -48
s60.5 -81 60.5 -147v-349h-160zM319 216h-83c-16 0 -28.667 -4 -38 -12s-14 -18.333 -14 -31c0 -12 4.5 -22.5 13.5 -31.5s22.5 -13.5 40.5 -13.5c16 0 28.5 1.16699 37.5 3.5s18.167 7.83301 27.5 16.5c10.667 10 16 28 16 54v14zM459 683
c-21.333 -21.333 -41.3311 -37.166 -59.998 -47.499s-39.667 -15.5 -63 -15.5c-15.333 0 -28.833 1.33301 -40.5 4s-25.167 8.66699 -40.5 18c-9.33301 5.33301 -18.5 9.5 -27.5 12.5s-18.5 4.5 -28.5 4.5c-9.33301 0 -18.333 -1.5 -27 -4.5s-19 -10.5 -31 -22.5l-68 69
c21.333 21.333 41.166 37.166 59.499 47.499s39.166 15.5 62.499 15.5c15.333 0 28.833 -1.33301 40.5 -4s25.167 -8.66699 40.5 -18c9.33301 -5.33301 18.333 -9.5 27 -12.5s18 -4.5 28 -4.5c9.33301 0 18.333 1.5 27 4.5s19 10.5 31 22.5l70 -69v0z" />
    <glyph glyph-name="otilde" unicode="&#x203a;" horiz-adv-x="550" 
d="M507 269c0 -26.667 -1 -50 -3 -70s-5.16699 -38 -9.5 -54s-10.333 -30.667 -18 -44s-17.167 -26 -28.5 -38c-8 -8.66699 -17.5 -17 -28.5 -25s-23.5 -15.333 -37.5 -22s-29.833 -12 -47.5 -16s-37.5 -6 -59.5 -6s-41.833 2 -59.5 6s-33.5 9.33301 -47.5 16
s-26.5 14 -37.5 22s-20.5 16.333 -28.5 25c-11.333 12 -20.833 24.667 -28.5 38s-13.667 28 -18 44s-7.5 34 -9.5 54s-3 43.333 -3 70c0 26 1 49.167 3 69.5s5.16699 38.5 9.5 54.5s10.333 30.667 18 44s17.167 26 28.5 38c16 17.333 38 33.166 66 47.499
s63.667 21.5 107 21.5s79 -7.16699 107 -21.5s50 -30.166 66 -47.499c11.333 -12 20.833 -24.667 28.5 -38s13.667 -28 18 -44s7.5 -34.167 9.5 -54.5s3 -43.5 3 -69.5zM343 269c0 26.667 -1.33301 49.334 -4 68.001s-9.33398 33.334 -20.001 44.001
c-10 10 -24.667 15 -44 15s-34 -5 -44 -15c-10.667 -10.667 -17.334 -25.334 -20.001 -44.001s-4 -41.334 -4 -68.001s1.33301 -49.334 4 -68.001s9.33398 -33.334 20.001 -44.001c10 -10 24.667 -15 44 -15s34 5 44 15c10.667 10.667 17.334 25.334 20.001 44.001
s4 41.334 4 68.001zM468 683c-21.333 -21.333 -41.3311 -37.166 -59.998 -47.499s-39.667 -15.5 -63 -15.5c-15.333 0 -28.833 1.33301 -40.5 4s-25.167 8.66699 -40.5 18c-9.33301 5.33301 -18.5 9.5 -27.5 12.5s-18.5 4.5 -28.5 4.5c-9.33301 0 -18.333 -1.5 -27 -4.5
s-19 -10.5 -31 -22.5l-68 69c21.333 21.333 41.166 37.166 59.499 47.499s39.166 15.5 62.499 15.5c15.333 0 28.833 -1.33301 40.5 -4s25.167 -8.66699 40.5 -18c9.33301 -5.33301 18.333 -9.5 27 -12.5s18 -4.5 28 -4.5c9.33301 0 18.333 1.5 27 4.5s19 10.5 31 22.5
l70 -69v0z" />
    <glyph glyph-name="Adieresis" unicode="&#x20ac;" horiz-adv-x="653" 
d="M470 0l-33 106h-219l-35 -106h-183l259 712h135l259 -712h-183zM331 442l-64 -190h124zM523 852c0 -22 -7.83301 -40.833 -23.5 -56.5s-34.5 -23.5 -56.5 -23.5s-40.833 7.83301 -56.5 23.5s-23.5 34.5 -23.5 56.5s7.83301 40.833 23.5 56.5s34.5 23.5 56.5 23.5
s40.833 -7.83301 56.5 -23.5s23.5 -34.5 23.5 -56.5zM289 852c0 -22 -7.83301 -40.833 -23.5 -56.5s-34.5 -23.5 -56.5 -23.5s-40.833 7.83301 -56.5 23.5s-23.5 34.5 -23.5 56.5s7.83301 40.833 23.5 56.5s34.5 23.5 56.5 23.5s40.833 -7.83301 56.5 -23.5
s23.5 -34.5 23.5 -56.5z" />
    <glyph glyph-name="ocircumflex" unicode="&#x2122;" horiz-adv-x="550" 
d="M507 269c0 -26.667 -1 -50 -3 -70s-5.16699 -38 -9.5 -54s-10.333 -30.667 -18 -44s-17.167 -26 -28.5 -38c-8 -8.66699 -17.5 -17 -28.5 -25s-23.5 -15.333 -37.5 -22s-29.833 -12 -47.5 -16s-37.5 -6 -59.5 -6s-41.833 2 -59.5 6s-33.5 9.33301 -47.5 16
s-26.5 14 -37.5 22s-20.5 16.333 -28.5 25c-11.333 12 -20.833 24.667 -28.5 38s-13.667 28 -18 44s-7.5 34 -9.5 54s-3 43.333 -3 70c0 26 1 49.167 3 69.5s5.16699 38.5 9.5 54.5s10.333 30.667 18 44s17.167 26 28.5 38c16 17.333 38 33.166 66 47.499
s63.667 21.5 107 21.5s79 -7.16699 107 -21.5s50 -30.166 66 -47.499c11.333 -12 20.833 -24.667 28.5 -38s13.667 -28 18 -44s7.5 -34.167 9.5 -54.5s3 -43.5 3 -69.5zM343 269c0 26.667 -1.33301 49.334 -4 68.001s-9.33398 33.334 -20.001 44.001
c-10 10 -24.667 15 -44 15s-34 -5 -44 -15c-10.667 -10.667 -17.334 -25.334 -20.001 -44.001s-4 -41.334 -4 -68.001s1.33301 -49.334 4 -68.001s9.33398 -33.334 20.001 -44.001c10 -10 24.667 -15 44 -15s34 5 44 15c10.667 10.667 17.334 25.334 20.001 44.001
s4 41.334 4 68.001zM354 610l-79 83l-79 -83h-120l136 179h126l136 -179h-120z" />
    <glyph glyph-name=".null" horiz-adv-x="0" 
 />
    <glyph glyph-name="nonmarkingreturn" horiz-adv-x="222" 
 />
    </font>
</defs>
</svg>
